if (_typeface_js && _typeface_js.loadFace) _typeface_js.loadFace({"glyphs":{"0":{"ha":781,"x_min":78,"x_max":702,"o":"m 702 422 q 618 83 702 179 q 391 -14 534 -14 q 166 80 251 -14 q 78 406 81 174 l 78 572 q 163 908 78 814 q 389 1001 248 1001 q 615 910 531 1001 q 702 588 699 820 l 702 422 m 576 593 q 528 829 576 760 q 389 899 481 899 q 253 831 301 899 q 204 603 205 764 l 204 401 q 253 163 204 236 q 391 90 301 90 q 529 162 482 90 q 576 396 575 234 l 576 593 z "},"1":{"ha":781,"x_min":116,"x_max":494,"o":"m 494 993 l 494 0 l 369 0 l 369 836 l 116 744 l 116 857 l 475 993 l 494 993 z "},"2":{"ha":781,"x_min":64,"x_max":729,"o":"m 729 103 l 729 0 l 83 0 l 83 90 l 418 463 q 529 612 500 557 q 558 722 558 667 q 513 846 558 795 q 386 898 468 898 q 238 842 287 898 q 189 697 189 785 l 64 697 q 146 911 64 822 q 386 1001 228 1001 q 605 928 526 1001 q 684 737 684 856 q 630 563 684 650 q 498 390 576 475 l 234 103 l 729 103 z "},"3":{"ha":781,"x_min":64,"x_max":690,"o":"m 265 452 l 265 555 l 357 555 q 502 604 454 556 q 549 724 549 652 q 377 898 549 898 q 248 852 297 898 q 198 729 198 806 l 73 729 q 156 922 73 842 q 377 1001 240 1001 q 593 930 511 1001 q 675 722 675 859 q 638 604 675 667 q 520 507 602 542 q 654 409 618 475 q 690 275 690 342 q 601 62 690 137 q 378 -14 511 -14 q 157 58 249 -14 q 64 261 64 130 l 190 261 q 240 136 190 183 q 378 90 291 90 q 514 135 464 90 q 564 273 564 180 q 507 409 564 365 q 355 452 450 452 l 265 452 z "},"4":{"ha":781,"x_min":36,"x_max":749,"o":"m 36 303 l 478 987 l 612 987 l 612 332 l 749 332 l 749 229 l 612 229 l 612 0 l 486 0 l 486 229 l 36 229 l 36 303 m 178 332 l 486 332 l 486 817 l 471 789 l 178 332 z "},"5":{"ha":781,"x_min":104,"x_max":726,"o":"m 241 470 l 140 496 l 190 987 l 696 987 l 696 871 l 296 871 l 267 603 q 431 646 341 646 q 647 556 568 646 q 726 315 726 466 q 648 80 726 173 q 413 -14 571 -14 q 205 54 293 -14 q 104 260 118 121 l 224 260 q 413 90 248 90 q 551 150 502 90 q 600 313 600 210 q 548 470 600 406 q 402 533 497 533 q 307 516 339 533 q 241 470 274 499 z "},"6":{"ha":781,"x_min":90,"x_max":714,"o":"m 714 322 q 636 84 714 182 q 408 -14 557 -14 q 231 43 301 -14 q 125 187 160 100 q 90 366 90 274 l 90 425 q 129 693 90 564 q 271 906 168 823 q 564 989 373 989 l 574 989 l 574 882 q 370 836 443 882 q 261 716 297 790 q 218 559 226 643 q 431 648 297 648 q 592 600 529 648 q 684 478 654 553 q 714 322 714 403 m 216 361 q 275 160 216 230 q 408 90 334 90 q 542 154 494 90 q 590 316 590 217 q 546 474 590 404 q 410 544 502 544 q 291 505 345 544 q 216 409 237 465 l 216 361 z "},"7":{"ha":781,"x_min":53,"x_max":720,"o":"m 720 987 l 720 917 l 311 0 l 179 0 l 587 884 l 53 884 l 53 987 l 720 987 z "},"8":{"ha":781,"x_min":77,"x_max":705,"o":"m 705 267 q 614 59 705 132 q 391 -14 524 -14 q 167 59 258 -14 q 77 267 77 132 q 121 413 77 350 q 241 509 165 477 q 137 600 176 541 q 99 730 99 658 q 181 930 99 860 q 390 1001 264 1001 q 599 930 517 1001 q 682 730 682 860 q 642 599 682 657 q 537 509 603 541 q 659 413 614 477 q 705 267 705 349 m 556 728 q 510 850 556 802 q 390 898 464 898 q 271 852 316 898 q 225 728 225 806 q 271 606 225 652 q 391 559 316 559 q 510 606 465 559 q 556 728 556 652 m 578 270 q 526 405 578 353 q 389 457 473 457 q 253 405 303 457 q 202 270 202 353 q 253 137 202 184 q 391 90 303 90 q 528 137 478 90 q 578 270 578 184 z "},"9":{"ha":781,"x_min":68,"x_max":689,"o":"m 689 556 q 672 362 689 460 q 608 181 656 264 q 467 49 560 99 q 207 -1 374 -1 l 207 105 q 430 152 357 105 q 531 274 503 199 q 564 435 560 350 q 469 359 524 389 q 350 330 414 330 q 190 379 252 330 q 98 504 127 428 q 68 660 68 579 q 145 901 68 801 q 374 1001 223 1001 q 556 943 487 1001 q 657 793 626 884 q 689 602 689 701 l 689 556 m 191 667 q 235 507 191 578 q 370 435 279 435 q 487 473 435 435 q 564 569 540 512 l 564 618 q 507 825 564 753 q 374 897 450 897 q 239 831 287 897 q 191 667 191 765 z "},"\u0000":{"ha":0,"x_min":0,"x_max":0,"o":""},"\u0002":{"ha":0,"x_min":0,"x_max":0,"o":""},"\t":{"ha":345,"x_min":0,"x_max":0,"o":""},"\r":{"ha":345,"x_min":0,"x_max":0,"o":""}," ":{"ha":345,"x_min":0,"x_max":0,"o":""},"!":{"ha":358,"x_min":109,"x_max":258,"o":"m 245 987 l 236 279 l 123 279 l 113 987 l 245 987 m 109 63 q 128 115 109 94 q 183 136 146 136 q 238 115 219 136 q 258 63 258 94 q 238 13 258 34 q 183 -8 219 -8 q 128 13 146 -8 q 109 63 109 34 z "},"\"":{"ha":445,"x_min":93,"x_max":372,"o":"m 189 949 l 168 707 l 93 707 l 93 1042 l 189 1042 l 189 949 m 372 949 l 351 707 l 276 707 l 276 1042 l 372 1042 l 372 949 z "},"#":{"ha":855,"x_min":81,"x_max":838,"o":"m 465 0 l 519 278 l 340 278 l 286 0 l 189 0 l 243 278 l 81 278 l 81 372 l 262 372 l 308 611 l 132 611 l 132 705 l 326 705 l 381 987 l 479 987 l 424 705 l 603 705 l 658 987 l 755 987 l 700 705 l 838 705 l 838 611 l 682 611 l 635 372 l 787 372 l 787 278 l 616 278 l 562 0 l 465 0 m 359 372 l 538 372 l 585 611 l 406 611 l 359 372 z "},"$":{"ha":781,"x_min":75,"x_max":707,"o":"m 707 256 q 636 70 707 138 q 445 -12 565 1 l 445 -141 l 344 -141 l 344 -12 q 157 67 239 -1 q 75 291 75 136 l 201 291 q 262 136 201 176 q 390 96 323 96 q 531 139 481 96 q 581 254 581 182 q 536 360 581 316 q 383 439 492 405 q 184 547 255 480 q 113 732 113 614 q 178 915 113 845 q 355 999 243 985 l 355 1147 l 457 1147 l 457 998 q 634 903 571 983 q 698 684 698 823 l 573 684 q 530 833 573 774 q 405 892 486 892 q 279 848 319 892 q 239 734 239 804 q 279 629 239 670 q 447 544 319 587 q 641 436 576 500 q 707 256 707 371 z "},"%":{"ha":1017,"x_min":71,"x_max":957,"o":"m 71 798 q 125 942 71 882 q 273 1002 180 1002 q 422 942 368 1002 q 476 798 476 882 l 476 745 q 422 603 476 663 q 275 543 369 543 q 126 603 180 543 q 71 745 71 663 l 71 798 m 165 745 q 192 661 165 699 q 275 624 219 624 q 355 661 329 624 q 382 745 382 698 l 382 798 q 355 883 382 845 q 273 920 328 920 q 192 883 219 920 q 165 798 165 845 l 165 745 m 785 847 l 303 75 l 233 120 l 715 892 l 785 847 m 552 242 q 606 386 552 326 q 754 446 661 446 q 903 386 849 446 q 957 242 957 326 l 957 189 q 903 46 957 106 q 755 -14 850 -14 q 606 46 661 -14 q 552 189 552 106 l 552 242 m 646 189 q 673 104 646 142 q 755 67 700 67 q 837 104 810 67 q 863 189 863 141 l 863 242 q 837 327 863 290 q 754 364 810 364 q 673 327 700 364 q 646 242 646 290 l 646 189 z "},"&":{"ha":864,"x_min":69,"x_max":859,"o":"m 709 0 l 644 78 q 524 9 593 33 q 388 -14 456 -14 q 155 65 240 -14 q 69 266 69 144 q 122 415 69 354 q 260 535 176 475 q 179 650 210 596 q 149 762 149 703 q 217 939 149 877 q 397 1001 285 1001 q 569 939 506 1001 q 631 793 631 877 q 595 672 631 722 q 497 578 558 623 l 423 523 l 643 260 q 689 456 689 348 l 802 456 q 718 169 802 283 l 859 0 l 709 0 m 275 766 q 355 603 275 703 l 428 654 q 494 714 473 686 q 515 793 515 743 q 484 866 515 833 q 396 899 453 899 q 306 859 336 899 q 275 766 275 819 m 195 266 q 242 142 195 194 q 388 90 290 90 q 570 165 488 90 l 330 453 l 301 432 q 211 333 228 378 q 195 266 195 288 z "},"'":{"ha":243,"x_min":71,"x_max":172,"o":"m 172 1042 l 172 967 l 158 718 l 71 718 l 71 1042 l 172 1042 z "},"(":{"ha":475,"x_min":91,"x_max":449,"o":"m 91 401 q 147 745 91 598 q 281 985 203 892 q 422 1114 358 1078 l 449 1031 q 293 816 369 971 q 216 393 216 661 q 293 -21 216 136 q 449 -243 369 -178 l 422 -319 q 281 -191 358 -283 q 147 49 203 -98 q 91 401 91 196 z "},")":{"ha":484,"x_min":26,"x_max":385,"o":"m 385 395 q 328 50 385 197 q 194 -191 272 -98 q 53 -319 117 -283 l 26 -243 q 182 -24 106 -182 q 259 403 259 135 q 221 702 259 574 q 129 914 183 830 q 26 1038 75 998 l 53 1114 q 194 985 117 1078 q 328 746 272 892 q 385 395 385 599 z "},"*":{"ha":598,"x_min":19,"x_max":579,"o":"m 87 480 l 224 667 l 19 728 l 51 830 l 256 755 l 250 988 l 353 988 l 346 751 l 548 826 l 579 722 l 371 661 l 505 477 l 420 414 l 295 609 l 172 418 l 87 480 z "},"+":{"ha":788,"x_min":53,"x_max":730,"o":"m 730 412 l 454 412 l 454 99 l 329 99 l 329 412 l 53 412 l 53 530 l 329 530 l 329 818 l 454 818 l 454 530 l 730 530 l 730 412 z "},",":{"ha":273,"x_min":20,"x_max":210,"o":"m 210 149 l 210 48 q 178 -82 210 -14 q 91 -197 147 -151 l 20 -148 q 87 38 85 -57 l 87 149 l 210 149 z "},"-":{"ha":384,"x_min":26,"x_max":357,"o":"m 357 471 l 357 368 l 26 368 l 26 471 l 357 471 z "},".":{"ha":366,"x_min":98,"x_max":254,"o":"m 98 66 q 118 120 98 98 q 176 142 138 142 q 234 120 214 142 q 254 66 254 98 q 234 14 254 35 q 176 -8 214 -8 q 118 14 138 -8 q 98 66 98 35 z "},"/":{"ha":573,"x_min":13,"x_max":532,"o":"m 532 987 l 121 -85 l 13 -85 l 425 987 l 532 987 z "},":":{"ha":336,"x_min":90,"x_max":247,"o":"m 90 66 q 110 120 90 98 q 168 142 130 142 q 226 120 206 142 q 246 66 246 98 q 226 14 246 35 q 168 -8 206 -8 q 110 14 130 -8 q 90 66 90 35 m 91 665 q 111 719 91 697 q 169 741 131 741 q 227 719 207 741 q 247 665 247 697 q 227 612 247 634 q 169 591 207 591 q 111 612 131 591 q 91 665 91 634 z "},";":{"ha":294,"x_min":28,"x_max":231,"o":"m 75 665 q 95 719 75 697 q 153 741 115 741 q 211 719 191 741 q 231 665 231 697 q 211 612 231 634 q 153 591 191 591 q 95 612 115 591 q 75 665 75 634 m 218 149 l 218 48 q 186 -82 218 -14 q 99 -197 155 -151 l 28 -148 q 95 38 93 -57 l 95 149 l 218 149 z "},"<":{"ha":706,"x_min":49,"x_max":604,"o":"m 604 133 l 49 390 l 49 488 l 604 745 l 604 612 l 180 437 l 604 266 l 604 133 z "},"=":{"ha":762,"x_min":103,"x_max":669,"o":"m 669 661 l 669 552 l 103 552 l 103 661 l 669 661 m 669 380 l 669 271 l 103 271 l 103 380 l 669 380 z "},">":{"ha":726,"x_min":92,"x_max":671,"o":"m 92 746 l 671 490 l 671 391 l 92 134 l 92 263 l 541 441 l 92 616 l 92 746 z "},"?":{"ha":656,"x_min":51,"x_max":602,"o":"m 368 278 l 242 278 q 269 425 243 376 q 359 540 296 474 q 440 629 405 587 q 475 740 475 671 q 438 850 475 810 q 330 891 401 891 q 224 859 271 891 q 176 756 177 827 l 51 756 q 133 936 52 871 q 330 1001 213 1001 q 531 932 460 1001 q 602 743 602 863 q 548 580 602 652 q 431 450 494 508 q 368 278 368 391 m 237 63 q 256 115 237 94 q 311 136 275 136 q 366 115 347 136 q 385 63 385 94 q 366 13 385 34 q 311 -8 347 -8 q 256 13 275 -8 q 237 63 237 34 z "},"@":{"ha":1247,"x_min":66,"x_max":1189,"o":"m 858 -247 q 740 -292 810 -277 q 606 -307 669 -307 q 207 -137 348 -307 q 79 324 66 33 q 160 656 87 510 q 360 886 233 802 q 657 970 487 970 q 1054 800 918 970 q 1177 341 1189 630 q 1146 176 1174 258 q 1058 40 1118 94 q 900 -14 998 -14 q 737 101 772 -14 q 555 -14 664 -14 q 408 68 456 -14 q 373 283 361 150 q 475 567 389 462 q 667 671 562 671 q 782 650 740 671 q 862 600 824 629 l 827 224 q 850 96 819 125 q 914 66 881 66 q 1041 146 996 66 q 1090 341 1085 227 q 996 738 1101 594 q 654 882 890 882 q 314 727 441 882 q 177 324 187 572 q 278 -76 165 71 q 608 -222 392 -222 q 729 -208 668 -222 q 832 -170 791 -194 l 858 -247 m 481 283 q 499 136 472 188 q 587 83 527 83 q 661 115 621 83 q 727 218 700 146 l 728 224 l 759 564 q 677 584 721 584 q 549 508 604 584 q 481 283 494 432 z "},"A":{"ha":906,"x_min":20,"x_max":888,"o":"m 20 0 l 396 987 l 511 987 l 888 0 l 754 0 l 660 258 l 247 258 l 153 0 l 20 0 m 286 366 l 621 366 l 454 826 l 286 366 z "},"B":{"ha":865,"x_min":115,"x_max":787,"o":"m 787 285 q 697 73 787 146 q 460 0 608 0 l 115 0 l 115 987 l 438 987 q 675 925 590 987 q 760 724 760 862 q 721 603 760 656 q 614 520 682 549 q 742 433 698 497 q 787 285 787 368 m 245 880 l 245 567 l 442 567 q 578 609 526 567 q 629 726 629 651 q 446 880 629 877 l 245 880 m 656 283 q 611 414 656 366 q 467 462 566 462 l 245 462 l 245 106 l 460 106 q 605 154 553 106 q 656 283 656 202 z "},"C":{"ha":904,"x_min":81,"x_max":841,"o":"m 711 314 l 841 314 q 735 80 826 174 q 467 -14 644 -14 q 189 110 294 -14 q 81 437 83 233 l 81 543 q 188 876 81 750 q 478 1001 295 1001 q 736 909 646 1001 q 841 671 826 817 l 711 671 q 644 834 696 774 q 478 894 593 894 q 279 798 347 894 q 212 544 212 701 l 212 444 q 273 196 212 298 q 467 93 335 93 q 643 151 591 93 q 711 314 694 210 z "},"D":{"ha":911,"x_min":115,"x_max":829,"o":"m 115 0 l 115 987 l 394 987 q 709 862 589 987 q 829 523 829 737 l 829 464 q 708 125 829 250 q 382 0 587 0 l 115 0 m 245 880 l 245 106 l 382 106 q 620 204 540 106 q 700 464 700 302 l 700 524 q 620 787 700 694 q 394 880 540 880 l 245 880 z "},"E":{"ha":789,"x_min":115,"x_max":742,"o":"m 115 0 l 115 987 l 735 987 l 735 880 l 245 880 l 245 563 l 673 563 l 673 456 l 245 456 l 245 106 l 742 106 l 742 0 l 115 0 z "},"F":{"ha":768,"x_min":115,"x_max":726,"o":"m 115 0 l 115 987 l 726 987 l 726 880 l 245 880 l 245 543 l 659 543 l 659 436 l 245 436 l 245 0 l 115 0 z "},"G":{"ha":946,"x_min":83,"x_max":844,"o":"m 844 492 l 844 130 q 739 38 817 90 q 495 -14 661 -14 q 199 110 315 -14 q 83 456 83 234 l 83 532 q 186 877 83 753 q 480 1001 289 1001 q 738 916 650 1001 q 844 699 825 830 l 713 699 q 647 836 700 779 q 480 894 593 894 q 279 798 344 894 q 214 537 215 702 l 214 456 q 292 189 214 285 q 496 93 369 93 q 648 118 601 93 q 714 165 694 142 l 714 386 l 486 386 l 486 492 l 844 492 z "},"H":{"ha":991,"x_min":115,"x_max":873,"o":"m 743 0 l 743 456 l 245 456 l 245 0 l 115 0 l 115 987 l 245 987 l 245 563 l 743 563 l 743 987 l 873 987 l 873 0 l 743 0 z "},"I":{"ha":378,"x_min":124,"x_max":255,"o":"m 255 987 l 255 0 l 124 0 l 124 987 l 255 987 z "},"J":{"ha":766,"x_min":36,"x_max":659,"o":"m 529 987 l 659 987 l 659 288 q 571 64 659 142 q 348 -14 484 -14 q 124 57 212 -14 q 36 273 36 127 l 167 273 q 217 136 167 180 q 348 93 268 93 q 477 142 425 93 q 529 288 529 192 l 529 987 z "},"K":{"ha":871,"x_min":115,"x_max":871,"o":"m 715 0 l 366 460 l 245 334 l 245 0 l 115 0 l 115 987 l 245 987 l 245 500 l 684 987 l 842 987 l 454 551 l 871 0 l 715 0 z "},"L":{"ha":748,"x_min":115,"x_max":713,"o":"m 713 106 l 713 0 l 115 0 l 115 987 l 245 987 l 245 106 l 713 106 z "},"M":{"ha":1213,"x_min":115,"x_max":1097,"o":"m 606 182 l 929 987 l 1097 987 l 1097 0 l 967 0 l 967 385 l 980 798 l 655 0 l 556 0 l 232 800 l 245 385 l 245 0 l 115 0 l 115 987 l 283 987 l 606 182 z "},"N":{"ha":991,"x_min":115,"x_max":874,"o":"m 874 987 l 874 0 l 743 0 l 245 762 l 245 0 l 115 0 l 115 987 l 245 987 l 745 224 l 745 987 l 874 987 z "},"O":{"ha":956,"x_min":81,"x_max":875,"o":"m 875 463 q 767 113 875 240 q 479 -14 659 -14 q 192 113 303 -14 q 81 463 81 240 l 81 525 q 191 874 81 747 q 477 1001 302 1001 q 765 876 656 1001 q 875 533 873 751 l 875 463 m 745 526 q 675 796 745 703 q 477 890 604 890 q 283 796 356 890 q 210 526 210 703 l 210 463 q 284 191 210 285 q 479 97 357 97 q 676 191 606 97 q 745 463 745 285 l 745 526 z "},"P":{"ha":876,"x_min":115,"x_max":825,"o":"m 245 387 l 245 0 l 115 0 l 115 987 l 479 987 q 736 903 647 987 q 825 686 825 818 q 736 465 825 543 q 479 387 647 387 l 245 387 m 245 880 l 245 494 l 479 494 q 644 547 594 494 q 694 685 694 601 q 644 821 694 761 q 479 880 594 880 l 245 880 z "},"Q":{"ha":956,"x_min":75,"x_max":872,"o":"m 872 -85 l 784 -167 l 576 -1 q 473 -14 527 -14 q 186 113 297 -14 q 75 463 75 240 l 75 525 q 185 874 75 747 q 471 1001 296 1001 q 759 876 650 1001 q 869 533 867 751 l 869 463 q 823 216 869 320 q 696 54 778 112 l 872 -85 m 739 526 q 669 796 739 703 q 471 890 598 890 q 277 796 350 890 q 204 526 204 703 l 204 463 q 278 191 204 285 q 473 97 351 97 q 670 191 600 97 q 739 463 739 285 l 739 526 z "},"R":{"ha":856,"x_min":115,"x_max":831,"o":"m 692 0 l 477 400 l 245 400 l 245 0 l 115 0 l 115 987 l 441 987 q 697 911 608 987 q 787 691 787 836 q 738 530 787 599 q 600 427 688 461 l 831 8 l 831 0 l 692 0 m 245 880 l 245 507 l 446 507 q 604 561 551 507 q 657 691 657 614 q 606 828 657 777 q 441 880 555 880 l 245 880 z "},"S":{"ha":825,"x_min":55,"x_max":772,"o":"m 641 250 q 595 358 641 317 q 403 442 549 399 q 171 552 256 485 q 86 732 86 618 q 178 924 86 848 q 422 1001 270 1001 q 679 909 589 1001 q 770 703 770 818 l 640 703 q 586 840 640 785 q 422 894 532 894 q 267 848 317 894 q 217 734 217 802 q 270 631 217 672 q 444 556 323 590 q 694 437 615 508 q 772 251 772 366 q 678 58 772 130 q 428 -14 584 -14 q 251 20 336 -14 q 110 121 165 54 q 55 286 55 188 l 185 286 q 259 139 185 185 q 428 93 333 93 q 586 135 530 93 q 641 250 641 178 z "},"T":{"ha":829,"x_min":34,"x_max":797,"o":"m 34 880 l 34 987 l 797 987 l 797 880 l 479 880 l 479 0 l 351 0 l 351 880 l 34 880 z "},"U":{"ha":901,"x_min":95,"x_max":810,"o":"m 680 987 l 810 987 l 810 319 q 703 70 810 153 q 452 -14 595 -14 q 198 70 300 -14 q 95 319 95 153 l 95 987 l 224 987 l 224 319 q 287 148 224 203 q 452 93 350 93 q 617 148 555 93 q 680 319 680 203 l 680 987 z "},"V":{"ha":884,"x_min":20,"x_max":866,"o":"m 866 987 l 500 0 l 385 0 l 20 987 l 161 987 l 441 174 l 724 987 l 866 987 z "},"W":{"ha":1232,"x_min":41,"x_max":1202,"o":"m 1202 987 l 964 0 l 845 0 l 642 720 l 626 795 l 610 720 l 399 0 l 281 0 l 41 987 l 172 987 l 328 312 l 347 181 l 374 298 l 570 987 l 680 987 l 870 298 l 898 178 l 919 313 l 1072 987 l 1202 987 z "},"X":{"ha":871,"x_min":39,"x_max":834,"o":"m 199 987 l 437 609 l 674 987 l 827 987 l 515 498 l 834 0 l 680 0 l 437 386 l 193 0 l 39 0 l 359 498 l 47 987 l 199 987 z "},"Y":{"ha":834,"x_min":10,"x_max":822,"o":"m 160 987 l 416 492 l 673 987 l 822 987 l 481 369 l 481 0 l 351 0 l 351 369 l 10 987 l 160 987 z "},"Z":{"ha":832,"x_min":59,"x_max":777,"o":"m 68 880 l 68 987 l 755 987 l 755 892 l 213 106 l 777 106 l 777 0 l 59 0 l 59 98 l 600 880 l 68 880 z "},"[":{"ha":368,"x_min":100,"x_max":355,"o":"m 355 1128 l 355 1025 l 225 1025 l 225 -109 l 355 -109 l 355 -212 l 100 -212 l 100 1128 l 355 1128 z "},"\\":{"ha":570,"x_min":28,"x_max":559,"o":"m 440 -85 l 28 987 l 147 987 l 559 -85 l 440 -85 z "},"]":{"ha":368,"x_min":7,"x_max":263,"o":"m 7 1025 l 7 1128 l 263 1128 l 263 -212 l 7 -212 l 7 -109 l 137 -109 l 137 1025 l 7 1025 z "},"^":{"ha":581,"x_min":43,"x_max":535,"o":"m 43 494 l 246 987 l 333 987 l 535 494 l 418 494 l 290 822 l 160 494 l 43 494 z "},"_":{"ha":627,"x_min":3,"x_max":625,"o":"m 625 0 l 625 -103 l 3 -103 l 3 0 l 625 0 z "},"`":{"ha":429,"x_min":39,"x_max":321,"o":"m 191 1042 l 321 842 l 214 842 l 39 1042 l 191 1042 z "},"a":{"ha":755,"x_min":74,"x_max":680,"o":"m 549 0 q 531 77 536 26 q 443 13 496 40 q 322 -14 390 -14 q 142 50 210 -14 q 74 204 74 113 q 163 384 74 322 q 404 445 253 445 l 528 445 l 528 503 q 489 607 528 568 q 374 646 450 646 q 259 611 302 646 q 215 530 215 576 l 90 530 q 169 678 90 609 q 381 747 248 747 q 577 686 500 747 q 654 502 654 625 l 654 172 q 680 11 654 71 l 680 0 l 549 0 m 340 96 q 458 130 408 96 q 528 205 508 164 l 528 357 l 412 357 q 200 221 200 353 q 235 133 200 169 q 340 96 271 96 z "},"b":{"ha":780,"x_min":95,"x_max":717,"o":"m 717 359 q 642 92 717 198 q 431 -14 568 -14 q 217 85 292 -14 l 210 0 l 95 0 l 95 1042 l 221 1042 l 221 654 q 430 747 296 747 q 643 644 568 747 q 717 373 717 541 l 717 359 m 399 642 q 288 609 330 642 q 221 528 245 576 l 221 208 q 289 126 245 159 q 400 93 332 93 q 546 171 502 93 q 591 359 591 250 l 591 373 q 548 562 591 482 q 399 642 506 642 z "},"c":{"ha":727,"x_min":63,"x_max":682,"o":"m 389 90 q 507 130 456 90 q 562 232 557 170 l 682 232 q 591 60 677 134 q 389 -14 506 -14 q 143 96 224 -14 q 63 353 63 205 l 63 381 q 143 638 63 529 q 389 747 224 747 q 597 671 518 747 q 682 481 677 595 l 562 481 q 511 597 557 549 q 389 644 465 644 q 268 605 312 644 q 207 505 224 566 q 189 381 189 445 l 189 353 q 206 228 189 288 q 268 129 224 168 q 389 90 311 90 z "},"d":{"ha":783,"x_min":64,"x_max":684,"o":"m 569 0 l 563 79 q 353 -14 488 -14 q 145 91 224 -14 q 64 353 66 195 l 64 373 q 144 644 64 541 q 355 747 224 747 q 558 661 484 747 l 558 1042 l 684 1042 l 684 0 l 569 0 m 191 359 q 237 171 191 250 q 385 93 283 93 q 558 199 501 93 l 558 537 q 386 642 502 642 q 237 562 283 642 q 191 373 191 482 l 191 359 z "},"e":{"ha":736,"x_min":63,"x_max":686,"o":"m 676 128 q 574 30 640 74 q 400 -14 509 -14 q 155 86 247 -14 q 63 341 63 186 l 63 370 q 109 574 63 490 q 228 703 155 659 q 384 747 301 747 q 613 645 541 747 q 686 388 686 542 l 686 332 l 189 332 q 249 160 192 231 q 407 89 307 89 q 519 116 473 89 q 600 189 566 143 l 676 128 m 384 644 q 258 590 309 644 q 193 434 206 536 l 560 434 l 560 444 q 518 581 555 517 q 384 644 480 644 z "},"f":{"ha":483,"x_min":41,"x_max":485,"o":"m 439 637 l 283 637 l 283 0 l 157 0 l 157 637 l 41 637 l 41 734 l 157 734 l 157 816 q 223 994 159 932 q 398 1056 287 1056 q 485 1045 439 1056 l 478 943 q 410 949 450 949 q 283 815 285 949 l 283 734 l 439 734 l 439 637 z "},"g":{"ha":780,"x_min":66,"x_max":685,"o":"m 374 -290 q 235 -262 317 -290 q 102 -162 152 -234 l 168 -87 q 365 -186 250 -186 q 507 -137 454 -186 q 559 9 559 -87 l 559 74 q 354 -14 485 -14 q 144 92 222 -14 q 66 359 66 198 l 66 373 q 143 644 66 541 q 355 747 221 747 q 565 652 490 747 l 571 734 l 685 734 l 685 16 q 598 -210 685 -130 q 374 -290 511 -290 m 191 359 q 237 171 191 250 q 385 93 283 93 q 559 201 504 93 l 559 536 q 494 611 536 581 q 386 642 452 642 q 237 562 283 642 q 191 373 191 482 l 191 359 z "},"h":{"ha":765,"x_min":96,"x_max":673,"o":"m 400 642 q 294 609 340 642 q 221 524 248 576 l 221 0 l 96 0 l 96 1042 l 221 1042 l 221 646 q 437 747 304 747 q 609 687 545 747 q 673 484 672 627 l 673 0 l 547 0 l 547 482 q 509 605 547 568 q 400 642 471 642 z "},"i":{"ha":338,"x_min":96,"x_max":245,"o":"m 96 928 q 115 980 96 959 q 170 1001 134 1001 q 225 980 206 1001 q 245 928 245 959 q 225 879 245 899 q 170 858 206 858 q 115 879 134 858 q 96 928 96 899 m 232 734 l 232 0 l 106 0 l 106 734 l 232 734 z "},"j":{"ha":332,"x_min":-45,"x_max":235,"o":"m 86 928 q 105 980 86 959 q 160 1001 124 1001 q 216 980 197 1001 q 235 928 235 959 q 216 879 235 899 q 160 858 197 858 q 105 879 124 858 q 86 928 86 899 m 99 734 l 225 734 l 225 -87 q 33 -296 225 -296 q -45 -285 -9 -296 l -44 -184 q 14 -190 -19 -190 q 99 -96 96 -190 l 99 734 z "},"k":{"ha":704,"x_min":96,"x_max":703,"o":"m 555 0 l 301 340 l 222 258 l 222 0 l 96 0 l 96 1042 l 222 1042 l 222 412 l 289 492 l 517 734 l 670 734 l 384 428 l 703 0 l 555 0 z "},"l":{"ha":338,"x_min":106,"x_max":232,"o":"m 232 1042 l 232 0 l 106 0 l 106 1042 l 232 1042 z "},"m":{"ha":1218,"x_min":94,"x_max":1124,"o":"m 389 642 q 220 538 266 642 l 220 0 l 94 0 l 94 734 l 214 734 l 217 654 q 434 747 296 747 q 560 719 505 747 q 644 629 615 691 q 740 715 681 682 q 878 747 798 747 q 1060 684 996 747 q 1124 482 1124 621 l 1124 0 l 998 0 l 998 484 q 955 609 998 576 q 841 642 913 642 q 722 596 765 642 q 671 487 678 551 l 671 0 l 546 0 l 546 483 q 503 605 546 569 q 389 642 460 642 z "},"n":{"ha":767,"x_min":96,"x_max":673,"o":"m 400 642 q 294 609 340 642 q 221 524 248 576 l 221 0 l 96 0 l 96 734 l 214 734 l 218 642 q 437 747 302 747 q 609 687 545 747 q 673 484 672 627 l 673 0 l 547 0 l 547 482 q 509 605 547 568 q 400 642 471 642 z "},"o":{"ha":792,"x_min":62,"x_max":730,"o":"m 62 374 q 152 641 62 534 q 395 747 241 747 q 639 643 549 747 q 730 381 728 538 l 730 359 q 641 93 730 199 q 397 -14 551 -14 q 152 93 242 -14 q 62 359 62 199 l 62 374 m 188 359 q 240 170 188 250 q 397 90 292 90 q 551 169 499 90 q 604 357 604 248 l 604 374 q 552 563 604 482 q 395 644 500 644 q 240 563 292 644 q 188 374 188 482 l 188 359 z "},"p":{"ha":780,"x_min":95,"x_max":715,"o":"m 431 -14 q 221 71 298 -14 l 221 -282 l 95 -282 l 95 734 l 210 734 l 216 653 q 429 747 294 747 q 642 644 568 747 q 715 373 715 541 l 715 359 q 641 92 715 198 q 431 -14 567 -14 m 392 642 q 221 541 278 642 l 221 189 q 393 90 279 90 q 542 170 495 90 q 589 359 589 250 l 589 373 q 542 562 589 482 q 392 642 495 642 z "},"q":{"ha":789,"x_min":64,"x_max":684,"o":"m 684 734 l 684 -282 l 557 -282 l 557 68 q 355 -14 482 -14 q 142 92 220 -14 q 64 359 64 198 l 64 373 q 142 644 64 541 q 357 747 219 747 q 563 660 487 747 l 568 734 l 684 734 m 191 359 q 238 170 191 250 q 387 90 285 90 q 557 188 498 90 l 557 548 q 388 644 498 644 q 238 563 285 644 q 191 372 191 482 l 191 359 z "},"r":{"ha":471,"x_min":96,"x_max":450,"o":"m 389 627 q 221 521 266 627 l 221 0 l 96 0 l 96 734 l 218 734 l 220 650 q 395 747 281 747 q 450 738 430 747 l 450 621 q 389 627 422 627 z "},"s":{"ha":717,"x_min":64,"x_max":648,"o":"m 523 195 q 493 267 523 235 q 357 321 464 299 q 162 394 235 346 q 90 533 90 441 q 164 684 90 620 q 361 747 238 747 q 567 680 493 747 q 641 518 641 613 l 515 518 q 475 604 515 564 q 361 644 435 644 q 250 610 283 644 q 216 536 216 576 q 247 472 216 496 q 381 424 279 447 q 582 344 516 393 q 648 204 648 294 q 571 47 648 107 q 365 -14 493 -14 q 142 61 219 -14 q 64 227 64 136 l 191 227 q 251 119 195 149 q 365 90 307 90 q 482 119 441 90 q 523 195 523 149 z "},"t":{"ha":454,"x_min":6,"x_max":406,"o":"m 406 0 q 309 -14 363 -14 q 190 29 239 -14 q 140 182 140 72 l 140 637 l 6 637 l 6 734 l 140 734 l 140 912 l 266 912 l 266 734 l 403 734 l 403 637 l 266 637 l 266 182 q 290 110 266 125 q 347 94 315 94 q 406 102 370 94 l 406 0 z "},"u":{"ha":766,"x_min":93,"x_max":671,"o":"m 551 0 l 548 73 q 334 -14 476 -14 q 159 50 226 -14 q 93 260 93 114 l 93 734 l 218 734 l 218 259 q 260 126 218 160 q 353 93 302 93 q 545 199 495 93 l 545 734 l 671 734 l 671 0 l 551 0 z "},"v":{"ha":673,"x_min":22,"x_max":648,"o":"m 648 734 l 384 0 l 288 0 l 22 734 l 151 734 l 338 172 l 519 734 l 648 734 z "},"w":{"ha":1044,"x_min":29,"x_max":1011,"o":"m 1011 734 l 798 0 l 696 0 l 518 555 l 345 0 l 242 0 l 29 734 l 155 734 l 299 186 l 470 734 l 571 734 l 745 174 l 886 734 l 1011 734 z "},"x":{"ha":689,"x_min":28,"x_max":659,"o":"m 180 734 l 341 467 l 504 734 l 651 734 l 411 372 l 659 0 l 513 0 l 344 275 l 174 0 l 28 0 l 275 372 l 36 734 l 180 734 z "},"y":{"ha":657,"x_min":15,"x_max":640,"o":"m 346 -113 q 149 -296 281 -286 l 128 -296 q 58 -286 88 -296 l 57 -184 l 91 -186 q 191 -160 155 -186 q 250 -66 227 -134 l 277 8 l 15 734 l 152 734 l 336 184 l 506 734 l 640 734 l 346 -113 z "},"z":{"ha":689,"x_min":60,"x_max":642,"o":"m 66 630 l 66 734 l 623 734 l 623 645 l 214 103 l 642 103 l 642 0 l 60 0 l 60 92 l 465 630 l 66 630 z "},"{":{"ha":470,"x_min":43,"x_max":455,"o":"m 43 368 l 43 467 q 187 631 187 467 l 187 768 q 239 959 187 875 q 429 1083 290 1044 l 455 1006 q 344 916 374 981 q 313 768 313 851 l 313 633 q 200 417 313 478 q 313 200 313 357 l 313 67 q 344 -81 313 -16 q 455 -170 374 -145 l 429 -248 q 239 -124 290 -209 q 187 67 187 -39 l 187 203 q 43 368 187 368 z "},"|":{"ha":339,"x_min":119,"x_max":220,"o":"m 220 987 l 220 -183 l 119 -183 l 119 987 l 220 987 z "},"}":{"ha":470,"x_min":14,"x_max":425,"o":"m 425 467 l 425 368 q 281 204 281 368 l 281 67 q 230 -124 281 -39 q 40 -248 179 -209 l 14 -170 q 124 -81 94 -145 q 155 67 155 -16 l 155 202 q 279 417 155 361 q 155 633 155 473 l 155 768 q 125 916 155 851 q 14 1006 94 981 l 40 1083 q 230 959 179 1044 q 281 768 281 875 l 281 629 q 425 467 281 467 z "},"~":{"ha":945,"x_min":89,"x_max":857,"o":"m 753 527 l 857 528 q 795 348 857 423 q 637 273 734 273 q 533 297 578 273 q 435 367 488 321 q 371 416 400 399 q 308 434 342 434 q 227 397 256 434 q 198 297 198 361 l 89 296 q 150 473 89 402 q 308 545 212 545 q 412 520 366 545 q 508 452 457 496 q 584 395 559 407 q 637 383 609 383 q 721 423 689 383 q 753 527 753 463 z "},"¡":{"ha":339,"x_min":94,"x_max":243,"o":"m 243 675 q 243 661 243 675 q 224 625 243 646 q 169 604 205 604 q 114 625 133 604 q 94 675 94 646 q 114 726 94 705 q 169 747 133 747 q 224 726 205 747 q 243 675 243 705 m 106 -245 l 116 464 l 229 464 l 239 -245 l 106 -245 z "},"¢":{"ha":760,"x_min":71,"x_max":690,"o":"m 690 232 q 618 78 686 146 q 454 -9 551 9 l 454 -166 l 328 -166 l 328 -7 q 135 119 198 17 q 71 353 71 222 l 71 381 q 135 614 71 512 q 328 741 199 717 l 328 894 l 454 894 l 454 743 q 623 654 559 726 q 690 481 686 582 l 571 481 q 519 597 566 549 q 398 644 473 644 q 277 605 321 644 q 215 505 233 566 q 197 381 197 445 l 197 353 q 215 228 197 288 q 276 129 233 168 q 398 90 320 90 q 515 130 465 90 q 571 232 566 170 l 690 232 z "},"£":{"ha":808,"x_min":62,"x_max":765,"o":"m 64 0 l 64 106 l 117 106 q 166 171 152 115 q 180 272 180 227 l 174 422 l 62 422 l 62 529 l 171 529 l 165 705 q 251 923 165 845 q 466 1001 336 1001 q 672 928 599 1001 q 746 737 746 855 l 616 737 q 567 858 616 822 q 455 895 518 895 q 341 845 388 895 q 295 705 295 796 l 301 529 l 517 529 l 517 422 l 304 422 l 310 273 q 269 106 311 170 l 765 106 l 765 0 l 64 0 z "},"¤":{"ha":991,"x_min":71,"x_max":930,"o":"m 930 75 l 840 -18 l 748 76 q 498 -14 639 -14 q 251 75 359 -14 l 160 -18 l 71 75 l 165 170 q 95 412 95 278 q 171 663 95 553 l 71 765 l 160 857 l 259 756 q 498 837 365 837 q 739 755 633 837 l 840 858 l 930 765 l 827 661 q 902 412 902 551 q 833 172 902 279 l 930 75 m 212 412 q 212 348 212 412 q 296 194 212 284 q 498 103 380 103 q 701 194 617 103 q 785 412 785 284 q 701 630 785 541 q 498 720 617 720 q 296 630 380 720 q 212 412 212 541 z "},"¥":{"ha":730,"x_min":10,"x_max":719,"o":"m 648 218 l 427 218 l 427 0 l 297 0 l 297 218 l 81 218 l 81 302 l 297 302 l 297 415 l 81 415 l 81 500 l 259 500 l 10 987 l 157 987 l 366 538 l 574 987 l 719 987 l 471 500 l 648 500 l 648 415 l 428 415 l 427 414 l 427 302 l 648 302 l 648 218 z "},"¦":{"ha":334,"x_min":100,"x_max":226,"o":"m 226 987 l 226 473 l 100 473 l 100 987 l 226 987 m 226 -183 l 100 -183 l 100 354 l 226 354 l 226 -183 z "},"§":{"ha":852,"x_min":62,"x_max":777,"o":"m 746 -87 q 656 -271 746 -205 q 416 -336 566 -336 q 247 -308 328 -336 q 114 -217 166 -281 q 62 -43 62 -153 l 187 -42 q 261 -191 187 -150 q 416 -233 335 -233 q 567 -191 513 -233 q 621 -89 621 -150 q 570 9 621 -26 q 382 85 519 44 q 150 186 234 125 q 66 374 66 247 q 189 559 66 502 q 96 753 96 627 q 186 934 96 866 q 428 1002 277 1002 q 672 926 583 1002 q 761 709 761 850 l 635 709 q 582 843 635 788 q 428 899 529 899 q 272 856 321 899 q 222 755 222 814 q 267 654 222 688 q 464 578 311 621 q 696 476 616 536 q 777 292 777 416 q 651 106 777 163 q 746 -87 746 39 m 542 161 q 651 290 651 191 q 600 391 651 354 q 409 469 548 427 q 296 505 342 487 q 217 457 243 492 q 191 375 191 422 q 236 274 191 309 q 425 199 281 239 q 542 161 496 179 z "},"¨":{"ha":581,"x_min":68,"x_max":509,"o":"m 68 930 q 87 981 68 960 q 142 1002 106 1002 q 198 981 179 1002 q 217 930 217 960 q 198 880 217 901 q 142 859 179 859 q 87 880 106 859 q 68 930 68 901 m 361 928 q 379 980 361 959 q 435 1001 398 1001 q 490 980 471 1001 q 509 928 509 959 q 490 879 509 899 q 435 858 471 858 q 379 879 398 858 q 361 928 361 899 z "},"©":{"ha":1091,"x_min":62,"x_max":1025,"o":"m 62 494 q 62 566 62 494 q 127 752 62 637 q 302 934 193 867 q 544 1001 411 1001 q 786 934 677 1001 q 960 752 895 867 q 1025 494 1025 637 q 960 236 1025 351 q 786 53 895 121 q 544 -14 677 -14 q 302 53 411 -14 q 127 236 193 121 q 62 494 62 351 m 140 494 q 140 434 140 494 q 195 277 140 374 q 341 123 249 180 q 544 66 433 66 q 746 123 655 66 q 892 277 838 180 q 946 494 946 374 q 892 711 946 615 q 746 864 838 808 q 544 920 655 920 q 341 864 433 920 q 195 711 249 808 q 140 494 140 615 m 661 406 l 760 406 q 699 245 760 298 q 534 193 638 193 q 363 265 427 193 q 300 455 300 338 l 300 533 q 363 723 300 650 q 534 795 427 795 q 699 743 638 795 q 760 583 760 690 l 661 583 q 534 709 661 709 q 432 660 467 709 q 397 534 397 610 l 397 455 q 432 329 397 378 q 534 279 467 279 q 629 309 597 279 q 661 406 661 338 z "},"ª":{"ha":621,"x_min":100,"x_max":532,"o":"m 420 479 l 408 528 q 269 469 353 469 q 143 511 187 469 q 100 623 100 553 q 318 779 100 775 l 404 779 l 404 815 q 319 906 404 906 q 219 835 219 906 l 110 844 q 167 957 110 912 q 319 1002 224 1002 q 460 955 407 1002 q 514 814 514 907 l 514 602 q 532 479 514 532 l 420 479 m 295 562 q 355 576 325 562 q 404 608 385 590 l 404 704 l 330 704 q 239 681 269 704 q 210 625 210 657 q 295 562 210 562 z "},"«":{"ha":652,"x_min":68,"x_max":589,"o":"m 269 102 l 68 366 l 68 378 l 269 642 l 365 642 l 190 372 l 365 102 l 269 102 m 493 102 l 293 366 l 293 378 l 493 642 l 589 642 l 414 372 l 589 102 l 493 102 z "},"¬":{"ha":769,"x_min":86,"x_max":650,"o":"m 86 543 l 650 543 l 650 255 l 524 255 l 524 433 l 86 433 l 86 543 z "},"®":{"ha":1092,"x_min":62,"x_max":1024,"o":"m 62 494 q 62 566 62 494 q 127 752 62 637 q 301 934 192 867 q 543 1001 410 1001 q 785 934 675 1001 q 959 752 894 867 q 1024 494 1024 637 q 959 236 1024 351 q 785 53 894 121 q 543 -14 675 -14 q 301 53 410 -14 q 127 236 192 121 q 62 494 62 351 m 140 494 q 140 434 140 494 q 194 277 140 374 q 340 123 248 180 q 543 66 431 66 q 745 123 654 66 q 891 277 837 180 q 945 494 945 374 q 891 711 945 615 q 745 864 837 808 q 543 920 654 920 q 340 864 431 920 q 194 711 248 808 q 140 494 140 615 m 443 444 l 443 215 l 347 215 l 347 790 l 535 790 q 694 747 635 790 q 753 617 753 704 q 666 490 753 534 q 749 351 749 456 l 749 312 q 761 226 749 255 l 761 215 l 663 215 q 655 265 656 232 q 654 347 654 298 q 629 420 654 396 q 553 444 604 444 l 443 444 m 443 704 l 443 531 l 549 531 q 625 553 592 532 q 658 613 658 574 q 631 684 658 663 q 535 704 604 704 l 443 704 z "},"¯":{"ha":637,"x_min":97,"x_max":552,"o":"m 552 980 l 552 884 l 97 884 l 97 980 l 552 980 z "},"°":{"ha":519,"x_min":89,"x_max":432,"o":"m 89 825 q 89 862 89 825 q 140 950 89 898 q 262 1002 191 1002 q 382 950 332 1002 q 432 825 432 898 q 382 702 432 753 q 262 651 332 651 q 140 702 191 651 q 89 825 89 753 m 173 825 q 199 763 173 788 q 262 738 225 738 q 323 763 298 738 q 348 825 348 788 q 323 889 348 863 q 262 915 298 915 q 199 889 225 915 q 173 825 173 863 z "},"±":{"ha":743,"x_min":66,"x_max":687,"o":"m 687 477 l 441 477 l 441 196 l 328 196 l 328 477 l 66 477 l 66 580 l 328 580 l 328 859 l 441 859 l 441 580 l 687 580 l 687 477 m 659 103 l 659 1 l 92 1 l 92 103 l 659 103 z "},"²":{"ha":509,"x_min":45,"x_max":463,"o":"m 463 539 l 463 452 l 58 452 l 58 526 l 264 720 q 334 833 334 787 q 313 887 334 866 q 251 908 291 908 q 176 882 200 908 q 152 818 152 857 l 45 818 q 99 943 45 890 q 248 995 153 995 q 391 952 339 995 q 442 835 442 909 q 407 736 442 781 q 312 638 372 692 l 193 539 l 463 539 z "},"³":{"ha":509,"x_min":43,"x_max":452,"o":"m 180 686 l 180 764 l 241 764 q 336 838 336 765 q 315 888 336 867 q 246 908 293 908 q 182 891 208 908 q 157 845 157 874 l 50 845 q 106 955 50 914 q 244 995 163 995 q 388 956 332 995 q 443 843 443 917 q 352 727 443 762 q 452 602 452 699 q 393 486 452 527 q 245 445 334 445 q 105 483 168 445 q 43 604 43 521 l 149 604 q 176 552 149 573 q 248 532 203 532 q 345 607 345 532 q 243 686 345 684 l 180 686 z "},"´":{"ha":435,"x_min":83,"x_max":366,"o":"m 83 842 l 215 1042 l 366 1042 l 184 842 l 83 842 z "},"µ":{"ha":787,"x_min":105,"x_max":682,"o":"m 385 -14 q 230 36 285 -14 l 230 -282 l 105 -282 l 105 734 l 230 734 l 230 302 q 275 130 231 170 q 380 89 318 89 q 557 193 515 89 l 557 734 l 682 734 l 682 0 l 569 0 l 564 78 q 385 -14 501 -14 z "},"¶":{"ha":680,"x_min":46,"x_max":565,"o":"m 565 0 l 439 0 l 439 353 l 375 353 q 131 444 216 354 q 46 670 46 534 q 132 897 46 806 q 380 987 218 987 l 565 987 l 565 0 z "},"·":{"ha":363,"x_min":100,"x_max":256,"o":"m 100 494 q 120 548 100 526 q 178 570 140 570 q 236 548 216 570 q 256 494 256 526 q 236 442 256 463 q 178 420 216 420 q 120 442 140 420 q 100 494 100 463 z "},"¸":{"ha":345,"x_min":79,"x_max":289,"o":"m 103 0 l 193 0 l 185 -36 q 257 -68 224 -43 q 289 -153 289 -94 q 237 -256 289 -217 q 83 -295 184 -295 l 79 -222 q 158 -207 125 -222 q 191 -155 191 -191 q 165 -109 191 -122 q 82 -92 139 -96 l 103 0 z "},"¹":{"ha":509,"x_min":83,"x_max":336,"o":"m 336 987 l 336 452 l 230 452 l 230 860 l 83 821 l 83 909 l 323 987 l 336 987 z "},"º":{"ha":632,"x_min":83,"x_max":547,"o":"m 83 762 q 146 934 83 867 q 315 1002 209 1002 q 485 934 423 1002 q 547 762 547 867 l 547 707 q 485 535 547 602 q 317 469 423 469 q 146 535 209 469 q 83 707 83 602 l 83 762 m 194 707 q 224 604 194 646 q 317 563 254 563 q 407 604 377 563 q 437 707 437 646 l 437 762 q 407 864 437 823 q 315 906 377 906 q 224 864 254 906 q 194 762 194 823 l 194 707 z "},"»":{"ha":651,"x_min":70,"x_max":603,"o":"m 166 644 l 366 380 l 366 367 l 166 104 l 70 104 l 245 374 l 70 644 l 166 644 m 403 644 l 603 380 l 603 367 l 403 104 l 307 104 l 481 374 l 307 644 l 403 644 z "},"¼":{"ha":1017,"x_min":58,"x_max":967,"o":"m 310 985 l 310 450 l 204 450 l 204 858 l 58 819 l 58 907 l 298 985 l 310 985 m 783 852 l 301 81 l 231 125 l 713 897 l 783 852 m 529 184 l 785 535 l 894 535 l 894 203 l 967 203 l 967 115 l 894 115 l 894 0 l 787 0 l 787 115 l 534 115 l 529 184 m 636 203 l 787 203 l 787 398 l 777 380 l 636 203 z "},"½":{"ha":1078,"x_min":54,"x_max":1004,"o":"m 753 852 l 271 81 l 201 125 l 683 897 l 753 852 m 307 985 l 307 450 l 201 450 l 201 858 l 54 819 l 54 907 l 294 985 l 307 985 m 1004 87 l 1004 0 l 599 0 l 599 73 l 805 267 q 876 381 876 335 q 854 435 876 414 q 792 456 832 456 q 717 430 741 456 q 693 366 693 404 l 586 366 q 640 490 586 438 q 789 543 694 543 q 932 499 880 543 q 983 382 983 456 q 948 284 983 328 q 853 186 913 240 l 734 87 l 1004 87 z "},"¾":{"ha":1080,"x_min":76,"x_max":1029,"o":"m 869 852 l 387 81 l 317 125 l 799 897 l 869 852 m 591 184 l 848 535 l 956 535 l 956 203 l 1029 203 l 1029 115 l 956 115 l 956 0 l 850 0 l 850 115 l 596 115 l 591 184 m 699 203 l 850 203 l 850 398 l 839 380 l 699 203 m 214 686 l 214 764 l 274 764 q 370 838 370 765 q 348 888 370 867 q 279 908 326 908 q 215 891 241 908 q 190 845 190 874 l 83 845 q 140 955 83 914 q 277 995 196 995 q 421 956 366 995 q 476 843 476 918 q 385 727 476 762 q 486 602 486 699 q 426 486 486 527 q 278 445 367 445 q 139 483 201 445 q 76 604 76 521 l 182 604 q 210 552 182 573 q 281 532 237 532 q 378 607 378 532 q 276 686 378 684 l 214 686 z "},"¿":{"ha":658,"x_min":46,"x_max":603,"o":"m 405 676 q 405 661 405 676 q 386 625 405 646 q 331 604 367 604 q 275 625 294 604 q 256 676 256 646 q 275 727 256 706 q 331 747 294 747 q 386 727 367 747 q 405 676 405 706 m 273 461 l 399 461 q 373 317 399 364 q 286 203 348 271 q 203 108 223 136 q 172 0 172 66 q 324 -152 172 -152 q 430 -118 384 -152 q 477 -14 477 -84 l 603 -14 q 522 -195 602 -129 q 324 -262 441 -262 q 119 -194 192 -262 q 46 -4 46 -126 q 99 161 46 88 q 213 293 153 235 q 273 461 273 351 z "},"Æ":{"ha":1298,"x_min":-10,"x_max":1275,"o":"m 1275 103 l 1275 0 l 675 0 l 665 239 l 283 239 l 144 0 l -10 0 l 587 987 l 1233 987 l 1233 884 l 764 884 l 778 566 l 1178 566 l 1178 463 l 782 463 l 798 103 l 1275 103 m 351 358 l 661 358 l 640 855 l 351 358 z "},"×":{"ha":741,"x_min":60,"x_max":671,"o":"m 671 223 l 591 140 l 366 369 l 141 140 l 60 223 l 284 452 l 62 678 l 143 762 l 366 535 l 589 762 l 669 678 l 448 452 l 671 223 z "},"Ø":{"ha":956,"x_min":81,"x_max":888,"o":"m 479 -14 q 274 43 363 -14 l 208 -63 l 111 -63 l 210 94 q 81 469 81 224 l 81 525 q 191 874 81 747 q 477 1001 302 1001 q 723 917 623 1001 l 793 1028 l 888 1028 l 781 856 q 875 534 873 732 l 875 463 q 767 113 875 240 q 479 -14 659 -14 m 210 463 q 276 201 210 298 l 659 814 q 477 890 591 890 q 283 796 356 890 q 210 526 210 703 l 210 463 m 745 526 q 707 739 745 653 l 335 140 q 479 97 396 97 q 676 191 606 97 q 745 463 745 285 l 745 526 z "},"Þ":{"ha":821,"x_min":113,"x_max":758,"o":"m 239 213 l 239 0 l 113 0 l 113 987 l 239 987 l 239 789 l 430 789 q 673 706 589 788 q 758 500 758 625 q 672 295 758 376 q 427 213 587 213 l 239 213 m 239 686 l 239 315 l 427 315 q 584 373 536 315 q 632 499 632 430 q 584 628 632 570 q 427 686 536 686 l 239 686 z "},"ß":{"ha":826,"x_min":95,"x_max":766,"o":"m 220 0 l 95 0 l 95 757 q 170 979 96 904 q 361 1054 243 1054 q 544 998 472 1054 q 616 825 616 943 q 595 711 616 753 q 551 635 573 669 q 530 556 530 602 q 565 474 530 509 q 648 405 601 439 q 731 325 695 370 q 766 215 766 281 q 693 43 766 99 q 505 -14 619 -14 q 389 1 450 -14 q 302 35 328 16 l 331 140 q 399 107 354 125 q 492 89 445 89 q 606 124 572 89 q 641 209 641 159 q 605 292 641 257 q 522 363 570 328 q 439 443 475 398 q 404 557 404 488 q 427 650 404 612 l 475 727 q 498 814 498 764 q 461 917 498 882 q 368 951 424 951 q 220 760 222 951 l 220 0 z "},"æ":{"ha":1173,"x_min":54,"x_max":1126,"o":"m 1114 69 q 1029 19 1092 52 q 857 -14 966 -14 q 698 18 766 -14 q 587 109 630 51 q 480 24 552 63 q 294 -14 408 -14 q 116 46 178 -14 q 54 206 54 106 q 131 372 54 313 q 357 431 208 431 l 508 431 l 508 488 q 470 603 508 561 q 363 644 433 644 q 242 606 287 644 q 197 515 197 568 l 73 528 q 153 685 73 623 q 363 747 233 747 q 594 635 528 747 q 827 747 684 749 q 1049 659 972 747 q 1126 418 1126 570 l 1126 338 l 633 338 q 690 161 636 233 q 857 89 743 89 q 987 114 937 89 q 1070 161 1036 138 l 1114 69 m 827 644 q 696 584 745 644 q 636 434 647 524 l 1000 434 l 1000 455 q 961 588 1000 532 q 827 644 922 644 m 319 88 q 424 115 370 88 q 508 175 477 142 l 508 336 l 359 336 q 224 296 270 336 q 179 203 179 256 q 213 122 179 155 q 319 88 248 88 z "},"ð":{"ha":814,"x_min":85,"x_max":726,"o":"m 726 363 q 636 91 726 195 q 408 -14 546 -14 q 175 83 265 -14 q 85 317 85 179 q 172 569 85 474 q 389 663 258 663 q 496 642 446 663 q 581 587 545 621 q 454 814 549 720 l 306 713 l 256 781 l 387 869 q 173 964 296 932 l 212 1072 q 493 941 374 1036 l 621 1028 l 670 961 l 556 884 q 681 684 636 799 q 726 429 726 570 l 726 363 m 212 317 q 263 161 212 233 q 411 90 315 90 q 549 168 498 90 q 600 363 600 245 l 600 431 l 598 471 q 534 533 579 505 q 419 560 490 560 q 266 495 320 560 q 212 317 212 429 z "},"÷":{"ha":793,"x_min":48,"x_max":725,"o":"m 313 745 q 333 799 313 777 q 391 821 353 821 q 449 799 429 821 q 469 745 469 777 q 449 692 469 713 q 391 671 429 671 q 333 692 353 671 q 313 745 313 713 m 725 532 l 725 407 l 48 407 l 48 532 l 725 532 m 313 191 q 333 245 313 223 q 391 267 353 267 q 449 245 429 267 q 469 191 469 223 q 449 138 469 160 q 391 117 429 117 q 333 138 353 117 q 313 191 313 160 z "},"ø":{"ha":787,"x_min":62,"x_max":730,"o":"m 397 -14 q 267 11 327 -14 l 217 -92 l 134 -92 l 202 47 q 62 353 64 149 l 62 374 q 152 641 62 534 q 395 747 241 747 q 534 720 471 747 l 583 820 l 667 820 l 598 681 q 730 382 727 579 l 730 359 q 640 93 730 199 q 397 -14 551 -14 m 188 359 q 254 152 188 227 l 486 623 q 395 644 446 644 q 240 563 292 644 q 188 374 188 482 l 188 359 m 604 374 q 545 573 604 498 l 315 106 q 397 90 352 90 q 551 169 499 90 q 604 357 604 248 l 604 374 z "},"þ":{"ha":800,"x_min":101,"x_max":722,"o":"m 437 -14 q 227 71 304 -14 l 227 -282 l 101 -282 l 101 1042 l 227 1042 l 227 659 q 435 747 304 747 q 648 644 574 747 q 722 373 722 541 l 722 359 q 647 92 722 198 q 437 -14 573 -14 m 398 642 q 227 541 284 642 l 227 189 q 399 90 285 90 q 548 170 501 90 q 595 359 595 250 l 595 373 q 548 562 595 482 q 398 642 500 642 z "},"đ":{"ha":830,"x_min":64,"x_max":812,"o":"m 569 0 l 563 79 q 353 -14 488 -14 q 145 91 224 -14 q 64 353 66 195 l 64 373 q 144 644 64 541 q 355 747 224 747 q 558 661 484 747 l 558 836 l 380 836 l 380 939 l 558 939 l 558 1042 l 684 1042 l 684 939 l 812 939 l 812 836 l 684 836 l 684 0 l 569 0 m 191 359 q 237 171 191 250 q 385 93 283 93 q 558 199 501 93 l 558 537 q 386 642 502 642 q 237 562 283 642 q 191 373 191 482 l 191 359 z "},"Ħ":{"ha":973,"x_min":20,"x_max":961,"o":"m 739 0 l 739 456 l 241 456 l 241 0 l 111 0 l 111 694 l 20 694 l 20 791 l 111 791 l 111 987 l 241 987 l 241 791 l 739 791 l 739 987 l 870 987 l 870 791 l 961 791 l 961 694 l 870 694 l 870 0 l 739 0 m 241 563 l 739 563 l 739 694 l 241 694 l 241 563 z "},"ı":{"ha":344,"x_min":106,"x_max":231,"o":"m 231 734 l 231 0 l 106 0 l 106 734 l 231 734 z "},"ĸ":{"ha":773,"x_min":105,"x_max":738,"o":"m 579 0 l 304 313 l 231 313 l 231 0 l 105 0 l 105 734 l 231 734 l 231 423 l 293 423 l 562 734 l 713 734 l 407 378 l 738 0 l 579 0 z "},"Ł":{"ha":748,"x_min":24,"x_max":713,"o":"m 713 106 l 713 0 l 115 0 l 115 447 l 24 418 l 24 503 l 115 532 l 115 987 l 245 987 l 245 573 l 423 629 l 423 545 l 245 488 l 245 106 l 713 106 z "},"ł":{"ha":376,"x_min":24,"x_max":355,"o":"m 355 548 l 247 507 l 247 0 l 121 0 l 121 458 l 24 421 l 24 504 l 121 541 l 121 1042 l 247 1042 l 247 589 l 355 631 l 355 548 z "},"Ŋ":{"ha":962,"x_min":110,"x_max":858,"o":"m 110 0 l 110 987 l 241 987 l 727 222 l 727 987 l 858 987 l 858 -57 q 799 -235 858 -173 q 636 -296 740 -296 q 558 -285 593 -296 l 568 -180 q 634 -189 593 -189 q 727 -62 725 -189 l 727 0 l 241 766 l 241 0 l 110 0 z "},"ŋ":{"ha":787,"x_min":99,"x_max":684,"o":"m 684 -60 q 626 -236 684 -175 q 465 -296 568 -296 q 388 -285 423 -296 l 397 -178 q 465 -186 419 -186 q 559 -62 558 -186 l 559 460 q 517 602 559 562 q 399 642 475 642 q 224 551 279 642 l 224 0 l 99 0 l 99 734 l 212 734 l 220 630 q 311 716 256 685 q 436 747 366 747 q 617 681 550 747 q 684 466 684 615 l 684 -60 z "},"Œ":{"ha":1324,"x_min":71,"x_max":1221,"o":"m 1221 106 l 1221 0 l 647 0 q 449 -14 526 -14 q 176 98 281 -14 q 71 391 71 211 l 71 597 q 175 889 71 777 q 448 1002 279 1002 q 647 987 526 1002 l 1215 987 l 1215 880 l 725 880 l 725 563 l 1152 563 l 1152 456 l 725 456 l 725 106 l 1221 106 m 197 391 q 265 166 197 243 q 449 89 334 89 q 594 99 520 89 l 594 888 q 448 899 519 899 q 264 822 332 899 q 197 598 197 746 l 197 391 z "},"œ":{"ha":1261,"x_min":66,"x_max":1215,"o":"m 1194 77 q 1098 15 1161 44 q 935 -14 1035 -14 q 774 24 844 -14 q 662 130 705 63 q 553 25 621 64 q 394 -14 485 -14 q 155 91 241 -14 q 66 352 68 195 l 66 374 q 153 641 66 534 q 393 747 239 747 q 553 708 485 747 q 663 601 622 669 q 774 709 707 669 q 916 747 841 748 q 1141 656 1067 747 q 1215 420 1215 564 l 1215 338 l 729 338 q 784 161 732 233 q 935 89 836 89 q 1145 162 1063 89 l 1194 77 m 916 644 q 796 586 845 644 q 733 440 747 528 l 1090 440 l 1090 458 q 1048 588 1090 532 q 916 644 1006 644 m 192 359 q 241 169 192 250 q 394 89 290 89 q 547 169 498 89 q 596 359 596 250 l 596 374 q 547 563 596 482 q 393 644 498 644 q 241 563 290 644 q 192 374 192 482 l 192 359 z "},"ſ":{"ha":345,"x_min":109,"x_max":436,"o":"m 235 0 l 109 0 l 109 811 q 171 993 109 930 q 338 1056 232 1056 q 436 1042 378 1056 l 420 945 q 358 953 388 953 q 235 811 235 953 l 235 0 z "},"ƀ":{"ha":836,"x_min":22,"x_max":773,"o":"m 773 359 q 699 92 773 198 q 488 -14 624 -14 q 273 85 349 -14 l 267 0 l 151 0 l 151 1042 l 277 1042 l 277 654 q 486 747 352 747 q 699 644 625 747 q 773 373 773 541 l 773 359 m 455 642 q 344 609 387 642 q 277 528 301 576 l 277 208 q 345 126 302 159 q 456 93 389 93 q 603 171 558 93 q 647 359 647 250 l 647 373 q 605 562 647 482 q 455 642 562 642 m 454 935 l 454 831 l 22 831 l 22 935 l 454 935 z "},"Ɓ":{"ha":1004,"x_min":20,"x_max":925,"o":"m 20 795 q 253 987 20 987 l 253 987 l 576 987 q 813 925 728 987 q 899 724 899 862 q 860 603 899 656 q 753 520 821 549 q 881 433 836 497 q 925 285 925 368 q 836 73 925 146 q 599 0 747 0 l 253 0 l 253 880 q 127 763 127 879 q 133 718 127 736 l 31 717 q 20 795 20 753 m 384 880 l 384 567 l 581 567 q 716 609 665 567 q 768 726 768 651 q 585 880 768 877 l 384 880 m 795 283 q 750 414 795 366 q 605 462 705 462 l 384 462 l 384 106 l 599 106 q 743 154 692 106 q 795 283 795 202 z "},"Ƃ":{"ha":870,"x_min":111,"x_max":814,"o":"m 717 987 l 717 880 l 241 880 l 241 0 l 111 0 l 111 987 l 717 987 m 814 295 q 814 230 814 295 q 728 82 814 165 q 479 0 642 0 l 111 0 l 111 987 l 241 987 l 241 585 l 482 585 q 729 505 643 585 q 814 295 814 425 m 241 106 l 479 106 q 636 164 589 106 q 684 296 684 222 q 636 424 684 370 q 479 478 589 478 l 241 478 l 241 106 z "},"ƃ":{"ha":780,"x_min":95,"x_max":717,"o":"m 95 0 l 95 1042 l 570 1042 l 570 939 l 221 939 l 221 654 q 430 747 296 747 q 643 644 568 747 q 717 373 717 541 l 717 359 q 642 92 717 198 q 431 -14 568 -14 q 217 85 292 -14 l 210 0 l 95 0 m 399 642 q 288 609 330 642 q 221 528 245 576 l 221 208 q 289 126 245 159 q 400 93 332 93 q 546 171 502 93 q 591 359 591 250 l 591 373 q 548 562 591 482 q 399 642 506 642 z "},"Ƅ":{"ha":932,"x_min":66,"x_max":878,"o":"m 878 295 q 878 230 878 295 q 791 82 878 165 q 543 0 705 0 l 174 0 l 174 656 l 66 795 l 66 847 l 174 987 l 304 987 l 304 585 l 545 585 q 792 505 706 585 q 878 295 878 425 m 304 106 l 543 106 q 699 164 651 106 q 747 296 747 222 q 699 424 747 370 q 543 478 651 478 l 304 478 l 304 106 z "},"ƅ":{"ha":856,"x_min":66,"x_max":794,"o":"m 794 359 q 720 92 794 198 q 509 -14 646 -14 q 294 85 370 -14 l 288 0 l 173 0 l 173 710 l 66 850 l 66 901 l 173 1042 l 298 1042 l 298 653 q 508 747 373 747 q 720 644 646 747 q 794 373 794 541 l 794 359 m 477 642 q 365 608 408 642 q 298 526 322 575 l 298 208 q 366 126 322 160 q 478 93 410 93 q 624 171 579 93 q 669 359 669 250 l 669 373 q 626 562 669 482 q 477 642 583 642 z "},"Ɔ":{"ha":904,"x_min":63,"x_max":823,"o":"m 63 317 l 194 317 q 260 154 209 214 q 426 94 311 94 q 625 190 557 94 q 692 444 692 286 l 692 543 q 631 792 692 689 q 437 895 569 895 q 261 836 313 895 q 194 673 210 778 l 63 673 q 169 907 79 814 q 437 1001 260 1001 q 718 876 612 1001 q 823 543 823 751 l 823 445 q 716 112 823 237 q 426 -14 610 -14 q 168 79 258 -14 q 63 317 79 171 z "},"Ƈ":{"ha":982,"x_min":81,"x_max":1008,"o":"m 961 912 q 873 885 905 912 q 841 787 841 859 l 841 671 l 711 671 q 644 834 696 774 q 478 894 593 894 q 279 798 347 894 q 212 544 212 701 l 212 444 q 273 196 212 298 q 467 93 335 93 q 643 151 591 93 q 711 314 694 210 l 841 314 q 735 80 826 174 q 467 -14 644 -14 q 189 110 294 -14 q 81 437 83 233 l 81 543 q 188 876 81 750 q 478 1001 295 1001 q 749 895 653 1001 q 929 1023 788 1023 q 1008 1012 971 1023 l 1007 907 q 961 912 988 912 z "},"ƈ":{"ha":842,"x_min":63,"x_max":827,"o":"m 786 690 q 682 584 684 690 l 682 481 l 562 481 q 511 597 557 549 q 389 644 465 644 q 268 605 312 644 q 207 505 224 566 q 189 381 189 445 l 189 353 q 206 228 189 288 q 268 129 224 168 q 389 90 311 90 q 507 130 456 90 q 562 232 557 170 l 682 232 q 591 60 677 134 q 389 -14 506 -14 q 143 96 224 -14 q 63 353 63 205 l 63 381 q 143 638 63 529 q 389 747 224 747 q 604 665 522 747 q 759 781 635 781 q 827 771 795 781 l 826 685 q 786 690 810 690 z "},"Ɖ":{"ha":960,"x_min":27,"x_max":878,"o":"m 163 0 l 163 987 l 442 987 q 757 862 637 987 q 878 523 878 737 l 878 464 q 756 125 878 250 q 430 0 635 0 l 163 0 m 294 880 l 294 106 l 430 106 q 668 204 588 106 q 748 464 748 302 l 748 524 q 668 787 748 694 q 442 880 588 880 l 294 880 m 459 545 l 459 441 l 27 441 l 27 545 l 459 545 z "},"Ɗ":{"ha":1050,"x_min":20,"x_max":968,"o":"m 20 795 q 253 987 20 987 l 253 987 l 532 987 q 847 862 727 987 q 968 523 968 737 l 968 464 q 847 125 968 250 q 520 0 726 0 l 253 0 l 253 880 q 127 763 127 879 q 133 718 127 736 l 31 717 q 20 795 20 753 m 384 880 l 384 106 l 520 106 q 758 204 678 106 q 838 464 838 302 l 838 524 q 758 787 838 694 q 532 880 678 880 l 384 880 z "},"Ƌ":{"ha":870,"x_min":56,"x_max":760,"o":"m 760 0 l 388 0 q 141 83 227 1 q 56 295 56 165 q 142 506 56 426 q 391 585 229 585 l 629 585 l 629 880 l 153 880 l 153 987 l 760 987 l 760 0 m 629 106 l 629 478 l 391 478 q 234 424 282 478 q 186 296 186 370 q 234 164 186 222 q 391 106 282 106 l 629 106 z "},"ƌ":{"ha":783,"x_min":64,"x_max":684,"o":"m 210 939 l 210 1042 l 684 1042 l 684 0 l 569 0 l 563 79 q 353 -14 488 -14 q 145 91 224 -14 q 64 353 66 195 l 64 373 q 144 644 64 541 q 355 747 224 747 q 558 661 484 747 l 558 939 l 210 939 m 191 359 q 237 171 191 250 q 385 93 283 93 q 558 199 501 93 l 558 537 q 386 642 502 642 q 237 562 283 642 q 191 373 191 482 l 191 359 z "},"ƍ":{"ha":787,"x_min":65,"x_max":721,"o":"m 625 -255 l 144 -255 l 144 -155 l 455 -155 q 307 -23 418 -116 q 133 163 201 70 q 65 372 65 257 l 65 387 q 152 644 65 541 q 393 747 238 747 q 631 647 545 747 q 721 396 718 547 l 721 372 q 638 156 721 247 q 408 48 556 64 l 378 48 q 508 -66 441 -9 q 625 -177 576 -123 l 625 -255 m 595 387 q 546 568 595 491 q 393 644 498 644 q 240 568 289 644 q 191 387 191 491 l 191 372 q 229 228 191 289 q 311 136 267 167 q 378 128 343 128 q 542 202 490 128 q 595 372 595 275 l 595 387 z "},"Ǝ":{"ha":789,"x_min":47,"x_max":675,"o":"m 47 881 l 47 987 l 675 987 l 675 0 l 54 0 l 54 107 l 544 107 l 544 427 l 117 427 l 117 534 l 544 534 l 544 881 l 47 881 z "},"Ə":{"ha":960,"x_min":64,"x_max":880,"o":"m 880 461 q 826 214 880 321 q 679 47 771 107 q 473 -14 586 -14 q 168 108 271 -14 q 64 436 64 229 l 64 520 l 750 520 l 750 525 q 676 785 750 677 q 435 892 602 892 q 286 873 346 892 q 187 836 227 854 l 155 932 q 249 975 180 949 q 435 1001 317 1001 q 765 868 650 1001 q 880 525 880 734 l 880 461 m 473 94 q 667 188 596 94 q 749 419 739 282 l 195 419 l 195 396 q 257 182 195 270 q 473 94 319 94 z "},"Ɛ":{"ha":831,"x_min":58,"x_max":770,"o":"m 526 557 l 526 450 l 402 450 q 189 273 189 445 q 252 137 189 182 q 423 92 315 92 q 582 145 523 92 q 640 274 640 198 l 770 274 q 719 109 770 173 q 588 16 667 45 q 423 -14 508 -14 q 163 53 268 -14 q 58 275 58 120 q 230 505 58 446 q 115 589 157 534 q 73 721 73 644 q 169 930 73 859 q 423 1002 265 1002 q 657 928 559 1002 q 756 729 756 855 l 626 729 q 568 848 626 802 q 423 895 510 895 q 256 845 308 895 q 203 724 203 795 q 252 604 203 650 q 414 557 300 557 l 526 557 z "},"Ƒ":{"ha":810,"x_min":-9,"x_max":768,"o":"m 768 880 l 287 880 l 287 543 l 701 543 l 701 436 l 287 436 l 287 -60 q 228 -236 287 -175 q 66 -296 169 -296 q -9 -285 24 -296 l 0 -176 q 66 -186 31 -186 q 157 -62 156 -186 l 157 987 l 768 987 l 768 880 z "},"ƒ":{"ha":473,"x_min":-20,"x_max":475,"o":"m 412 734 l 412 637 l 275 637 l 275 -60 q 217 -236 275 -175 q 56 -296 159 -296 q -20 -285 14 -296 l -10 -184 q 56 -193 12 -193 q 149 -62 149 -193 l 149 637 l 33 637 l 33 734 l 149 734 l 149 814 q 211 994 150 931 q 378 1056 272 1056 q 475 1042 418 1056 l 460 943 q 393 949 432 949 q 275 817 277 949 l 275 734 l 412 734 z "},"Ɠ":{"ha":984,"x_min":83,"x_max":1010,"o":"m 964 917 q 845 809 853 917 l 844 699 l 713 699 q 647 836 700 779 q 480 894 593 894 q 279 798 344 894 q 214 537 215 702 l 214 456 q 292 189 214 285 q 496 93 369 93 q 648 118 601 93 q 714 165 694 142 l 714 386 l 486 386 l 486 492 l 844 492 l 844 130 q 739 38 817 90 q 495 -14 661 -14 q 199 110 315 -14 q 83 456 83 234 l 83 532 q 186 877 83 753 q 480 1001 289 1001 q 755 898 660 1001 q 932 1023 794 1023 q 1010 1012 974 1023 l 1010 911 q 964 917 989 917 z "},"Ɣ":{"ha":872,"x_min":14,"x_max":858,"o":"m 610 -132 q 564 -249 610 -208 q 436 -291 518 -291 q 308 -249 354 -291 q 262 -132 262 -208 q 292 -19 262 -84 q 372 170 321 46 l 14 987 l 159 987 l 435 319 l 713 987 l 858 987 l 498 165 q 577 -19 545 47 q 610 -132 610 -85 m 388 -132 q 436 -184 388 -184 q 484 -132 484 -184 q 436 24 484 -89 q 388 -132 388 -90 z "},"ƕ":{"ha":1163,"x_min":96,"x_max":1069,"o":"m 437 747 q 623 670 573 747 q 673 478 673 593 l 673 293 q 714 135 674 176 q 804 93 755 94 l 808 93 q 901 135 859 93 q 943 300 943 177 l 943 734 l 1069 734 l 1069 302 q 1001 61 1069 135 q 808 -14 932 -14 q 616 60 685 -14 q 547 298 547 133 l 547 478 q 516 596 547 551 q 400 642 486 642 q 294 609 340 642 q 221 524 248 576 l 221 0 l 96 0 l 96 1042 l 221 1042 l 221 646 q 437 747 304 747 z "},"Ɨ":{"ha":459,"x_min":14,"x_max":446,"o":"m 292 987 l 292 0 l 161 0 l 161 987 l 292 987 m 446 545 l 446 441 l 14 441 l 14 545 l 446 545 z "},"Ƙ":{"ha":871,"x_min":115,"x_max":877,"o":"m 715 0 l 370 456 l 245 315 l 245 0 l 115 0 l 115 987 l 245 987 l 245 486 l 568 887 q 664 982 630 962 q 741 1001 697 1001 q 877 947 814 1001 l 831 858 q 754 882 797 882 q 704 863 724 882 q 657 810 684 844 l 452 553 l 871 0 l 715 0 z "},"ƙ":{"ha":704,"x_min":96,"x_max":703,"o":"m 326 964 q 222 859 224 964 l 222 412 l 289 492 l 517 734 l 670 734 l 384 428 l 703 0 l 555 0 l 301 340 l 222 258 l 222 0 l 96 0 l 96 851 q 155 1003 96 950 q 299 1056 215 1056 q 368 1046 335 1056 l 366 959 q 326 964 348 964 z "},"ƚ":{"ha":459,"x_min":14,"x_max":446,"o":"m 292 1042 l 292 0 l 165 0 l 165 1042 l 292 1042 m 446 591 l 446 488 l 14 488 l 14 591 l 446 591 z "},"ƛ":{"ha":770,"x_min":26,"x_max":734,"o":"m 734 -3 q 682 -12 712 -12 q 585 12 621 -12 q 516 123 549 36 l 359 530 l 165 0 l 26 0 l 293 699 l 263 770 l 138 723 l 138 833 l 224 865 q 145 926 198 926 l 113 925 l 113 1021 q 178 1029 140 1029 q 291 998 254 1029 q 347 913 328 966 l 469 960 l 469 850 l 385 817 l 636 162 q 705 98 661 98 l 730 100 l 734 -3 z "},"Ɯ":{"ha":1265,"x_min":117,"x_max":1147,"o":"m 1029 0 l 1025 83 q 810 -14 952 -14 q 681 17 736 -14 q 597 123 626 48 q 358 -14 528 -14 q 184 55 250 -14 q 117 298 118 123 l 117 987 l 243 987 l 243 296 q 285 135 243 176 q 378 93 327 93 q 510 136 465 93 q 572 248 556 180 l 570 286 l 570 987 l 695 987 l 695 296 q 738 135 696 176 q 831 93 779 93 q 960 134 915 93 q 1022 241 1006 175 l 1022 987 l 1147 987 l 1147 0 l 1029 0 z "},"Ɲ":{"ha":1032,"x_min":-9,"x_max":916,"o":"m 784 0 l 287 762 l 287 -60 q 228 -236 287 -175 q 66 -296 169 -296 q -9 -285 24 -296 l 0 -176 q 66 -186 31 -186 q 157 -62 156 -186 l 157 987 l 287 987 l 786 224 l 786 987 l 916 987 l 916 0 l 784 0 z "},"Ơ":{"ha":954,"x_min":69,"x_max":975,"o":"m 863 463 q 755 113 863 240 q 467 -14 648 -14 q 180 113 292 -14 q 69 463 69 240 l 69 525 q 180 874 69 747 q 466 1001 290 1001 q 734 897 629 1001 q 833 950 804 902 q 861 1080 861 998 l 975 1080 q 797 813 975 854 q 863 528 863 696 l 863 463 m 734 526 q 663 796 734 703 q 466 890 593 890 q 272 796 345 890 q 199 526 199 703 l 199 463 q 272 191 199 285 q 467 97 346 97 q 664 191 595 97 q 734 463 734 285 l 734 526 z "},"ơ":{"ha":794,"x_min":62,"x_max":821,"o":"m 730 359 q 640 93 730 199 q 397 -14 551 -14 q 152 93 242 -14 q 62 359 62 199 l 62 374 q 152 641 62 534 q 395 747 241 747 q 628 654 537 747 q 703 705 687 661 q 720 814 720 748 l 821 814 q 789 662 821 722 q 680 583 758 602 q 730 374 730 492 l 730 359 m 188 359 q 240 170 188 250 q 397 90 292 90 q 551 169 499 90 q 604 357 604 248 l 604 374 q 552 563 604 482 q 395 644 500 644 q 240 563 292 644 q 188 374 188 482 l 188 359 z "},"Ƣ":{"ha":1179,"x_min":81,"x_max":1062,"o":"m 492 -14 q 198 107 314 -14 q 81 456 81 228 l 81 532 q 197 877 81 753 q 492 1001 313 1001 q 678 974 608 1001 q 788 913 749 946 l 964 987 l 1062 987 l 1062 -282 l 936 -282 l 936 861 l 839 823 l 839 131 q 782 71 821 104 q 673 12 743 37 q 492 -14 604 -14 m 492 895 q 288 799 365 895 q 210 532 210 704 l 210 456 q 283 193 210 293 q 498 93 357 93 q 648 118 601 93 q 715 166 694 144 l 715 821 q 647 869 694 844 q 492 895 600 895 z "},"ƣ":{"ha":928,"x_min":63,"x_max":829,"o":"m 703 568 l 621 519 l 621 90 q 520 15 581 44 q 389 -14 460 -14 q 143 96 224 -14 q 63 353 63 205 l 63 381 q 143 638 63 529 q 389 747 224 747 q 603 666 520 747 l 728 734 l 829 734 l 829 -282 l 703 -282 l 703 568 m 389 89 q 496 121 449 89 l 496 611 q 389 644 451 644 q 268 605 312 644 q 207 505 224 566 q 189 381 189 445 l 189 353 q 241 159 189 229 q 389 89 293 89 z "},"Ƥ":{"ha":1015,"x_min":20,"x_max":964,"o":"m 20 795 q 253 987 20 987 l 253 987 l 617 987 q 874 903 785 987 q 964 686 964 818 q 874 465 964 543 q 617 387 785 387 l 384 387 l 384 0 l 253 0 l 253 880 q 127 763 127 879 q 133 718 127 736 l 31 717 q 20 795 20 753 m 384 880 l 384 494 l 617 494 q 783 547 732 494 q 833 685 833 601 q 783 821 833 761 q 617 880 732 880 l 384 880 z "},"ƥ":{"ha":780,"x_min":95,"x_max":715,"o":"m 431 -14 q 221 71 298 -14 l 221 -282 l 95 -282 l 95 734 l 95 734 q 156 882 97 830 q 298 933 216 933 q 367 922 332 933 l 366 836 q 326 842 347 842 q 221 736 224 842 l 221 659 q 429 747 298 747 q 642 644 568 747 q 715 373 715 541 l 715 359 q 641 92 715 198 q 431 -14 567 -14 m 392 642 q 221 541 278 642 l 221 189 q 393 90 279 90 q 542 170 495 90 q 589 359 589 250 l 589 373 q 542 562 589 482 q 392 642 495 642 z "},"Ʀ":{"ha":952,"x_min":115,"x_max":965,"o":"m 245 0 l 115 0 l 115 1057 l 245 1057 l 245 987 l 450 987 q 700 910 612 985 q 787 691 787 834 q 738 530 787 599 q 600 427 688 461 l 965 -235 l 965 -243 l 825 -243 l 477 400 l 245 400 l 245 0 m 245 880 l 245 507 l 446 507 q 604 561 551 507 q 657 691 657 614 q 606 828 657 777 q 441 880 555 880 l 245 880 z "},"Ƨ":{"ha":825,"x_min":52,"x_max":770,"o":"m 183 250 q 238 135 183 178 q 396 93 294 93 q 565 139 492 93 q 639 286 639 185 l 770 286 q 714 121 770 188 q 573 20 659 54 q 396 -14 487 -14 q 146 58 240 -14 q 52 251 52 130 q 131 437 52 366 q 381 556 210 508 q 554 631 501 590 q 607 734 607 672 q 557 848 607 802 q 403 894 507 894 q 238 840 292 894 q 185 703 185 785 l 54 703 q 145 909 54 818 q 403 1001 235 1001 q 647 924 555 1001 q 739 732 739 848 q 653 551 739 618 q 422 442 568 485 q 230 358 276 399 q 183 250 183 318 z "},"ƨ":{"ha":717,"x_min":68,"x_max":652,"o":"m 194 195 q 235 119 194 149 q 352 90 275 90 q 466 119 410 90 q 526 227 522 149 l 652 227 q 575 61 652 136 q 352 -14 498 -14 q 146 47 224 -14 q 68 204 68 107 q 135 344 68 294 q 336 424 201 393 q 470 472 438 447 q 501 536 501 496 q 468 610 501 576 q 355 644 434 644 q 241 604 281 644 q 201 518 201 564 l 76 518 q 150 680 76 613 q 355 747 224 747 q 553 684 479 747 q 627 533 627 620 q 555 394 627 441 q 359 321 482 346 q 223 267 253 299 q 194 195 194 235 z "},"Ʃ":{"ha":793,"x_min":47,"x_max":741,"o":"m 47 890 l 47 987 l 708 987 l 708 880 l 212 880 l 512 503 l 512 487 l 211 107 l 741 107 l 741 0 l 47 0 l 47 97 l 374 495 l 47 890 z "},"ƪ":{"ha":648,"x_min":15,"x_max":620,"o":"m 620 -266 q 542 -277 584 -277 q 350 -50 353 -277 l 350 623 q 245 598 300 598 q 82 665 150 598 q 15 828 15 732 q 83 992 15 925 q 245 1059 151 1059 q 408 992 340 1059 q 475 828 475 924 l 475 -41 q 501 -142 475 -113 q 574 -171 526 -171 q 619 -165 601 -171 l 620 -266 m 245 714 q 324 744 292 714 q 357 829 357 773 q 324 916 357 886 q 245 945 292 945 q 166 916 199 945 q 133 829 133 886 q 166 744 133 773 q 245 714 199 714 z "},"ƫ":{"ha":454,"x_min":6,"x_max":406,"o":"m 406 -43 q 241 -248 406 -248 q 174 -238 205 -248 l 174 -151 q 214 -157 193 -157 q 318 -64 311 -157 l 319 -14 q 192 27 240 -14 q 140 171 143 68 l 140 637 l 6 637 l 6 734 l 140 734 l 140 912 l 266 912 l 266 734 l 403 734 l 403 637 l 266 637 l 266 182 q 290 110 266 125 q 347 94 315 94 q 406 102 370 94 l 406 1 l 406 1 l 406 -43 z "},"Ƭ":{"ha":869,"x_min":20,"x_max":838,"o":"m 20 795 q 246 987 20 983 l 838 987 l 838 880 l 520 880 l 520 0 l 391 0 l 391 880 l 256 880 q 157 850 186 880 q 127 763 127 821 q 133 718 127 736 l 31 717 q 20 795 20 753 z "},"ƭ":{"ha":461,"x_min":16,"x_max":421,"o":"m 380 968 q 275 862 278 968 l 275 734 l 412 734 l 412 637 l 275 637 l 275 201 q 300 116 275 137 q 356 94 325 94 q 416 102 380 94 l 416 0 q 319 -14 373 -14 q 200 35 250 -14 q 150 201 150 84 l 150 637 l 16 637 l 16 734 l 150 734 l 150 854 q 209 1006 150 954 q 353 1059 269 1059 q 421 1048 391 1059 l 420 962 q 380 968 402 968 z "},"Ʈ":{"ha":829,"x_min":34,"x_max":797,"o":"m 34 880 l 34 987 l 797 987 l 797 880 l 479 880 l 479 -60 q 569 -189 479 -189 q 636 -180 601 -189 l 645 -285 q 569 -296 611 -296 q 409 -236 467 -296 q 351 -60 351 -175 l 351 880 l 34 880 z "},"Ư":{"ha":966,"x_min":95,"x_max":1061,"o":"m 452 -14 q 198 70 300 -14 q 95 319 95 153 l 95 987 l 224 987 l 224 319 q 287 148 224 203 q 452 93 350 93 q 617 148 555 93 q 680 319 680 203 l 680 987 l 810 987 l 810 844 q 924 902 895 851 q 954 1043 954 952 l 1061 1043 q 1004 833 1061 907 q 810 751 946 759 l 810 319 q 703 70 810 153 q 452 -14 595 -14 z "},"ư":{"ha":859,"x_min":93,"x_max":879,"o":"m 551 0 l 548 73 q 334 -14 476 -14 q 159 50 226 -14 q 93 260 93 114 l 93 734 l 218 734 l 218 259 q 260 126 218 160 q 353 93 302 93 q 545 199 495 93 l 545 734 l 671 734 l 671 646 q 767 684 752 648 q 783 793 783 719 l 879 793 q 836 628 879 684 q 671 568 793 572 l 671 0 l 551 0 z "},"Ʊ":{"ha":923,"x_min":83,"x_max":839,"o":"m 707 494 q 650 764 707 669 q 503 876 594 859 l 503 987 l 836 987 l 836 880 l 686 880 q 798 709 756 812 q 839 494 839 606 l 839 417 q 735 105 839 225 q 463 -14 631 -14 q 189 105 294 -14 q 83 417 83 225 l 83 494 q 125 709 83 606 q 237 880 166 812 l 89 880 l 89 987 l 416 987 l 416 876 q 272 764 327 858 q 216 503 217 671 l 216 416 q 282 175 216 258 q 463 92 349 92 q 641 175 575 92 q 707 416 707 258 l 707 494 z "},"Ʋ":{"ha":907,"x_min":96,"x_max":811,"o":"m 452 -14 q 199 70 302 -14 q 96 319 96 153 l 96 987 l 225 987 l 225 319 q 288 148 225 203 q 452 93 351 93 q 617 148 555 93 q 680 319 680 203 l 680 765 q 652 863 680 833 q 566 892 624 892 q 519 886 539 892 l 519 989 q 597 1001 555 1001 q 753 940 694 1001 q 811 765 811 880 l 811 319 q 704 70 811 153 q 452 -14 596 -14 z "},"Ƴ":{"ha":901,"x_min":10,"x_max":937,"o":"m 481 366 l 481 0 l 351 0 l 351 368 l 10 987 l 160 987 l 416 487 l 582 808 q 691 968 649 935 q 793 1001 732 1001 q 937 947 873 1001 l 890 858 q 814 882 857 882 q 742 840 767 882 l 481 366 z "},"ƴ":{"ha":825,"x_min":15,"x_max":850,"o":"m 127 -296 q 58 -286 96 -296 l 57 -184 l 91 -186 q 187 -162 151 -186 q 248 -71 222 -138 l 277 8 l 15 734 l 152 734 l 315 246 l 334 176 l 499 699 q 566 854 534 811 q 631 914 597 897 q 717 931 666 931 q 850 884 791 931 l 820 805 q 734 833 771 833 q 664 793 689 833 q 610 669 638 753 l 349 -103 q 127 -296 284 -296 z "},"Ƶ":{"ha":832,"x_min":59,"x_max":777,"o":"m 68 880 l 68 987 l 755 987 l 755 892 l 519 551 l 728 551 l 728 448 l 449 448 l 213 106 l 777 106 l 777 0 l 59 0 l 59 98 l 301 448 l 84 448 l 84 551 l 372 551 l 600 880 l 68 880 z "},"ƶ":{"ha":701,"x_min":67,"x_max":649,"o":"m 73 630 l 73 734 l 629 734 l 629 645 l 461 422 l 592 422 l 592 319 l 384 319 l 221 103 l 649 103 l 649 0 l 67 0 l 67 92 l 237 319 l 102 319 l 102 422 l 315 422 l 471 630 l 73 630 z "},"Ʒ":{"ha":895,"x_min":55,"x_max":814,"o":"m 77 880 l 77 987 l 762 987 l 762 895 l 413 502 q 707 409 600 502 q 814 109 814 315 q 708 -191 814 -98 q 428 -283 601 -283 q 161 -190 250 -283 q 55 43 71 -96 l 186 43 q 252 -120 203 -62 q 428 -177 301 -177 q 623 -106 562 -177 q 684 109 684 -36 q 618 332 684 265 q 420 399 553 398 l 264 399 l 264 496 l 607 880 l 77 880 z "},"Ƹ":{"ha":895,"x_min":80,"x_max":840,"o":"m 630 496 l 630 399 l 476 399 q 278 333 345 399 q 211 109 211 267 q 272 -106 211 -36 q 467 -177 334 -177 q 643 -120 594 -177 q 709 43 692 -62 l 840 43 q 734 -190 823 -96 q 467 -283 644 -283 q 187 -191 294 -283 q 80 109 80 -98 q 188 409 80 315 q 481 502 295 502 l 133 895 l 133 987 l 817 987 l 817 880 l 288 880 l 630 496 z "},"ƹ":{"ha":784,"x_min":75,"x_max":724,"o":"m 267 630 l 519 323 l 519 221 l 418 221 q 256 172 312 220 q 200 18 200 125 q 254 -113 200 -62 q 406 -165 308 -165 q 546 -111 493 -165 q 599 20 599 -56 l 724 20 q 677 -145 724 -81 q 557 -238 630 -208 q 406 -268 484 -268 q 168 -192 262 -268 q 75 21 75 -117 q 154 232 75 155 q 376 319 233 308 l 106 654 l 106 734 l 696 734 l 696 630 l 267 630 z "},"ƺ":{"ha":741,"x_min":52,"x_max":667,"o":"m 485 254 q 345 343 485 341 l 223 343 l 223 423 l 487 631 l 85 631 l 85 734 l 666 734 l 667 655 l 426 437 q 561 370 512 420 q 610 250 610 321 q 537 107 610 153 q 344 35 464 62 q 210 -17 241 13 q 178 -88 178 -46 q 218 -163 178 -134 q 335 -193 259 -193 q 450 -164 394 -193 q 510 -56 505 -134 l 635 -56 q 558 -222 635 -147 q 335 -296 481 -296 q 130 -236 208 -296 q 52 -79 52 -175 q 121 60 52 9 q 328 140 191 111 q 453 183 420 159 q 485 254 485 208 z "},"ƻ":{"ha":785,"x_min":64,"x_max":729,"o":"m 729 103 l 729 0 l 83 0 l 83 90 l 397 439 l 202 439 l 202 542 l 484 542 q 542 639 526 598 q 558 722 558 680 q 513 846 558 795 q 386 898 468 898 q 238 842 287 898 q 189 697 189 785 l 64 697 q 146 911 64 822 q 386 1001 228 1001 q 605 928 526 1001 q 684 737 684 856 q 617 542 684 648 l 728 542 l 728 439 l 542 439 l 514 407 l 234 103 l 729 103 z "},"Ƽ":{"ha":781,"x_min":43,"x_max":726,"o":"m 43 871 l 43 987 l 696 987 l 696 871 l 296 871 l 267 603 q 431 646 341 646 q 647 556 568 646 q 726 315 726 466 q 648 80 726 173 q 413 -14 571 -14 q 205 54 293 -14 q 104 260 118 121 l 224 260 q 413 90 248 90 q 551 150 502 90 q 600 313 600 210 q 548 470 600 406 q 402 533 497 533 q 307 516 339 533 q 241 470 274 499 l 140 496 l 178 871 l 43 871 z "},"ƽ":{"ha":696,"x_min":28,"x_max":648,"o":"m 28 624 l 28 734 l 610 734 l 610 624 l 260 624 l 238 455 q 303 485 262 471 q 388 499 344 498 q 578 434 509 501 q 648 245 648 367 q 581 63 648 137 q 359 -11 513 -11 q 233 13 297 -11 q 125 84 168 36 q 81 208 81 133 l 202 218 q 246 126 202 161 q 359 92 290 92 q 484 134 446 92 q 522 244 522 177 q 483 354 522 312 q 366 397 443 397 q 269 374 304 397 q 214 321 233 351 l 108 330 l 141 624 l 28 624 z "},"ƾ":{"ha":710,"x_min":62,"x_max":646,"o":"m 646 204 q 568 47 646 107 q 362 -14 490 -14 q 139 61 216 -14 q 62 227 62 136 l 188 227 q 248 119 193 149 q 362 90 304 90 q 479 119 439 90 q 520 195 520 149 q 483 274 520 245 q 395 330 445 302 q 309 402 346 357 q 271 530 272 447 l 271 637 l 138 637 l 138 734 l 271 734 l 271 912 l 397 912 l 397 734 l 534 734 l 534 637 l 397 637 l 397 536 q 435 438 397 471 q 522 381 473 406 q 608 319 570 357 q 646 204 646 281 z "},"ƿ":{"ha":780,"x_min":95,"x_max":715,"o":"m 715 362 q 655 141 715 228 q 485 -3 595 54 q 221 -104 374 -60 l 221 -282 l 95 -282 l 95 734 l 210 734 l 216 653 q 429 747 294 747 q 642 645 568 747 q 715 376 715 543 l 715 362 m 392 642 q 221 541 278 642 l 221 -2 q 486 123 382 40 q 589 362 589 207 l 589 376 q 542 563 589 485 q 392 642 495 642 z "},"ǀ":{"ha":353,"x_min":126,"x_max":227,"o":"m 227 987 l 227 0 l 126 0 l 126 987 l 227 987 z "},"ǁ":{"ha":528,"x_min":126,"x_max":402,"o":"m 227 987 l 227 0 l 126 0 l 126 987 l 227 987 m 402 987 l 402 0 l 301 0 l 301 987 l 402 987 z "},"ǂ":{"ha":462,"x_min":15,"x_max":447,"o":"m 286 987 l 286 0 l 184 0 l 184 987 l 286 987 m 447 733 l 447 630 l 15 630 l 15 733 l 447 733 m 447 389 l 447 286 l 15 286 l 15 389 l 447 389 z "},"ǃ":{"ha":358,"x_min":109,"x_max":258,"o":"m 245 987 l 236 279 l 123 279 l 113 987 l 245 987 m 109 63 q 128 115 109 94 q 183 136 146 136 q 238 115 219 136 q 258 63 258 94 q 238 13 258 34 q 183 -8 219 -8 q 128 13 146 -8 q 109 63 109 34 z "},"Ǆ":{"ha":1615,"x_min":115,"x_max":1560,"o":"m 115 0 l 115 987 l 394 987 q 709 862 589 987 q 829 523 829 737 l 829 464 q 708 125 829 250 q 382 0 587 0 l 115 0 m 245 880 l 245 106 l 382 106 q 620 204 540 106 q 700 464 700 302 l 700 524 q 620 787 700 694 q 394 880 540 880 l 245 880 m 851 880 l 851 987 l 1539 987 l 1539 892 l 996 106 l 1560 106 l 1560 0 l 842 0 l 842 98 l 1383 880 l 851 880 m 1100 1252 l 1202 1137 l 1305 1252 l 1413 1252 l 1413 1245 l 1241 1059 l 1164 1059 l 994 1245 l 994 1252 l 1100 1252 z "},"ǅ":{"ha":1510,"x_min":115,"x_max":1463,"o":"m 1068 1027 l 1170 926 l 1272 1027 l 1381 1027 l 1381 1015 l 1209 849 l 1131 849 l 961 1013 l 961 1027 l 1068 1027 m 115 0 l 115 987 l 394 987 q 709 862 589 987 q 829 523 829 737 l 829 464 q 708 125 829 250 q 382 0 587 0 l 115 0 m 245 880 l 245 106 l 382 106 q 620 204 540 106 q 700 464 700 302 l 700 524 q 620 787 700 694 q 394 880 540 880 l 245 880 m 888 630 l 888 734 l 1444 734 l 1444 645 l 1036 103 l 1463 103 l 1463 0 l 882 0 l 882 92 l 1286 630 l 888 630 z "},"ǆ":{"ha":1379,"x_min":64,"x_max":1333,"o":"m 575 0 l 566 82 q 353 -14 490 -14 q 145 91 224 -14 q 64 353 66 195 l 64 373 q 144 644 64 541 q 355 747 224 747 q 558 661 484 747 l 558 1058 l 684 1058 l 684 0 l 575 0 m 937 1027 l 1039 926 l 1141 1027 l 1250 1027 l 1250 1015 l 1078 849 l 1000 849 l 830 1013 l 830 1027 l 937 1027 m 757 630 l 757 734 l 1313 734 l 1313 645 l 905 103 l 1333 103 l 1333 0 l 751 0 l 751 92 l 1155 630 l 757 630 m 191 359 q 237 171 191 250 q 385 93 283 93 q 558 199 501 93 l 558 537 q 386 642 502 642 q 237 562 283 642 q 191 373 191 482 l 191 359 z "},"Ǥ":{"ha":946,"x_min":83,"x_max":945,"o":"m 844 130 q 739 38 817 90 q 495 -14 661 -14 q 199 110 315 -14 q 83 456 83 234 l 83 532 q 186 877 83 753 q 480 1001 289 1001 q 738 916 650 1001 q 844 699 825 830 l 713 699 q 647 836 700 779 q 480 894 593 894 q 279 798 344 894 q 214 537 215 702 l 214 456 q 292 189 214 285 q 496 93 369 93 q 648 118 601 93 q 714 165 694 142 l 714 223 l 513 223 l 513 326 l 714 326 l 714 386 l 486 386 l 486 492 l 844 492 l 844 326 l 945 326 l 945 223 l 844 223 l 844 130 z "},"ǥ":{"ha":780,"x_min":21,"x_max":772,"o":"m 772 -115 l 684 -115 q 579 -276 660 -220 q 382 -333 498 -333 q 243 -306 326 -333 q 111 -206 161 -278 l 176 -131 q 374 -231 258 -231 q 555 -115 516 -231 l 21 -115 l 21 -37 l 568 -37 l 568 73 q 362 -14 493 -14 q 152 92 231 -14 q 74 359 74 198 l 74 373 q 152 644 74 541 q 363 747 230 747 q 574 652 498 747 l 580 734 l 694 734 l 694 -37 l 772 -37 l 772 -115 m 200 359 q 246 171 200 250 q 393 93 292 93 q 568 201 512 93 l 568 536 q 395 642 513 642 q 246 562 292 642 q 200 373 200 482 l 200 359 z "},"Ǯ":{"ha":895,"x_min":55,"x_max":814,"o":"m 77 880 l 77 987 l 762 987 l 762 895 l 413 502 q 707 409 600 502 q 814 109 814 315 q 708 -191 814 -98 q 428 -283 601 -283 q 161 -190 250 -283 q 55 43 71 -96 l 186 43 q 252 -120 203 -62 q 428 -177 301 -177 q 623 -106 562 -177 q 684 109 684 -36 q 618 332 684 265 q 420 399 553 398 l 264 399 l 264 496 l 607 880 l 77 880 m 309 1240 l 411 1125 l 513 1240 l 622 1240 l 622 1234 l 450 1048 l 372 1048 l 203 1234 l 203 1240 l 309 1240 z "},"ǯ":{"ha":808,"x_min":72,"x_max":722,"o":"m 279 1027 l 380 926 l 481 1027 l 591 1027 l 591 1015 l 419 849 l 340 849 l 171 1013 l 171 1027 l 279 1027 m 277 221 l 277 323 l 529 630 l 100 630 l 100 734 l 690 734 l 691 654 l 421 319 q 643 232 564 308 q 722 21 722 155 q 628 -192 722 -117 q 390 -268 534 -268 q 239 -238 312 -268 q 119 -145 166 -208 q 72 20 72 -81 l 197 20 q 250 -111 197 -56 q 390 -165 303 -165 q 542 -113 488 -165 q 596 18 596 -62 q 538 174 596 126 q 373 221 481 221 l 277 221 z "},"Ƕ":{"ha":1515,"x_min":115,"x_max":1423,"o":"m 743 987 l 873 987 l 873 309 q 1082 93 877 93 q 1293 306 1288 93 l 1293 733 l 1423 733 l 1423 313 q 1323 68 1422 151 q 1082 -14 1225 -14 q 838 69 932 -14 q 743 315 743 151 l 743 456 l 245 456 l 245 0 l 115 0 l 115 987 l 245 987 l 245 563 l 743 563 l 743 987 z "},"Ƿ":{"ha":918,"x_min":115,"x_max":836,"o":"m 836 555 q 759 257 836 393 q 548 26 682 120 q 245 -104 415 -68 l 245 -283 l 115 -283 l 115 987 l 245 987 l 245 951 q 438 1001 322 1001 q 729 899 622 1001 q 836 591 836 798 l 836 555 m 438 894 q 245 800 302 894 l 245 6 q 503 133 400 45 q 655 332 605 220 q 706 555 706 444 l 706 592 q 639 822 706 749 q 438 894 572 894 z "},"Ȝ":{"ha":833,"x_min":63,"x_max":762,"o":"m 762 222 q 680 -38 762 62 q 454 -197 597 -138 q 127 -296 311 -257 l 127 -190 q 497 -48 363 -138 q 631 223 631 42 q 562 410 631 360 q 127 223 401 293 l 126 321 q 489 478 361 393 q 616 722 616 564 q 564 843 616 792 q 396 895 512 895 q 254 848 313 895 q 194 728 194 802 l 63 728 q 162 927 63 854 q 396 1001 260 1001 q 652 930 557 1001 q 747 720 747 859 q 640 477 747 587 q 762 222 762 404 z "},"ȝ":{"ha":699,"x_min":58,"x_max":624,"o":"m 624 130 q 492 -160 624 -59 q 113 -296 361 -260 l 113 -195 q 393 -86 288 -156 q 498 130 498 -16 q 450 278 498 228 q 113 145 316 187 l 113 240 q 285 298 199 263 q 428 390 371 334 q 485 533 485 446 q 451 611 485 576 q 338 645 418 645 q 228 611 273 645 q 182 530 182 578 l 58 530 q 140 688 58 630 q 338 747 223 747 q 538 692 465 747 q 610 534 610 637 q 528 343 610 430 q 624 130 624 272 z "},"Ƞ":{"ha":918,"x_min":115,"x_max":823,"o":"m 823 -283 l 696 -283 l 696 673 q 634 842 696 788 q 468 895 571 895 q 241 841 336 895 l 241 0 l 115 0 l 115 987 l 241 987 l 241 945 q 468 1001 345 1001 q 716 919 609 1001 q 823 673 823 837 l 823 -283 z "},"ȡ":{"ha":990,"x_min":64,"x_max":970,"o":"m 558 1042 l 684 1042 l 684 42 q 780 60 732 60 q 915 15 860 60 q 970 -118 970 -31 q 915 -246 970 -195 q 770 -296 860 -296 q 637 -261 685 -296 q 572 -172 590 -225 l 484 -268 l 410 -193 l 558 -37 l 558 73 q 353 -14 484 -14 q 145 91 224 -14 q 64 353 66 195 l 64 373 q 144 644 64 541 q 355 747 224 747 q 558 661 484 747 l 558 1042 m 191 359 q 237 171 191 250 q 385 93 283 93 q 558 199 501 93 l 558 537 q 386 642 502 642 q 237 562 283 642 q 191 373 191 482 l 191 359 m 684 -111 q 705 -170 684 -146 q 770 -193 726 -193 q 824 -172 804 -193 q 844 -118 844 -150 q 823 -64 844 -86 q 765 -43 802 -43 q 684 -70 727 -43 l 684 -111 z "},"Ȣ":{"ha":927,"x_min":81,"x_max":846,"o":"m 846 294 q 738 62 846 138 q 471 -14 631 -14 l 456 -14 q 189 62 296 -14 q 81 292 81 138 q 120 443 81 380 q 226 543 159 506 q 121 623 161 571 q 81 758 81 675 q 159 937 81 879 q 347 1001 236 996 l 347 900 q 245 854 279 886 q 211 758 211 823 q 282 636 211 667 q 450 605 353 605 l 478 605 q 646 636 575 605 q 717 758 717 667 q 682 854 717 823 q 581 900 648 886 l 581 1001 q 769 937 692 996 q 846 758 846 879 q 806 623 846 675 q 701 543 766 571 q 807 444 768 506 q 846 294 846 381 m 456 494 q 278 446 346 494 q 211 292 211 397 q 278 143 211 190 q 456 97 346 97 l 471 97 q 649 143 581 97 q 717 294 717 190 q 649 446 717 397 q 471 494 581 494 l 456 494 z "},"ȣ":{"ha":903,"x_min":71,"x_max":832,"o":"m 832 294 q 725 62 832 138 q 459 -14 618 -14 l 443 -14 q 177 62 283 -14 q 71 292 71 138 q 111 445 71 382 q 219 544 151 508 q 112 632 153 574 q 71 779 71 689 q 147 979 71 907 q 336 1056 223 1051 l 336 960 q 232 895 268 937 q 197 779 197 853 q 269 636 197 672 q 437 600 340 600 l 465 600 q 634 636 562 600 q 706 779 706 672 q 671 895 706 853 q 568 960 636 937 l 568 1056 q 756 979 680 1051 q 832 779 832 907 q 791 632 832 689 q 683 544 750 574 q 792 445 752 508 q 832 294 832 382 m 443 497 q 265 447 334 497 q 197 292 197 396 q 265 139 197 190 q 443 89 334 89 l 459 89 q 637 139 568 89 q 706 294 706 190 q 637 447 706 396 q 459 497 568 497 l 443 497 z "},"Ȥ":{"ha":848,"x_min":59,"x_max":823,"o":"m 68 880 l 68 987 l 755 987 l 755 892 l 213 106 l 598 106 q 823 -90 823 102 q 812 -168 823 -132 l 708 -167 q 714 -121 714 -146 q 687 -33 714 -65 q 587 0 659 0 l 59 0 l 59 98 l 600 880 l 68 880 z "},"ȥ":{"ha":713,"x_min":60,"x_max":682,"o":"m 623 645 l 214 103 l 446 103 q 622 62 561 103 q 682 -71 682 22 q 670 -149 682 -114 l 571 -149 q 577 -103 577 -128 q 548 -26 577 -52 q 446 0 518 0 l 60 0 l 60 92 l 465 630 l 66 630 l 66 734 l 623 734 l 623 645 z "},"ȴ":{"ha":594,"x_min":14,"x_max":574,"o":"m 162 1042 l 288 1042 l 288 42 q 384 60 336 60 q 519 15 464 60 q 574 -118 574 -31 q 519 -246 574 -195 q 374 -296 464 -296 q 241 -261 289 -296 q 176 -172 194 -225 l 88 -268 l 14 -193 l 162 -37 l 162 1042 m 288 -111 q 309 -170 288 -146 q 374 -193 329 -193 q 428 -172 408 -193 q 448 -118 448 -150 q 427 -64 448 -86 q 369 -43 406 -43 q 288 -69 330 -43 l 288 -111 z "},"ȵ":{"ha":979,"x_min":96,"x_max":958,"o":"m 437 747 q 609 687 545 747 q 673 484 672 627 l 673 42 q 769 60 720 60 q 904 15 849 60 q 958 -118 958 -31 q 903 -246 958 -195 q 758 -296 848 -296 q 626 -261 673 -296 q 560 -172 578 -225 l 473 -268 l 398 -193 l 547 -37 l 547 482 q 509 605 547 568 q 400 642 471 642 q 294 609 340 642 q 221 524 248 576 l 221 0 l 96 0 l 96 734 l 214 734 l 218 642 q 437 747 302 747 m 673 -111 q 693 -170 673 -146 q 760 -193 714 -193 q 813 -172 793 -193 q 833 -118 833 -150 q 812 -64 833 -86 q 753 -43 791 -43 q 673 -70 715 -43 l 673 -111 z "},"ȶ":{"ha":598,"x_min":18,"x_max":578,"o":"m 578 165 q 523 37 578 87 q 378 -14 468 -14 q 246 22 293 -14 q 180 111 199 58 l 92 15 l 18 90 l 166 245 l 166 637 l 33 637 l 33 734 l 166 734 l 166 912 l 292 912 l 292 734 l 429 734 l 429 637 l 292 637 l 292 324 q 388 343 342 343 q 523 297 468 343 q 578 165 578 251 m 292 172 q 313 113 292 136 q 378 90 334 90 q 432 111 412 90 q 452 165 452 133 q 431 218 452 197 q 373 240 410 240 q 292 213 334 240 l 292 172 z "},"ȷ":{"ha":350,"x_min":-52,"x_max":243,"o":"m 117 734 l 243 734 l 243 -60 q 185 -236 243 -175 q 24 -296 127 -296 q -52 -285 -18 -296 l -42 -184 q 24 -193 -20 -193 q 117 -62 117 -193 l 117 734 z "},"ȸ":{"ha":1244,"x_min":64,"x_max":1180,"o":"m 1180 359 q 1105 92 1180 198 q 895 -14 1031 -14 q 684 79 760 -14 l 684 0 l 569 0 l 563 79 q 353 -14 488 -14 q 145 91 224 -14 q 64 353 66 195 l 64 373 q 144 644 64 541 q 355 747 224 747 q 558 661 484 747 l 558 1042 l 684 1042 l 684 654 q 893 747 759 747 q 1106 644 1031 747 q 1180 373 1180 541 l 1180 359 m 862 642 q 751 609 793 642 q 684 528 708 576 l 684 208 q 752 126 709 159 q 863 93 795 93 q 1009 171 964 93 q 1054 359 1054 250 l 1054 373 q 1011 562 1054 482 q 862 642 968 642 m 191 359 q 237 171 191 250 q 385 93 283 93 q 558 199 501 93 l 558 537 q 386 642 502 642 q 237 562 283 642 q 191 373 191 482 l 191 359 z "},"ȹ":{"ha":1243,"x_min":64,"x_max":1179,"o":"m 894 -14 q 684 72 761 -14 l 684 -282 l 557 -282 l 557 68 q 355 -14 482 -14 q 142 92 220 -14 q 64 359 64 198 l 64 373 q 142 644 64 541 q 357 747 219 747 q 563 660 487 747 l 568 734 l 673 734 l 679 652 q 892 747 756 747 q 1105 644 1031 747 q 1179 373 1179 541 l 1179 359 q 1104 92 1179 198 q 894 -14 1030 -14 m 191 359 q 238 170 191 250 q 387 90 285 90 q 557 188 498 90 l 557 548 q 388 644 498 644 q 238 563 285 644 q 191 372 191 482 l 191 359 m 855 642 q 684 539 741 642 l 684 191 q 857 90 741 90 q 1005 170 958 90 q 1053 359 1053 250 l 1053 373 q 1005 562 1053 482 q 855 642 958 642 z "},"Ⱥ":{"ha":906,"x_min":-113,"x_max":910,"o":"m -113 -85 l 79 155 l 396 987 l 511 987 l 587 789 l 802 1059 l 910 1059 l 621 699 l 888 0 l 754 0 l 660 258 l 269 258 l 229 208 l 153 0 l 62 0 l -5 -85 l -113 -85 m 454 826 l 319 454 l 504 687 l 454 826 m 355 366 l 621 366 l 538 594 l 355 366 z "},"Ȼ":{"ha":904,"x_min":81,"x_max":841,"o":"m 467 -14 q 338 7 398 -14 l 302 -85 l 213 -85 l 262 44 q 130 203 178 100 q 81 444 81 307 l 81 543 q 188 876 81 750 q 478 1001 295 1001 q 623 978 558 1001 l 654 1059 l 743 1059 l 697 941 q 796 828 760 897 q 841 671 832 758 l 711 671 q 652 825 696 772 l 377 109 q 467 93 418 93 q 643 151 591 93 q 711 314 694 210 l 841 314 q 735 80 826 174 q 467 -14 644 -14 m 212 444 q 235 279 212 355 q 306 156 258 203 l 583 876 q 478 894 539 894 q 279 798 347 894 q 212 544 212 701 l 212 444 z "},"ȼ":{"ha":727,"x_min":56,"x_max":682,"o":"m 389 -14 q 263 8 320 -14 l 146 -282 l 56 -282 l 191 49 q 63 366 63 148 l 63 381 q 143 638 63 529 q 389 747 224 747 q 470 738 431 747 l 571 987 l 660 987 l 547 708 q 682 481 675 635 l 562 481 q 504 603 557 557 l 303 107 q 389 90 340 90 q 507 130 456 90 q 562 232 557 170 l 682 232 q 591 60 677 134 q 389 -14 506 -14 m 189 353 q 237 163 189 232 l 430 640 q 389 644 410 644 q 268 605 312 644 q 207 505 224 566 q 189 381 189 445 l 189 353 z "},"Ƚ":{"ha":795,"x_min":21,"x_max":761,"o":"m 761 106 l 761 0 l 162 0 l 162 987 l 293 987 l 293 106 l 761 106 m 453 549 l 453 446 l 21 446 l 21 549 l 453 549 z "},"Ⱦ":{"ha":829,"x_min":34,"x_max":797,"o":"m 34 880 l 34 987 l 638 987 l 675 1059 l 768 1059 l 732 987 l 797 987 l 797 880 l 677 880 l 479 490 l 479 0 l 351 0 l 351 236 l 188 -85 l 94 -85 l 351 421 l 351 880 l 34 880 m 479 880 l 479 675 l 584 880 l 479 880 z "},"ȿ":{"ha":717,"x_min":61,"x_max":649,"o":"m 524 195 q 524 217 524 195 q 490 270 524 240 q 358 321 457 299 q 163 394 235 348 q 91 533 91 440 q 165 684 91 620 q 362 747 239 747 q 568 680 494 747 q 642 518 642 613 l 516 518 q 476 604 516 564 q 362 644 437 644 q 250 610 283 644 q 216 536 216 576 q 246 471 216 493 q 395 421 275 449 q 582 343 514 393 q 649 204 649 294 q 572 47 649 107 q 366 -14 494 -14 q 273 -5 317 -14 q 356 -152 325 -107 q 429 -197 388 -197 q 522 -153 477 -197 l 566 -228 q 506 -274 544 -251 q 427 -296 468 -296 q 319 -256 365 -296 q 229 -138 274 -216 l 61 163 l 149 214 q 247 117 187 144 q 366 89 307 89 q 483 119 443 89 q 524 195 524 149 z "},"ɀ":{"ha":690,"x_min":60,"x_max":761,"o":"m 66 630 l 66 734 l 623 734 l 623 645 l 214 103 l 273 103 q 411 58 359 103 q 495 -47 462 12 q 556 -152 528 -107 q 624 -197 584 -197 q 718 -154 669 -197 l 761 -229 q 618 -296 693 -296 q 521 -267 558 -296 q 457 -191 484 -237 q 402 -103 429 -145 q 336 -31 375 -60 q 236 0 297 -1 l 60 0 l 60 92 l 465 630 l 66 630 z "},"Ɂ":{"ha":748,"x_min":43,"x_max":669,"o":"m 278 0 l 278 304 l 342 304 q 497 384 456 306 q 539 557 538 463 l 539 635 q 497 810 539 730 q 338 890 454 890 q 217 845 263 890 q 165 726 171 801 l 43 726 q 129 924 47 846 q 338 1001 210 1001 q 586 892 504 1001 q 669 635 669 783 l 669 560 q 604 327 669 429 q 408 200 539 224 l 408 0 l 278 0 z "},"ɂ":{"ha":661,"x_min":41,"x_max":598,"o":"m 264 0 l 264 302 l 322 302 q 440 349 407 302 q 473 469 473 397 q 438 592 473 541 q 313 644 403 644 q 207 596 247 644 q 167 475 167 548 l 41 475 q 120 674 41 601 q 313 747 198 747 q 524 675 450 747 q 598 467 598 604 q 551 309 598 377 q 390 225 503 241 l 390 0 l 264 0 z "},"Ƀ":{"ha":913,"x_min":21,"x_max":834,"o":"m 834 285 q 745 73 834 146 q 508 0 656 0 l 162 0 l 162 987 l 486 987 q 723 925 637 987 q 808 724 808 862 q 769 603 808 656 q 662 520 730 549 q 790 433 745 497 q 834 285 834 368 m 293 880 l 293 567 l 490 567 q 625 609 574 567 q 677 726 677 651 q 494 880 677 877 l 293 880 m 704 283 q 659 414 704 366 q 514 462 614 462 l 293 462 l 293 106 l 508 106 q 652 154 601 106 q 704 283 704 202 m 453 338 l 453 235 l 21 235 l 21 338 l 453 338 z "},"Ʉ":{"ha":1076,"x_min":21,"x_max":1055,"o":"m 540 -14 q 286 70 389 -14 q 183 319 183 153 l 183 458 l 21 458 l 21 561 l 183 561 l 183 987 l 313 987 l 313 561 l 768 561 l 768 987 l 898 987 l 898 561 l 1055 561 l 1055 458 l 898 458 l 898 319 q 791 70 898 153 q 540 -14 684 -14 m 313 319 q 375 148 313 203 q 540 93 438 93 q 705 148 642 93 q 768 319 768 203 l 768 458 l 313 458 l 313 319 z "},"Ʌ":{"ha":884,"x_min":19,"x_max":865,"o":"m 19 0 l 384 987 l 500 987 l 865 0 l 724 0 l 441 814 l 161 0 l 19 0 z "},"Ɇ":{"ha":789,"x_min":115,"x_max":742,"o":"m 115 0 l 115 987 l 555 987 l 575 1059 l 664 1059 l 644 987 l 735 987 l 735 880 l 614 880 l 526 563 l 673 563 l 673 456 l 496 456 l 399 106 l 742 106 l 742 0 l 370 0 l 346 -85 l 256 -85 l 280 0 l 115 0 m 245 563 l 437 563 l 525 880 l 245 880 l 245 563 m 245 106 l 310 106 l 407 456 l 245 456 l 245 106 z "},"ɇ":{"ha":736,"x_min":56,"x_max":686,"o":"m 400 -14 q 264 12 327 -14 l 146 -282 l 56 -282 l 192 52 q 63 335 65 150 l 63 370 q 109 574 63 490 q 228 703 155 659 q 384 747 301 747 q 470 737 430 747 l 571 987 l 660 987 l 546 706 q 686 378 686 621 l 686 332 l 394 332 l 306 113 q 407 89 351 89 q 519 116 473 89 q 600 189 566 143 l 676 128 q 574 30 640 74 q 400 -14 509 -14 m 384 644 q 258 590 309 644 q 193 434 206 536 l 347 434 l 430 640 q 384 644 408 644 m 560 444 q 503 600 560 545 l 436 434 l 560 434 l 560 444 m 189 332 q 240 172 192 237 l 305 332 l 189 332 z "},"Ɉ":{"ha":831,"x_min":36,"x_max":810,"o":"m 529 987 l 659 987 l 659 288 q 571 64 659 142 q 348 -14 484 -14 q 124 57 212 -14 q 36 273 36 127 l 167 273 q 217 136 167 180 q 348 93 268 93 q 477 142 425 93 q 529 288 529 192 l 529 987 m 810 549 l 810 446 l 378 446 l 378 549 l 810 549 z "},"ɉ":{"ha":473,"x_min":21,"x_max":453,"o":"m 164 928 q 183 980 164 959 q 238 1001 202 1001 q 294 980 275 1001 q 313 928 313 959 q 294 879 313 899 q 238 858 275 858 q 183 879 202 858 q 164 928 164 899 m 177 734 l 303 734 l 303 -87 q 111 -296 303 -296 q 33 -285 69 -296 l 34 -184 q 92 -190 59 -190 q 177 -96 174 -190 l 177 734 m 453 463 l 453 359 l 21 359 l 21 463 l 453 463 z "},"Ɋ":{"ha":989,"x_min":81,"x_max":983,"o":"m 745 987 l 844 987 l 844 -60 q 866 -160 844 -132 q 936 -188 888 -188 q 982 -182 964 -188 l 983 -285 q 905 -296 946 -296 q 713 -73 719 -296 l 713 26 q 494 -14 623 -14 q 259 52 351 -14 q 125 225 168 118 q 81 456 81 332 l 81 532 q 187 866 81 730 q 494 1001 292 1001 q 736 950 639 1001 l 745 987 m 494 890 q 440 890 494 890 q 325 838 387 890 q 237 704 263 786 q 211 532 211 621 l 211 456 q 276 202 211 307 q 494 97 342 97 q 647 123 601 97 q 713 171 693 149 l 713 817 q 647 865 693 839 q 494 890 601 890 z "},"ɋ":{"ha":821,"x_min":64,"x_max":829,"o":"m 568 734 l 684 734 l 684 -99 q 788 -206 686 -206 q 828 -201 810 -206 l 829 -288 q 761 -296 799 -296 q 617 -243 677 -296 q 557 -92 557 -191 l 557 68 q 355 -14 482 -14 q 142 92 220 -14 q 64 359 64 198 l 64 373 q 142 644 64 541 q 357 747 219 747 q 563 660 487 747 l 568 734 m 191 359 q 238 169 191 250 q 387 89 285 89 q 557 188 498 89 l 557 548 q 388 644 498 644 q 238 563 285 644 q 191 372 191 482 l 191 359 z "},"Ɍ":{"ha":897,"x_min":26,"x_max":875,"o":"m 734 0 l 520 400 l 288 400 l 288 0 l 158 0 l 158 400 l 26 400 l 26 507 l 158 507 l 158 987 l 485 987 q 741 911 651 987 q 831 691 831 836 q 781 530 831 599 q 643 427 731 461 l 875 8 l 875 0 l 734 0 m 288 880 l 288 507 l 488 507 q 647 561 594 507 q 700 691 700 614 q 650 828 700 776 q 488 880 600 880 l 288 880 z "},"ɍ":{"ha":532,"x_min":21,"x_max":511,"o":"m 450 627 q 282 521 327 627 l 282 0 l 157 0 l 157 734 l 279 734 l 281 650 q 456 747 342 747 q 511 738 491 747 l 511 621 q 450 627 483 627 m 453 437 l 453 334 l 21 334 l 21 437 l 453 437 z "},"Ɏ":{"ha":937,"x_min":21,"x_max":916,"o":"m 533 369 l 533 0 l 403 0 l 403 369 l 208 722 l 21 722 l 21 800 l 165 800 l 62 987 l 212 987 l 309 800 l 627 800 l 725 987 l 873 987 l 770 800 l 916 800 l 916 722 l 727 722 l 533 369 m 468 492 l 587 722 l 349 722 l 468 492 z "},"ɏ":{"ha":711,"x_min":21,"x_max":690,"o":"m 160 -296 q 90 -286 122 -296 l 90 -184 l 123 -186 q 223 -160 187 -186 q 281 -66 259 -134 l 309 8 l 155 434 l 21 434 l 21 512 l 127 512 l 47 734 l 184 734 l 258 512 l 470 512 l 538 734 l 673 734 l 595 512 l 690 512 l 690 434 l 568 434 l 382 -100 q 180 -296 318 -286 l 160 -296 m 284 434 l 368 184 l 446 434 l 284 434 z "},"ɐ":{"ha":755,"x_min":76,"x_max":682,"o":"m 667 203 q 588 56 667 125 q 375 -14 509 -14 q 178 47 255 -14 q 102 232 102 109 l 102 562 q 76 723 102 663 l 76 734 l 207 734 q 224 656 219 708 q 313 721 260 694 q 434 747 366 747 q 614 684 547 747 q 682 530 682 621 q 592 350 682 412 q 352 289 503 289 l 227 289 l 227 231 q 267 126 227 165 q 382 87 307 87 q 497 122 453 87 q 541 203 541 157 l 667 203 m 416 637 q 297 603 347 637 q 227 528 248 569 l 227 377 l 323 377 q 556 513 556 377 q 520 601 556 565 q 416 637 485 637 z "},"ɑ":{"ha":818,"x_min":66,"x_max":774,"o":"m 774 9 q 691 -14 741 -14 q 566 98 592 -14 q 352 -14 492 -14 q 141 85 216 -14 q 66 340 66 184 l 66 354 q 141 637 66 528 q 353 747 215 747 q 564 639 491 747 l 575 734 l 682 734 l 682 200 q 697 118 682 138 q 735 98 713 98 q 759 102 747 98 l 774 9 m 193 340 q 237 162 193 235 q 382 89 281 89 q 490 124 449 89 q 555 214 530 160 l 555 517 q 384 644 497 644 q 237 558 281 644 q 193 353 193 472 l 193 340 z "},"ɒ":{"ha":818,"x_min":43,"x_max":751,"o":"m 751 379 q 676 96 751 205 q 465 -14 602 -14 q 254 94 327 -14 l 243 -1 l 136 -1 l 136 533 q 120 615 136 595 q 82 635 104 635 q 59 631 70 635 l 43 724 q 127 747 76 747 q 252 636 226 747 q 466 747 325 747 q 676 648 602 747 q 751 393 751 549 l 751 379 m 435 644 q 328 609 369 644 q 262 519 288 573 l 262 216 q 329 125 288 161 q 433 89 370 89 q 581 175 536 89 q 625 380 625 261 l 625 393 q 581 571 625 498 q 435 644 536 644 z "},"ɓ":{"ha":781,"x_min":95,"x_max":717,"o":"m 326 968 q 221 862 224 968 l 221 654 q 430 747 296 747 q 643 644 568 747 q 717 373 717 541 l 717 359 q 642 92 717 198 q 431 -14 568 -14 q 217 85 292 -14 l 210 0 l 95 0 l 95 854 q 155 1006 95 954 q 298 1059 214 1059 q 367 1048 336 1059 l 366 962 q 326 968 347 968 m 399 642 q 288 609 330 642 q 221 528 245 576 l 221 208 q 289 126 245 159 q 400 93 332 93 q 546 171 502 93 q 591 359 591 250 l 591 373 q 548 562 591 482 q 399 642 506 642 z "},"ɔ":{"ha":727,"x_min":46,"x_max":665,"o":"m 46 232 l 165 232 q 220 129 170 170 q 338 89 271 89 q 538 369 538 89 l 538 381 q 520 505 538 445 q 459 605 503 566 q 338 644 415 644 q 216 597 262 644 q 165 481 170 549 l 46 481 q 130 671 52 595 q 338 747 209 747 q 584 638 503 747 q 665 380 665 529 l 665 353 q 584 96 665 205 q 338 -14 503 -14 q 136 60 221 -14 q 46 232 52 134 z "},"ɕ":{"ha":735,"x_min":27,"x_max":690,"o":"m 195 18 l 116 -87 l 27 -18 l 134 119 q 71 353 71 214 l 71 381 q 151 638 71 529 q 397 747 232 747 q 606 671 526 747 q 690 481 685 595 l 570 481 q 519 597 566 549 q 397 644 473 644 q 276 605 320 644 q 215 505 233 566 q 197 381 197 445 l 197 353 q 218 216 197 273 q 359 334 294 297 q 500 372 425 372 q 643 327 595 372 q 690 212 690 282 q 602 48 690 111 q 400 -14 515 -14 q 212 40 290 -14 l 195 18 m 495 267 q 396 230 448 267 q 283 124 345 194 q 400 89 330 89 q 518 118 465 89 q 572 199 572 147 q 548 252 572 237 q 495 267 524 267 z "},"ɖ":{"ha":820,"x_min":63,"x_max":828,"o":"m 557 1042 l 682 1042 l 682 -96 q 787 -206 684 -206 q 827 -201 808 -206 l 828 -288 q 760 -296 798 -296 q 616 -243 675 -296 q 557 -92 557 -191 l 557 73 q 352 -14 482 -14 q 144 91 223 -14 q 63 353 64 195 l 63 373 q 143 644 63 541 q 353 747 222 747 q 557 661 483 747 l 557 1042 m 189 359 q 235 171 189 250 q 382 93 281 93 q 490 123 449 93 q 557 200 532 153 l 557 537 q 384 642 500 642 q 235 562 281 642 q 189 373 189 482 l 189 359 z "},"ɗ":{"ha":820,"x_min":63,"x_max":828,"o":"m 787 968 q 682 862 685 968 l 682 0 l 573 0 l 564 81 q 352 -14 488 -14 q 144 91 223 -14 q 63 353 64 195 l 63 373 q 143 644 63 541 q 353 747 222 747 q 557 661 483 747 l 557 854 q 616 1006 557 954 q 760 1059 675 1059 q 828 1048 798 1059 l 827 962 q 787 968 809 968 m 189 359 q 235 171 189 250 q 382 93 281 93 q 490 123 449 93 q 557 200 532 153 l 557 537 q 384 642 500 642 q 235 562 281 642 q 189 373 189 482 l 189 359 z "},"ɘ":{"ha":736,"x_min":51,"x_max":673,"o":"m 673 341 q 582 86 673 186 q 336 -14 490 -14 q 162 30 228 -14 q 60 128 96 74 l 136 189 q 217 116 171 143 q 330 89 263 89 q 487 160 430 89 q 547 332 545 231 l 51 332 l 51 388 q 123 645 51 542 q 353 747 195 747 q 575 648 477 747 q 673 370 673 549 l 673 341 m 176 434 l 543 434 q 479 590 530 536 q 353 644 428 644 q 219 581 256 644 q 176 444 181 517 l 176 434 z "},"ə":{"ha":732,"x_min":67,"x_max":680,"o":"m 680 352 q 635 162 680 245 q 520 33 591 80 q 366 -13 449 -14 q 141 79 214 -13 q 67 314 67 171 l 67 397 l 553 397 q 497 573 549 500 q 347 646 446 646 q 138 572 219 646 l 88 658 q 185 720 122 690 q 347 749 248 749 q 589 645 499 749 q 680 382 680 541 l 680 352 m 366 90 q 486 148 437 90 q 549 294 536 206 l 193 294 l 193 277 q 234 146 193 203 q 366 90 276 90 z "},"ɚ":{"ha":966,"x_min":51,"x_max":952,"o":"m 353 -14 q 123 89 195 -14 q 51 346 51 192 l 51 390 l 534 485 q 461 600 513 555 q 330 645 408 645 q 217 618 263 645 q 136 545 171 591 l 60 606 q 162 704 96 660 q 336 747 228 747 q 543 682 459 747 q 658 509 627 616 l 786 534 q 819 390 798 442 q 892 337 840 337 q 936 340 918 337 l 952 262 q 866 241 912 241 q 751 290 785 241 q 704 414 718 340 l 673 408 l 673 360 q 627 159 673 243 q 509 31 582 75 q 353 -14 435 -14 m 176 290 q 216 153 176 217 q 353 89 256 89 q 493 160 439 89 q 547 363 547 232 l 547 382 l 176 310 l 176 290 z "},"ɛ":{"ha":749,"x_min":68,"x_max":681,"o":"m 505 425 l 505 325 l 357 325 q 194 206 194 321 q 241 123 194 159 q 374 88 288 88 q 506 127 456 88 q 556 217 556 167 l 681 217 q 635 86 681 137 q 520 11 590 35 q 374 -14 450 -14 q 155 45 241 -14 q 68 207 68 103 q 205 378 68 333 q 81 534 81 429 q 161 692 81 637 q 374 747 241 747 q 582 688 494 747 q 669 530 669 630 l 544 530 q 494 611 544 578 q 374 645 445 645 q 247 611 288 645 q 206 534 206 576 q 243 455 206 486 q 366 425 281 425 l 505 425 z "},"ɜ":{"ha":749,"x_min":68,"x_max":682,"o":"m 244 325 l 244 425 l 383 425 q 506 455 469 425 q 543 534 543 486 q 503 611 543 576 q 375 645 462 645 q 255 611 304 645 q 205 530 205 578 l 81 530 q 168 688 81 630 q 375 747 255 747 q 589 692 509 747 q 669 534 669 637 q 544 378 669 429 q 682 207 682 333 q 595 45 682 103 q 375 -14 509 -14 q 229 11 300 -14 q 114 86 159 35 q 68 217 68 137 l 193 217 q 243 127 193 167 q 375 88 293 88 q 508 123 461 88 q 555 206 555 159 q 391 325 555 322 l 244 325 z "},"ɝ":{"ha":987,"x_min":68,"x_max":975,"o":"m 244 325 l 244 425 l 383 425 q 506 455 469 425 q 543 534 543 486 q 503 611 543 576 q 375 645 462 645 q 255 611 304 645 q 205 530 205 578 l 81 530 q 168 688 81 630 q 375 747 255 747 q 556 711 482 747 q 656 607 630 675 l 808 637 q 841 492 820 545 q 914 439 862 439 q 958 443 940 439 l 975 365 q 888 342 932 342 q 774 392 807 342 q 726 516 741 442 l 665 504 q 544 378 646 420 q 682 207 682 333 q 595 45 682 103 q 375 -14 509 -14 q 229 11 300 -14 q 114 86 159 35 q 68 217 68 137 l 193 217 q 243 127 193 167 q 375 88 293 88 q 508 123 461 88 q 555 206 555 159 q 391 325 555 322 l 244 325 z "},"ɞ":{"ha":725,"x_min":66,"x_max":657,"o":"m 657 207 q 578 45 657 103 q 374 -14 499 -14 q 230 19 301 -14 q 112 136 159 52 q 66 377 66 220 l 66 377 l 66 378 l 66 378 l 66 378 q 111 602 66 522 q 226 714 155 682 q 374 747 296 747 q 571 692 499 747 q 644 534 644 637 q 530 378 644 429 q 657 207 657 334 m 302 321 l 302 428 l 390 428 q 518 534 518 431 q 485 611 518 576 q 374 645 452 645 q 244 586 298 645 q 191 377 191 527 q 240 157 191 226 q 374 87 288 87 q 491 123 451 87 q 531 206 531 159 q 386 321 531 319 l 302 321 z "},"ɟ":{"ha":452,"x_min":46,"x_max":446,"o":"m 124 -296 q 46 -285 82 -296 l 47 -184 q 104 -190 72 -190 q 190 -96 187 -190 l 190 0 l 48 0 l 48 103 l 190 103 l 190 734 l 316 734 l 316 103 l 446 103 l 446 0 l 316 0 l 316 -98 q 124 -296 311 -296 z "},"ɠ":{"ha":823,"x_min":66,"x_max":831,"o":"m 789 842 q 685 736 688 842 l 685 16 q 598 -210 685 -130 q 374 -290 511 -290 q 235 -262 317 -290 q 102 -162 152 -234 l 168 -87 q 365 -186 250 -186 q 507 -137 454 -186 q 559 9 559 -87 l 559 74 q 354 -14 485 -14 q 144 92 222 -14 q 66 359 66 198 l 66 373 q 143 644 66 541 q 355 747 221 747 q 559 660 485 747 l 559 728 q 619 880 559 827 q 763 933 678 933 q 831 922 797 933 l 830 836 q 789 842 810 842 m 191 359 q 237 171 191 250 q 385 93 283 93 q 559 201 504 93 l 559 536 q 494 611 536 581 q 386 642 452 642 q 237 562 283 642 q 191 373 191 482 l 191 359 z "},"ɡ":{"ha":780,"x_min":66,"x_max":685,"o":"m 374 -290 q 235 -262 317 -290 q 102 -162 152 -234 l 168 -87 q 365 -186 250 -186 q 507 -137 454 -186 q 559 9 559 -87 l 559 74 q 354 -14 485 -14 q 144 92 222 -14 q 66 359 66 198 l 66 373 q 143 644 66 541 q 355 747 221 747 q 565 652 490 747 l 571 734 l 685 734 l 685 16 q 598 -210 685 -130 q 374 -290 511 -290 m 191 359 q 237 171 191 250 q 385 93 283 93 q 559 201 504 93 l 559 536 q 494 611 536 581 q 386 642 452 642 q 237 562 283 642 q 191 373 191 482 l 191 359 z "},"ɢ":{"ha":835,"x_min":78,"x_max":755,"o":"m 755 372 l 755 107 q 647 29 731 72 q 428 -14 564 -14 q 175 78 273 -14 q 78 313 78 169 l 78 423 q 176 657 78 567 q 425 747 273 747 q 654 677 579 747 q 740 500 729 607 l 614 500 q 425 646 595 646 q 265 582 326 646 q 203 424 203 518 l 203 313 q 264 153 203 218 q 428 88 325 88 q 556 106 511 88 q 618 138 602 124 l 618 269 l 439 269 l 439 372 l 755 372 z "},"ɣ":{"ha":757,"x_min":20,"x_max":736,"o":"m 552 -132 q 506 -249 552 -208 q 378 -291 460 -291 q 250 -249 296 -291 q 204 -132 204 -208 q 232 -26 204 -83 l 315 146 l 20 734 l 157 734 l 380 279 l 600 734 l 736 734 l 444 148 l 530 -28 q 552 -132 552 -76 m 330 -132 q 378 -184 330 -184 q 426 -132 426 -184 q 380 18 426 -83 q 330 -132 330 -87 z "},"ɤ":{"ha":882,"x_min":20,"x_max":861,"o":"m 389 147 q 441 93 389 93 q 493 147 493 93 q 441 279 493 185 q 389 147 389 185 m 619 148 q 573 30 619 73 q 441 -14 528 -14 q 308 30 354 -14 q 262 148 262 73 q 293 263 262 201 q 369 405 324 325 q 261 579 294 536 q 184 622 229 622 q 100 566 144 622 l 20 644 q 97 716 54 684 q 203 747 140 747 q 334 685 279 747 q 441 532 389 622 q 548 685 493 622 q 678 747 603 747 q 785 716 742 747 q 861 644 827 684 l 782 566 q 698 622 737 622 q 620 578 653 622 q 513 405 587 535 q 588 263 557 325 q 619 148 619 201 z "},"ɥ":{"ha":765,"x_min":93,"x_max":670,"o":"m 670 734 l 670 -282 l 544 -282 l 544 87 q 328 -14 460 -14 q 157 46 220 -14 q 93 247 94 106 l 93 734 l 218 734 l 218 252 q 256 129 218 165 q 365 92 294 92 q 472 125 425 92 q 544 210 518 157 l 545 734 l 670 734 z "},"ɦ":{"ha":765,"x_min":96,"x_max":673,"o":"m 326 968 q 221 862 224 968 l 221 646 q 437 747 304 747 q 609 687 545 747 q 673 484 672 627 l 673 0 l 547 0 l 547 482 q 509 605 547 568 q 400 642 471 642 q 294 609 340 642 q 221 524 248 576 l 221 0 l 96 0 l 96 854 q 155 1006 96 954 q 298 1059 214 1059 q 367 1048 336 1059 l 366 962 q 326 968 347 968 z "},"ɧ":{"ha":765,"x_min":96,"x_max":673,"o":"m 437 747 q 609 686 546 747 q 673 481 673 625 l 673 -43 q 613 -195 673 -142 q 469 -248 553 -248 q 401 -238 433 -248 l 402 -151 q 442 -157 418 -157 q 519 -131 492 -157 q 547 -43 547 -106 l 547 482 q 509 605 547 568 q 400 642 471 642 q 294 609 340 642 q 221 524 248 576 l 221 0 l 96 0 l 96 854 q 155 1006 96 954 q 298 1059 214 1059 q 367 1048 336 1059 l 366 962 q 326 968 347 968 q 221 862 224 968 l 221 646 q 437 747 304 747 z "},"ɨ":{"ha":462,"x_min":15,"x_max":447,"o":"m 157 928 q 176 980 157 959 q 231 1001 195 1001 q 287 980 267 1001 q 306 928 306 959 q 287 879 306 899 q 231 858 267 858 q 176 879 195 858 q 157 928 157 899 m 293 734 l 293 0 l 167 0 l 167 734 l 293 734 m 447 463 l 447 359 l 15 359 l 15 463 l 447 463 z "},"ɩ":{"ha":395,"x_min":93,"x_max":364,"o":"m 93 734 l 218 734 l 218 184 q 323 77 221 77 q 363 81 345 77 l 364 -5 q 296 -14 334 -14 q 152 39 212 -14 q 93 191 93 92 l 93 734 z "},"ɪ":{"ha":466,"x_min":68,"x_max":397,"o":"m 68 631 l 68 734 l 397 734 l 397 631 l 295 631 l 295 103 l 397 103 l 397 0 l 68 0 l 68 103 l 170 103 l 170 631 l 68 631 z "},"ɫ":{"ha":497,"x_min":8,"x_max":488,"o":"m 308 1042 l 308 0 l 182 0 l 182 1042 l 308 1042 m 404 620 l 488 612 q 446 493 488 538 q 342 448 404 448 q 270 464 296 448 l 221 496 q 160 512 197 512 q 112 490 132 512 q 93 437 93 469 l 8 441 q 50 562 8 515 q 154 608 92 608 q 221 592 193 608 q 273 560 249 575 q 336 544 300 544 q 384 566 364 544 q 404 620 404 588 z "},"ɬ":{"ha":602,"x_min":21,"x_max":587,"o":"m 433 0 l 307 0 l 307 390 l 211 390 q 76 436 130 390 q 21 568 21 481 q 76 696 21 646 q 222 747 132 747 q 307 734 269 747 l 307 1042 l 433 1042 l 433 493 l 587 493 l 587 390 l 433 390 l 433 0 m 307 493 l 307 562 q 287 620 307 597 q 220 644 266 644 q 166 622 186 644 q 146 568 146 600 q 168 515 146 536 q 226 493 189 493 l 307 493 z "},"ɭ":{"ha":452,"x_min":145,"x_max":416,"o":"m 145 1042 l 271 1042 l 271 -99 q 376 -206 274 -206 q 416 -201 397 -206 l 416 -288 q 349 -296 387 -296 q 205 -243 264 -296 q 145 -92 145 -191 l 145 1042 z "},"ɮ":{"ha":843,"x_min":106,"x_max":756,"o":"m 313 193 l 313 295 l 577 631 l 232 631 l 232 0 l 106 0 l 106 1042 l 232 1042 l 232 734 l 724 734 l 725 654 l 442 292 q 674 208 593 284 q 756 -7 756 131 q 662 -221 756 -145 q 424 -296 568 -296 q 217 -242 307 -296 q 106 -63 126 -189 l 232 -63 q 291 -157 244 -121 q 424 -193 338 -193 q 576 -141 522 -193 q 631 -9 631 -90 q 574 145 631 98 q 409 193 517 193 l 313 193 z "},"ɯ":{"ha":1218,"x_min":94,"x_max":1123,"o":"m 1004 0 l 1000 81 q 783 -14 922 -14 q 573 104 629 -14 q 478 19 536 51 q 340 -14 419 -14 q 159 49 223 -14 q 94 249 95 111 l 94 734 l 220 734 l 220 250 q 262 125 220 158 q 377 92 305 92 q 496 137 453 92 q 546 247 539 182 l 546 734 l 672 734 l 672 251 q 715 129 672 165 q 829 92 758 92 q 998 197 952 92 l 998 734 l 1123 734 l 1123 0 l 1004 0 z "},"ɰ":{"ha":1218,"x_min":94,"x_max":1123,"o":"m 1123 734 l 1123 -282 l 998 -282 l 998 77 q 783 -14 918 -14 q 573 104 629 -14 q 478 19 536 51 q 340 -14 419 -14 q 159 49 223 -14 q 94 249 95 111 l 94 734 l 220 734 l 220 250 q 262 125 220 158 q 377 92 305 92 q 496 137 453 92 q 546 247 539 182 l 546 734 l 672 734 l 672 251 q 715 129 672 165 q 829 92 758 92 q 998 197 952 92 l 998 734 l 1123 734 z "},"ɱ":{"ha":1218,"x_min":94,"x_max":1124,"o":"m 878 747 q 1060 684 996 747 q 1124 482 1124 621 l 1124 -92 q 1064 -243 1124 -191 q 920 -296 1004 -296 q 852 -286 884 -296 l 853 -199 q 893 -205 871 -205 q 998 -99 995 -205 l 998 484 q 955 609 998 576 q 841 642 913 642 q 722 596 765 642 q 671 487 678 551 l 671 0 l 546 0 l 546 483 q 503 605 546 569 q 389 642 460 642 q 220 538 266 642 l 220 0 l 94 0 l 94 734 l 214 734 l 217 654 q 434 747 296 747 q 560 719 505 747 q 644 629 615 691 q 740 715 681 682 q 878 747 798 747 z "},"ɲ":{"ha":809,"x_min":-8,"x_max":715,"o":"m 442 642 q 336 609 382 642 q 263 524 290 576 l 263 -92 q 203 -243 263 -191 q 60 -296 144 -296 q -8 -286 24 -296 l -7 -199 q 33 -205 12 -205 q 138 -99 135 -205 l 138 734 l 256 734 l 260 642 q 479 747 344 747 q 651 687 587 747 q 715 484 714 627 l 715 0 l 589 0 l 589 482 q 552 605 589 568 q 442 642 514 642 z "},"ɳ":{"ha":810,"x_min":96,"x_max":819,"o":"m 437 747 q 609 686 546 747 q 673 481 673 625 l 673 -99 q 777 -206 675 -206 q 817 -201 800 -206 l 819 -288 q 750 -296 788 -296 q 606 -243 666 -296 q 547 -92 547 -191 l 547 482 q 509 605 547 568 q 400 642 471 642 q 294 609 340 642 q 221 524 248 576 l 221 0 l 96 0 l 96 734 l 214 734 l 218 642 q 437 747 302 747 z "},"ɴ":{"ha":780,"x_min":95,"x_max":684,"o":"m 95 0 l 95 734 l 221 734 l 559 196 l 559 734 l 684 734 l 684 0 l 559 0 l 221 538 l 221 0 l 95 0 z "},"ɶ":{"ha":1166,"x_min":84,"x_max":1107,"o":"m 1107 102 l 1107 0 l 664 0 q 534 -7 591 0 q 418 -14 476 -14 q 174 93 264 -14 q 84 359 84 199 l 84 374 q 174 641 84 534 q 417 747 263 747 q 534 741 475 747 q 665 734 592 734 l 1107 734 l 1107 632 l 705 632 l 705 422 l 1048 422 l 1048 321 l 705 321 l 705 102 l 1107 102 m 210 359 q 261 170 210 250 q 418 90 313 90 l 460 90 l 579 99 l 579 635 l 459 644 l 417 644 q 261 563 313 644 q 210 374 210 482 l 210 359 z "},"ɷ":{"ha":1143,"x_min":83,"x_max":1059,"o":"m 1059 338 q 1033 174 1059 255 q 947 39 1006 93 q 791 -14 888 -14 q 572 147 628 -14 q 352 -14 515 -14 q 195 39 254 -14 q 110 173 136 93 q 83 336 83 254 q 132 529 83 434 q 287 685 180 623 q 571 747 394 747 l 571 747 l 572 747 l 572 747 l 572 747 q 856 685 749 747 q 1011 529 963 623 q 1059 338 1059 435 m 509 452 l 634 452 l 634 311 q 678 140 635 191 q 785 89 721 89 q 872 127 839 89 q 919 223 905 165 q 934 337 934 280 q 854 553 934 463 q 571 644 775 644 q 289 553 368 644 q 210 337 210 463 q 224 223 210 280 q 271 127 239 165 q 358 89 304 89 q 466 141 422 89 q 509 319 509 194 l 509 452 z "},"ɸ":{"ha":792,"x_min":62,"x_max":730,"o":"m 730 359 q 658 115 730 216 q 458 -8 585 13 l 458 -282 l 333 -282 l 333 -8 q 136 114 208 14 q 62 353 64 214 l 62 374 q 135 618 62 517 q 333 742 207 720 l 333 1042 l 458 1042 l 458 742 q 657 620 585 720 q 730 380 729 519 l 730 359 m 188 359 q 224 195 188 268 q 333 98 260 123 l 333 635 q 224 537 260 610 q 188 374 188 465 l 188 359 m 604 374 q 568 537 604 465 q 458 635 531 610 l 458 98 q 568 195 531 122 q 604 359 604 267 l 604 374 z "},"ɹ":{"ha":471,"x_min":20,"x_max":376,"o":"m 254 0 l 251 84 q 76 -14 191 -14 q 20 -4 41 -14 l 21 113 q 82 107 49 107 q 250 213 205 107 l 250 734 l 376 734 l 376 0 l 254 0 z "},"ɺ":{"ha":471,"x_min":20,"x_max":376,"o":"m 254 0 l 251 84 q 76 -14 191 -14 q 20 -4 41 -14 l 21 113 q 82 107 49 107 q 250 213 205 107 l 250 1042 l 376 1042 l 376 0 l 254 0 z "},"ɻ":{"ha":513,"x_min":20,"x_max":521,"o":"m 250 734 l 376 734 l 376 -99 q 480 -206 378 -206 q 520 -201 501 -206 l 521 -288 q 453 -296 491 -296 q 309 -243 369 -296 q 250 -92 250 -191 l 250 83 q 76 -14 190 -14 q 20 -4 41 -14 l 21 113 q 82 107 49 107 q 250 213 205 107 l 250 734 z "},"ɼ":{"ha":471,"x_min":96,"x_max":450,"o":"m 389 627 q 221 521 266 627 l 221 -282 l 96 -282 l 96 734 l 218 734 l 220 650 q 395 747 281 747 q 450 738 430 747 l 450 621 q 389 627 422 627 z "},"ɽ":{"ha":471,"x_min":96,"x_max":450,"o":"m 389 627 q 221 521 266 627 l 221 -92 q 326 -206 221 -206 q 366 -201 348 -206 l 367 -288 q 298 -296 336 -296 q 155 -243 214 -296 q 96 -92 96 -191 l 96 734 l 218 734 l 220 650 q 395 747 281 747 q 450 738 430 747 l 450 621 q 389 627 422 627 z "},"ɾ":{"ha":387,"x_min":96,"x_max":367,"o":"m 221 0 l 96 0 l 96 543 q 155 694 96 642 q 298 747 214 747 q 367 737 335 747 l 366 650 q 326 656 347 656 q 248 630 275 656 q 221 543 221 605 l 221 0 z "},"ɿ":{"ha":387,"x_min":20,"x_max":292,"o":"m 292 -282 l 166 -282 l 166 550 q 62 657 163 657 q 21 652 40 657 l 20 739 q 88 747 50 747 q 232 694 172 747 q 292 543 292 642 l 292 -282 z "},"ʀ":{"ha":760,"x_min":77,"x_max":701,"o":"m 565 0 l 392 286 l 203 286 l 203 0 l 77 0 l 77 734 l 384 734 q 589 670 517 734 q 662 510 662 606 q 624 384 662 439 q 516 304 587 330 l 701 0 l 565 0 m 203 632 l 203 389 l 399 389 q 504 426 471 389 q 536 509 536 464 q 500 593 536 555 q 384 632 464 632 l 203 632 z "},"ʁ":{"ha":760,"x_min":77,"x_max":701,"o":"m 662 224 q 589 64 662 127 q 384 0 517 0 l 77 0 l 77 734 l 203 734 l 203 448 l 392 448 l 565 734 l 701 734 l 516 429 q 624 350 587 404 q 662 224 662 295 m 203 102 l 384 102 q 500 140 464 102 q 536 225 536 179 q 504 308 536 270 q 399 345 471 345 l 203 345 l 203 102 z "},"ʂ":{"ha":717,"x_min":64,"x_max":648,"o":"m 336 -286 q 268 -296 304 -296 q 124 -243 184 -296 q 64 -92 64 -191 l 64 227 l 191 227 q 251 119 195 149 q 365 90 307 90 q 482 119 441 90 q 523 195 523 149 q 493 267 523 235 q 357 321 464 299 q 162 394 235 346 q 90 533 90 441 q 164 684 90 620 q 361 747 238 747 q 567 680 493 747 q 641 518 641 613 l 515 518 q 475 604 515 564 q 361 644 435 644 q 250 610 283 644 q 216 536 216 576 q 247 472 216 496 q 381 424 279 447 q 582 344 516 393 q 648 204 648 294 q 571 47 648 107 q 365 -14 493 -14 q 191 27 264 -14 l 191 -99 q 295 -205 193 -205 q 335 -199 317 -205 l 336 -286 z "},"ʃ":{"ha":570,"x_min":20,"x_max":550,"o":"m 475 949 q 348 811 348 949 l 348 -52 q 283 -233 348 -170 q 106 -296 219 -296 q 20 -286 65 -296 l 27 -183 q 95 -189 56 -189 q 222 -52 222 -189 l 222 811 q 287 993 222 930 q 464 1056 351 1056 q 550 1045 505 1056 l 543 943 q 475 949 515 949 z "},"ʄ":{"ha":570,"x_min":20,"x_max":550,"o":"m 475 949 q 348 811 348 949 l 348 -52 q 283 -233 348 -170 q 106 -296 219 -296 q 20 -286 65 -296 l 27 -183 q 95 -189 56 -189 q 222 -52 222 -189 l 222 811 q 287 993 222 930 q 464 1056 351 1056 q 550 1045 505 1056 l 543 943 q 475 949 515 949 m 503 102 l 503 -1 l 71 -1 l 71 102 l 503 102 z "},"ʅ":{"ha":570,"x_min":20,"x_max":550,"o":"m 106 747 q 283 684 219 747 q 348 503 348 621 l 348 -53 q 475 -189 349 -189 q 543 -183 515 -189 l 550 -286 q 464 -296 505 -296 q 287 -233 351 -296 q 222 -52 222 -170 l 222 504 q 95 640 222 640 q 27 634 56 640 l 20 736 q 106 747 65 747 z "},"ʆ":{"ha":635,"x_min":20,"x_max":633,"o":"m 559 949 q 431 811 431 949 l 431 -39 l 580 -193 l 505 -268 l 418 -172 q 352 -261 399 -225 q 221 -296 305 -296 q 75 -246 130 -296 q 20 -118 20 -195 q 74 15 20 -31 q 210 60 129 60 q 306 42 258 60 l 306 811 q 370 993 306 930 q 547 1056 434 1056 q 633 1045 588 1056 l 627 943 q 559 949 598 949 m 145 -118 q 145 -134 145 -118 q 165 -172 145 -150 q 220 -193 186 -193 q 306 -105 306 -193 l 306 -70 q 224 -43 264 -43 q 166 -64 188 -43 q 145 -118 145 -86 z "},"ʇ":{"ha":454,"x_min":48,"x_max":448,"o":"m 448 178 l 314 178 l 314 0 l 189 0 l 189 178 l 52 178 l 52 275 l 189 275 l 189 730 q 164 802 189 786 q 108 818 140 818 q 49 810 84 818 l 48 911 q 144 926 93 926 q 264 883 214 926 q 314 729 314 840 l 314 275 l 448 275 l 448 178 z "},"ʈ":{"ha":459,"x_min":6,"x_max":412,"o":"m 412 -288 q 344 -296 382 -296 q 200 -243 259 -296 q 140 -92 140 -191 l 140 637 l 6 637 l 6 734 l 140 734 l 140 912 l 266 912 l 266 734 l 403 734 l 403 637 l 266 637 l 266 -92 q 370 -206 266 -206 q 411 -201 392 -206 l 412 -288 z "},"ʉ":{"ha":878,"x_min":15,"x_max":863,"o":"m 608 0 l 606 73 q 391 -14 533 -14 q 216 50 283 -14 q 150 260 150 114 l 150 334 l 15 334 l 15 437 l 150 437 l 150 734 l 275 734 l 275 437 l 602 437 l 602 734 l 728 734 l 728 437 l 863 437 l 863 334 l 728 334 l 728 0 l 608 0 m 275 259 q 317 126 275 160 q 411 93 359 93 q 602 200 554 93 l 602 334 l 275 334 l 275 259 z "},"ʊ":{"ha":847,"x_min":72,"x_max":774,"o":"m 423 89 q 568 123 519 89 q 632 206 616 158 q 649 292 649 254 q 625 407 649 356 q 577 501 601 458 q 553 586 554 544 l 553 589 q 565 649 553 612 q 623 717 577 687 q 772 747 669 747 l 772 645 q 713 633 746 645 q 680 573 680 621 q 703 493 680 532 q 751 403 727 455 q 774 268 774 351 q 745 136 774 201 q 640 28 716 71 q 423 -14 564 -14 q 207 28 283 -14 q 101 136 131 71 q 72 268 72 201 q 96 403 72 351 q 143 493 119 455 q 168 573 168 532 q 134 633 168 621 q 75 645 100 645 l 75 747 q 224 717 178 747 q 282 649 270 687 q 294 589 294 612 q 269 501 294 545 q 222 407 245 456 q 198 296 199 358 l 198 292 q 214 206 198 254 q 279 123 231 158 q 423 89 328 89 z "},"ʋ":{"ha":743,"x_min":93,"x_max":651,"o":"m 372 93 q 404 93 372 93 q 480 134 436 93 q 525 296 524 176 l 525 547 q 463 633 525 633 q 379 618 429 633 l 363 717 q 513 747 446 747 q 629 683 607 747 q 651 543 651 618 l 651 302 q 573 60 651 134 q 372 -14 495 -14 q 171 60 249 -14 q 93 299 94 133 l 93 734 l 218 734 l 218 296 q 263 134 219 176 q 372 93 307 93 z "},"ʌ":{"ha":673,"x_min":24,"x_max":650,"o":"m 24 0 l 288 734 l 384 734 l 650 0 l 521 0 l 334 562 l 153 0 l 24 0 z "},"ʍ":{"ha":1041,"x_min":29,"x_max":1011,"o":"m 720 468 l 571 0 l 470 0 l 321 468 l 298 575 l 279 468 l 155 0 l 29 0 l 243 734 l 345 734 l 488 283 l 519 149 l 551 283 l 696 734 l 798 734 l 1011 0 l 886 0 l 768 468 l 745 585 l 720 468 z "},"ʎ":{"ha":657,"x_min":15,"x_max":640,"o":"m 503 0 l 320 550 l 149 0 l 15 0 l 305 833 q 507 1029 370 1019 l 528 1030 q 598 1019 566 1030 l 598 918 l 564 920 q 465 894 500 920 q 406 800 429 868 l 378 726 l 640 0 l 503 0 z "},"ʏ":{"ha":724,"x_min":9,"x_max":715,"o":"m 715 733 l 423 247 l 423 0 l 298 0 l 298 252 l 9 733 l 151 733 l 363 357 l 574 733 l 715 733 z "},"ʐ":{"ha":760,"x_min":60,"x_max":768,"o":"m 623 645 l 214 103 l 623 103 l 623 -99 q 726 -205 625 -205 q 766 -199 748 -205 l 768 -286 q 699 -296 736 -296 q 534 -100 538 -296 l 534 0 l 60 0 l 60 92 l 465 630 l 66 630 l 66 734 l 623 734 l 623 645 z "},"ʑ":{"ha":831,"x_min":60,"x_max":810,"o":"m 810 223 q 727 62 810 125 q 530 0 644 0 l 378 0 l 285 -138 l 195 -71 l 245 0 l 60 0 l 60 92 l 465 630 l 66 630 l 66 734 l 623 734 l 623 645 l 214 103 l 317 103 q 476 310 409 237 q 638 382 543 382 q 767 337 723 382 q 810 223 810 292 m 630 278 q 543 231 585 278 q 446 103 500 184 l 530 103 q 644 133 595 103 q 693 214 693 162 q 630 278 693 278 z "},"ʒ":{"ha":784,"x_min":60,"x_max":709,"o":"m 377 -296 q 170 -240 262 -296 q 60 -32 79 -183 l 186 -32 q 244 -146 196 -100 q 377 -193 292 -193 q 530 -141 476 -193 q 584 -9 584 -90 q 527 145 584 98 q 362 193 471 193 l 266 193 l 266 295 l 530 631 l 88 631 l 88 734 l 677 734 l 678 654 l 394 291 l 410 290 q 632 206 554 285 q 709 -7 709 127 q 616 -221 709 -145 q 377 -296 522 -296 z "},"ʓ":{"ha":764,"x_min":60,"x_max":750,"o":"m 361 -296 q 143 -239 227 -296 q 60 -83 60 -182 q 120 43 60 -6 q 271 92 181 92 q 435 53 363 92 q 578 -48 507 14 q 584 -9 584 -33 q 527 145 584 98 q 363 193 471 193 l 266 193 l 266 295 l 530 631 l 88 631 l 88 734 l 677 734 l 679 654 l 395 291 l 410 290 q 632 206 555 285 q 710 -6 710 127 q 677 -143 710 -84 l 750 -214 l 669 -296 l 604 -228 q 361 -296 512 -296 m 360 -193 q 522 -146 463 -193 q 399 -50 462 -90 q 274 -10 337 -10 q 207 -33 229 -10 q 185 -91 185 -56 q 236 -170 185 -147 q 360 -193 286 -193 z "},"ʔ":{"ha":727,"x_min":45,"x_max":664,"o":"m 264 0 l 264 370 l 343 370 q 482 434 433 372 q 538 608 531 496 l 538 690 q 521 814 538 754 q 459 914 503 875 q 338 953 416 953 q 220 912 270 953 q 164 810 170 872 l 45 810 q 136 982 50 909 q 338 1056 221 1056 q 584 946 503 1056 q 664 690 664 837 l 664 634 q 597 396 664 500 q 395 272 531 292 l 395 0 l 264 0 z "},"ʕ":{"ha":727,"x_min":63,"x_max":682,"o":"m 448 370 l 448 0 l 321 0 l 321 272 q 127 398 191 295 q 63 632 63 500 l 63 691 q 143 948 63 838 q 389 1057 224 1057 q 597 981 518 1057 q 682 791 677 905 l 562 791 q 511 907 557 859 q 389 954 465 954 q 268 915 312 954 q 207 815 224 876 q 189 691 189 755 l 189 632 q 225 461 189 541 q 363 370 262 381 l 448 370 z "},"ʖ":{"ha":727,"x_min":45,"x_max":664,"o":"m 664 353 q 584 96 664 205 q 338 -14 503 -14 q 130 63 209 -14 q 45 252 50 139 l 164 252 q 216 137 170 184 q 338 90 262 90 q 459 129 415 90 q 520 229 503 168 q 538 353 538 289 l 538 412 q 503 581 538 501 q 370 673 467 660 l 279 673 l 279 1041 l 405 1041 l 405 772 q 600 646 536 749 q 664 412 664 543 l 664 353 z "},"ʗ":{"ha":727,"x_min":63,"x_max":682,"o":"m 389 -193 q 507 -153 456 -193 q 562 -51 557 -113 l 682 -51 q 591 -223 677 -149 q 389 -296 506 -296 q 143 -187 224 -296 q 63 70 63 -77 l 63 381 q 143 638 63 529 q 389 747 224 747 q 597 671 518 747 q 682 481 677 595 l 562 481 q 511 597 557 549 q 389 644 465 644 q 268 605 312 644 q 207 505 224 566 q 189 381 189 445 l 189 70 q 206 -55 189 5 q 268 -154 224 -115 q 389 -193 311 -193 z "},"ʘ":{"ha":956,"x_min":81,"x_max":875,"o":"m 875 463 q 767 113 875 240 q 479 -14 659 -14 q 192 113 303 -14 q 81 463 81 240 l 81 525 q 191 874 81 747 q 477 1001 302 1001 q 765 876 656 1001 q 875 533 873 751 l 875 463 m 745 526 q 675 796 745 703 q 477 890 604 890 q 283 796 356 890 q 210 526 210 703 l 210 463 q 284 191 210 285 q 479 97 357 97 q 676 191 606 97 q 745 463 745 285 l 745 526 m 401 496 q 420 550 401 528 q 478 572 440 572 q 537 550 517 572 q 557 496 557 528 q 537 444 557 465 q 478 422 517 422 q 420 444 440 422 q 401 496 401 465 z "},"ʚ":{"ha":725,"x_min":68,"x_max":659,"o":"m 659 377 l 659 377 q 612 136 659 220 q 495 19 566 51 q 351 -14 424 -14 q 147 45 227 -14 q 68 207 68 103 q 195 378 68 334 q 81 534 81 429 q 154 692 81 637 q 351 747 227 747 q 499 714 429 747 q 614 601 570 682 q 659 378 659 521 l 659 378 l 659 377 l 659 377 m 422 428 l 422 321 l 339 321 q 194 206 194 319 q 234 123 194 159 q 351 87 274 87 q 486 157 437 87 q 534 377 534 226 q 480 586 534 527 q 351 645 427 645 q 240 611 273 645 q 207 534 207 576 q 335 428 207 431 l 422 428 z "},"ʛ":{"ha":863,"x_min":63,"x_max":871,"o":"m 740 107 q 632 29 716 72 q 413 -14 548 -14 q 160 78 258 -14 q 63 313 63 169 l 63 423 q 161 657 63 567 q 410 747 258 747 q 648 669 567 747 q 802 781 681 781 q 871 771 838 781 l 869 685 q 829 690 853 690 q 725 584 728 690 l 725 501 l 725 501 l 725 500 l 600 500 q 410 646 581 646 q 250 582 311 646 q 189 424 189 518 l 189 313 q 249 153 189 218 q 413 88 309 88 q 542 106 496 88 q 604 138 587 124 l 604 269 l 424 269 l 424 372 l 740 372 l 740 107 z "},"ʝ":{"ha":574,"x_min":20,"x_max":561,"o":"m 296 928 q 315 980 296 959 q 370 1001 334 1001 q 425 980 406 1001 q 444 928 444 959 q 425 879 444 899 q 370 858 406 858 q 315 879 334 858 q 296 928 296 899 m 306 734 l 431 734 l 431 60 l 561 60 l 561 -43 l 431 -43 l 431 -83 q 385 -231 431 -166 q 220 -296 338 -296 q 75 -246 130 -296 q 20 -118 20 -195 q 74 15 20 -31 q 210 60 129 60 l 306 60 l 306 734 m 219 -193 q 306 -105 306 -193 l 306 -43 l 224 -43 q 166 -64 188 -43 q 145 -118 145 -86 q 165 -172 145 -150 q 219 -193 185 -193 z "},"ʞ":{"ha":704,"x_min":1,"x_max":608,"o":"m 608 734 l 608 -282 l 483 -282 l 483 322 l 415 241 l 187 0 l 35 0 l 320 307 l 1 734 l 149 734 l 404 394 l 483 476 l 483 734 l 608 734 z "},"ʟ":{"ha":610,"x_min":95,"x_max":583,"o":"m 583 102 l 583 0 l 95 0 l 95 734 l 221 734 l 221 102 l 583 102 z "},"ʠ":{"ha":821,"x_min":64,"x_max":829,"o":"m 788 842 q 684 736 686 842 l 684 -282 l 557 -282 l 557 68 q 355 -14 482 -14 q 142 92 220 -14 q 64 359 64 198 l 64 373 q 142 644 64 541 q 357 747 219 747 q 557 665 482 747 l 557 728 q 617 880 557 827 q 761 933 677 933 q 829 922 794 933 l 828 836 q 788 842 810 842 m 191 359 q 238 169 191 250 q 387 89 285 89 q 557 188 498 89 l 557 548 q 388 644 498 644 q 238 563 285 644 q 191 372 191 482 l 191 359 z "},"ʡ":{"ha":727,"x_min":45,"x_max":664,"o":"m 111 205 l 264 205 l 264 370 l 343 370 q 482 434 433 372 q 538 608 531 496 l 538 690 q 521 814 538 754 q 459 914 503 875 q 338 953 416 953 q 220 912 270 953 q 164 810 170 872 l 45 810 q 136 982 50 909 q 338 1056 221 1056 q 584 946 503 1056 q 664 690 664 837 l 664 634 q 597 396 664 500 q 395 272 531 292 l 395 205 l 543 205 l 543 103 l 395 103 l 395 0 l 264 0 l 264 103 l 111 103 l 111 205 z "},"ʢ":{"ha":727,"x_min":63,"x_max":682,"o":"m 448 370 l 448 0 l 321 0 l 321 272 q 127 398 191 295 q 63 632 63 500 l 63 691 q 143 948 63 838 q 389 1057 224 1057 q 597 981 518 1057 q 682 791 677 905 l 562 791 q 511 907 557 859 q 389 954 465 954 q 268 915 312 954 q 207 815 224 876 q 189 691 189 755 l 189 632 q 225 461 189 541 q 363 370 262 381 l 448 370 m 600 206 l 600 103 l 168 103 l 168 206 l 600 206 z "},"ʣ":{"ha":1313,"x_min":64,"x_max":1266,"o":"m 684 92 l 1088 630 l 684 630 l 684 92 m 191 359 q 237 171 191 250 q 385 93 283 93 q 558 199 501 93 l 558 537 q 386 642 502 642 q 237 562 283 642 q 191 373 191 482 l 191 359 m 684 1042 l 684 734 l 1246 734 l 1246 645 l 838 103 l 1266 103 l 1266 0 l 569 0 l 563 79 q 353 -14 488 -14 q 145 91 224 -14 q 64 353 66 195 l 64 373 q 144 644 64 541 q 355 747 224 747 q 558 661 484 747 l 558 1042 l 684 1042 z "},"ʤ":{"ha":1282,"x_min":64,"x_max":1208,"o":"m 765 193 l 765 295 l 1029 631 l 684 631 l 684 0 l 569 0 l 563 79 q 353 -14 488 -14 q 145 91 224 -14 q 64 353 66 195 l 64 373 q 144 644 64 541 q 355 747 224 747 q 558 661 484 747 l 558 1042 l 684 1042 l 684 734 l 1177 734 l 1177 654 l 895 292 q 1126 208 1044 284 q 1208 -7 1208 131 q 1115 -221 1208 -145 q 876 -296 1021 -296 q 669 -244 760 -296 q 558 -64 578 -191 l 684 -64 q 742 -158 695 -123 q 876 -193 789 -193 q 1028 -141 975 -193 q 1082 -9 1082 -90 q 1026 145 1082 98 q 861 193 969 193 l 765 193 m 191 359 q 237 171 191 250 q 385 93 283 93 q 558 199 501 93 l 558 537 q 386 642 502 642 q 237 562 283 642 q 191 373 191 482 l 191 359 z "},"ʥ":{"ha":1454,"x_min":64,"x_max":1434,"o":"m 1434 223 q 1350 62 1434 125 q 1154 0 1267 0 l 999 0 l 908 -138 l 818 -71 l 867 0 l 569 0 l 563 79 q 353 -14 488 -14 q 145 91 224 -14 q 64 353 66 195 l 64 373 q 144 644 64 541 q 355 747 224 747 q 558 661 484 747 l 558 1042 l 684 1042 l 684 734 l 1246 734 l 1246 645 l 838 103 l 940 103 q 1099 310 1032 237 q 1261 382 1166 382 q 1390 337 1345 382 q 1434 223 1434 292 m 191 359 q 237 171 191 250 q 385 93 283 93 q 558 199 501 93 l 558 537 q 386 642 502 642 q 237 562 283 642 q 191 373 191 482 l 191 359 m 684 630 l 684 93 l 1088 630 l 684 630 m 1253 278 q 1165 231 1209 278 q 1067 103 1122 184 l 1154 103 q 1267 133 1218 103 q 1316 219 1316 163 q 1253 278 1316 278 z "},"ʦ":{"ha":974,"x_min":6,"x_max":905,"o":"m 905 204 q 828 54 905 107 q 622 0 750 0 l 309 0 q 190 50 239 0 q 140 216 140 99 l 140 637 l 6 637 l 6 734 l 140 734 l 140 912 l 266 912 l 266 734 l 518 734 q 618 747 565 747 q 824 680 750 747 q 898 518 898 613 l 772 518 q 733 604 772 564 q 618 644 693 644 q 506 610 540 644 q 473 536 473 576 q 508 468 473 491 q 633 426 544 446 q 839 345 772 395 q 905 204 905 294 m 266 215 q 290 130 266 151 q 347 108 315 108 l 622 108 q 780 195 780 108 q 750 267 780 233 q 614 321 720 300 q 418 395 489 346 q 347 533 347 444 q 378 637 347 589 l 266 637 l 266 215 z "},"ʧ":{"ha":741,"x_min":6,"x_max":720,"o":"m 646 949 q 518 811 518 949 l 518 -52 q 454 -233 518 -170 q 277 -296 389 -296 q 191 -286 235 -296 l 197 -183 q 265 -189 226 -189 q 393 -56 391 -189 l 393 -7 q 318 -14 354 -14 q 179 43 218 -14 q 140 202 140 100 l 140 637 l 6 637 l 6 734 l 140 734 l 140 912 l 266 912 l 266 734 l 393 734 l 393 816 q 458 994 394 932 q 634 1056 522 1056 q 720 1045 675 1056 l 713 943 q 646 949 685 949 m 266 201 q 284 117 266 140 q 348 94 302 94 l 393 98 l 393 637 l 266 637 l 266 201 z "},"ʨ":{"ha":1073,"x_min":6,"x_max":1027,"o":"m 266 201 q 290 116 266 138 q 347 94 315 94 q 458 140 393 94 q 408 353 408 231 l 408 381 q 489 638 408 529 q 735 747 570 747 q 943 671 864 747 q 1027 481 1023 595 l 908 481 q 857 597 903 549 q 735 644 810 644 q 614 605 658 644 q 552 505 570 566 q 534 381 534 445 l 534 353 q 555 218 534 275 q 697 322 622 273 q 857 372 772 372 q 983 327 939 372 q 1027 212 1027 282 q 940 48 1027 111 q 738 -14 852 -14 q 523 61 606 -14 q 309 -14 414 -14 q 190 36 239 -14 q 140 202 140 85 l 140 637 l 6 637 l 6 734 l 140 734 l 140 912 l 266 912 l 266 734 l 403 734 l 403 637 l 266 637 l 266 201 m 836 267 q 727 225 781 267 q 612 131 673 183 q 738 89 661 89 q 856 118 803 89 q 909 199 909 147 q 886 252 909 237 q 836 267 863 267 z "},"ʩ":{"ha":1154,"x_min":41,"x_max":1060,"o":"m 825 747 q 997 680 933 747 q 1060 460 1060 612 l 1060 -43 q 1000 -195 1060 -142 q 857 -248 941 -248 q 789 -238 821 -248 l 789 -151 q 829 -157 805 -157 q 934 -51 931 -157 l 934 461 q 787 642 934 642 q 681 609 727 642 q 608 524 635 576 l 608 0 l 483 0 l 483 637 l 283 637 l 283 0 l 157 0 l 157 637 l 41 637 l 41 734 l 157 734 l 157 816 q 223 994 159 932 q 398 1056 287 1056 q 485 1045 439 1056 l 478 943 q 410 949 450 949 q 283 815 285 949 l 283 734 l 608 734 l 608 646 q 825 747 692 747 z "},"ʪ":{"ha":913,"x_min":106,"x_max":844,"o":"m 844 204 q 767 47 844 107 q 562 -14 690 -14 q 399 5 487 -14 q 232 73 312 24 l 232 0 l 106 0 l 106 1042 l 232 1042 l 232 205 q 418 111 328 132 q 562 89 508 89 q 679 119 639 89 q 719 195 719 149 q 686 270 719 241 q 557 319 653 298 q 358 395 429 347 q 286 533 286 443 q 360 684 286 620 q 557 747 434 747 q 763 680 689 747 q 838 518 838 613 l 711 518 q 672 604 711 564 q 557 644 632 644 q 445 610 479 644 q 412 536 412 576 q 448 468 412 493 q 576 424 484 444 q 729 374 668 405 q 817 302 790 344 q 844 204 844 261 z "},"ʫ":{"ha":861,"x_min":106,"x_max":814,"o":"m 232 1042 l 232 734 l 795 734 l 795 645 l 355 103 l 814 103 l 814 0 l 106 0 l 106 1042 l 232 1042 m 232 630 l 232 133 l 635 630 l 232 630 z "},"ʬ":{"ha":627,"x_min":31,"x_max":596,"o":"m 596 987 l 480 591 l 399 591 l 314 868 l 228 591 l 146 591 l 31 987 l 129 987 l 189 713 l 273 987 l 355 987 l 439 713 l 498 987 l 596 987 m 596 397 l 480 0 l 399 0 l 314 277 l 228 0 l 146 0 l 31 397 l 129 397 l 189 122 l 273 397 l 355 397 l 439 122 l 498 397 l 596 397 z "},"ʭ":{"ha":657,"x_min":57,"x_max":600,"o":"m 57 593 l 57 987 l 600 987 l 600 593 l 505 593 l 505 907 l 153 907 l 153 593 l 57 593 m 57 0 l 57 394 l 600 394 l 600 0 l 505 0 l 505 315 l 153 315 l 153 0 l 57 0 z "},"ʮ":{"ha":871,"x_min":20,"x_max":765,"o":"m 99 747 q 254 686 195 747 q 313 511 313 625 l 313 293 q 354 134 313 174 q 447 93 395 93 q 576 135 530 93 q 639 243 622 178 l 639 734 l 765 734 l 765 -282 l 639 -282 l 639 83 q 427 -14 566 -14 q 253 59 319 -14 q 186 299 186 132 l 186 511 q 155 611 186 582 q 67 640 123 640 q 21 634 41 640 l 20 735 q 99 747 57 747 z "},"ʯ":{"ha":882,"x_min":20,"x_max":890,"o":"m 619 734 l 745 734 l 745 -99 q 849 -206 747 -206 q 889 -201 871 -206 l 890 -288 q 822 -296 860 -296 q 679 -243 738 -296 q 619 -92 619 -191 l 619 84 q 407 -14 547 -14 q 233 59 298 -14 q 167 299 167 132 l 167 401 l 166 401 l 166 550 q 62 657 163 657 q 21 652 40 657 l 20 739 q 88 747 50 747 q 232 694 172 747 q 292 543 292 642 l 292 293 q 334 134 293 174 q 427 93 376 93 q 557 136 511 93 q 619 245 603 179 l 619 734 z "},"ʰ":{"ha":572,"x_min":69,"x_max":503,"o":"m 290 897 q 184 821 214 897 l 184 441 l 69 441 l 69 1224 l 184 1224 l 184 913 q 327 994 237 994 q 455 945 407 994 q 503 786 503 896 l 503 441 l 387 441 l 387 776 q 290 897 384 897 z "},"ʱ":{"ha":572,"x_min":69,"x_max":503,"o":"m 290 897 q 184 821 214 897 l 184 441 l 69 441 l 69 1070 q 90 1181 69 1139 q 172 1224 111 1224 q 271 1211 218 1224 l 271 1103 q 220 1109 234 1109 q 184 1067 186 1109 l 184 913 q 327 994 237 994 q 455 945 407 994 q 503 786 503 896 l 503 441 l 387 441 l 387 776 q 290 897 384 897 z "},"ʲ":{"ha":310,"x_min":21,"x_max":241,"o":"m 104 1128 q 122 1176 104 1156 q 172 1196 139 1196 q 223 1176 206 1196 q 241 1128 241 1156 q 223 1083 241 1101 q 172 1064 206 1064 q 122 1083 139 1064 q 104 1128 104 1101 m 118 985 l 233 985 l 233 422 q 199 279 233 336 q 79 222 164 222 q 21 231 47 222 l 22 331 q 56 327 34 327 q 104 348 91 327 q 118 422 118 369 l 118 985 z "},"ʳ":{"ha":375,"x_min":69,"x_max":348,"o":"m 281 884 q 184 817 212 884 l 184 441 l 69 441 l 69 984 l 157 984 l 176 905 q 300 994 222 994 q 348 989 333 994 l 348 869 q 281 884 312 884 z "},"ʴ":{"ha":375,"x_min":27,"x_max":306,"o":"m 219 441 l 200 520 q 75 431 153 431 q 27 437 42 431 l 27 557 q 95 542 60 542 q 191 607 163 542 l 191 984 l 306 984 l 306 441 l 219 441 z "},"ʵ":{"ha":419,"x_min":27,"x_max":392,"o":"m 392 238 q 293 224 339 224 q 211 268 232 224 q 191 378 191 311 l 191 504 q 75 431 145 431 q 27 437 42 431 l 27 557 q 95 542 60 542 q 191 607 163 542 l 191 984 l 306 984 l 306 385 q 342 340 306 340 q 392 347 365 340 l 392 238 z "},"ʶ":{"ha":593,"x_min":69,"x_max":551,"o":"m 515 620 q 461 495 515 549 q 309 441 407 441 l 69 441 l 69 984 l 184 984 l 184 798 l 303 798 l 418 984 l 551 984 l 421 776 q 491 710 467 752 q 515 620 515 669 m 184 540 l 288 540 q 373 564 347 540 q 399 621 399 587 q 376 677 399 654 q 299 700 353 700 l 184 700 l 184 540 z "},"ʷ":{"ha":774,"x_min":27,"x_max":747,"o":"m 747 984 l 602 441 l 495 441 l 389 774 l 387 788 l 385 774 l 279 441 l 172 441 l 27 984 l 151 984 l 224 656 l 233 597 l 243 656 l 340 984 l 433 984 l 531 656 l 541 597 l 549 656 l 623 984 l 747 984 z "},"ʸ":{"ha":553,"x_min":33,"x_max":526,"o":"m 145 222 q 89 230 116 222 l 90 322 l 127 320 q 182 340 165 320 q 212 397 199 359 l 228 444 l 33 984 l 163 984 l 283 612 l 404 984 l 526 984 l 307 356 q 253 266 291 309 q 145 222 215 222 z "},"ʹ":{"ha":224,"x_min":12,"x_max":212,"o":"m 12 816 l 96 1059 l 212 1059 l 90 816 l 12 816 z "},"ʺ":{"ha":418,"x_min":12,"x_max":407,"o":"m 12 816 l 96 1059 l 212 1059 l 90 816 l 12 816 m 206 816 l 291 1059 l 407 1059 l 284 816 l 206 816 z "},"ʻ":{"ha":298,"x_min":54,"x_max":244,"o":"m 54 676 l 54 800 q 85 938 54 865 q 172 1059 117 1010 l 244 1009 q 179 802 179 912 l 179 676 l 54 676 z "},"ʽ":{"ha":298,"x_min":54,"x_max":244,"o":"m 54 1059 l 179 1059 l 179 932 q 244 726 179 822 l 172 676 q 85 797 117 725 q 54 935 54 869 l 54 1059 z "},"ʾ":{"ha":195,"x_min":30,"x_max":165,"o":"m 30 758 l 30 819 q 78 839 58 819 q 97 888 97 859 q 78 939 97 919 q 30 960 58 960 l 30 1021 q 125 983 85 1021 q 165 888 165 945 q 125 794 165 830 q 30 758 85 758 z "},"ʿ":{"ha":195,"x_min":30,"x_max":165,"o":"m 165 819 l 165 758 q 70 794 109 758 q 30 888 30 830 q 70 983 30 945 q 165 1021 109 1021 l 165 960 q 117 939 136 960 q 97 888 97 919 q 117 839 97 859 q 165 819 136 819 z "},"ˀ":{"ha":519,"x_min":15,"x_max":477,"o":"m 189 441 l 189 695 l 231 695 q 340 757 317 695 q 362 890 362 819 l 362 954 q 335 1075 362 1024 q 231 1126 307 1126 q 117 1027 134 1126 l 15 1027 q 77 1168 18 1112 q 231 1224 136 1224 q 415 1143 353 1224 q 477 954 477 1063 l 477 890 q 434 704 477 779 q 304 607 391 629 l 304 441 l 189 441 z "},"ˁ":{"ha":519,"x_min":42,"x_max":505,"o":"m 157 890 q 180 757 157 819 q 288 695 202 695 l 331 695 l 331 441 l 216 441 l 216 607 q 85 704 129 629 q 42 890 42 779 l 42 954 q 104 1143 42 1063 q 288 1224 166 1224 q 442 1168 383 1224 q 505 1027 501 1112 l 402 1027 q 369 1099 395 1072 q 288 1126 343 1126 q 185 1075 212 1126 q 157 954 157 1024 l 157 890 z "},"˂":{"ha":565,"x_min":36,"x_max":529,"o":"m 529 404 l 36 609 l 36 697 l 529 901 l 529 789 l 214 666 l 162 652 l 214 638 l 529 517 l 529 404 z "},"˃":{"ha":563,"x_min":33,"x_max":526,"o":"m 33 901 l 526 697 l 526 609 l 33 404 l 33 517 l 347 638 l 399 652 l 347 666 l 33 789 l 33 901 z "},"˄":{"ha":541,"x_min":22,"x_max":519,"o":"m 22 395 l 228 888 l 315 888 l 519 395 l 409 395 l 285 709 l 271 764 l 256 709 l 133 395 l 22 395 z "},"˅":{"ha":543,"x_min":22,"x_max":519,"o":"m 519 888 l 315 395 l 228 395 l 22 888 l 133 888 l 256 575 l 271 520 l 285 575 l 409 888 l 519 888 z "},"ˆ":{"ha":654,"x_min":115,"x_max":526,"o":"m 357 1042 l 526 857 l 526 850 l 421 850 l 319 964 l 218 850 l 115 850 l 115 857 l 281 1042 l 357 1042 z "},"ˇ":{"ha":617,"x_min":96,"x_max":515,"o":"m 202 1041 l 304 926 l 407 1041 l 515 1041 l 515 1034 l 343 848 l 266 848 l 96 1034 l 96 1041 l 202 1041 z "},"ˈ":{"ha":167,"x_min":36,"x_max":131,"o":"m 131 1057 l 131 781 l 36 781 l 36 1057 l 131 1057 z "},"ˉ":{"ha":637,"x_min":97,"x_max":552,"o":"m 552 980 l 552 884 l 97 884 l 97 980 l 552 980 z "},"ˊ":{"ha":389,"x_min":50,"x_max":333,"o":"m 50 842 l 182 1042 l 333 1042 l 151 842 l 50 842 z "},"ˋ":{"ha":384,"x_min":39,"x_max":322,"o":"m 191 1042 l 322 842 l 214 842 l 39 1042 l 191 1042 z "},"ˌ":{"ha":167,"x_min":36,"x_max":131,"o":"m 131 -58 l 131 -334 l 36 -334 l 36 -58 l 131 -58 z "},"ˍ":{"ha":555,"x_min":51,"x_max":506,"o":"m 506 -105 l 506 -201 l 51 -201 l 51 -105 l 506 -105 z "},"ˎ":{"ha":384,"x_min":39,"x_max":322,"o":"m 191 -45 l 322 -244 l 214 -244 l 39 -45 l 191 -45 z "},"ˏ":{"ha":389,"x_min":50,"x_max":333,"o":"m 50 -244 l 182 -45 l 333 -45 l 151 -244 l 50 -244 z "},"ː":{"ha":296,"x_min":57,"x_max":239,"o":"m 57 732 l 239 732 l 154 589 l 141 589 l 57 732 m 57 0 l 141 143 l 154 143 l 239 0 l 57 0 z "},"ˑ":{"ha":296,"x_min":57,"x_max":239,"o":"m 57 732 l 239 732 l 154 589 l 141 589 l 57 732 z "},"˒":{"ha":195,"x_min":30,"x_max":165,"o":"m 30 90 l 30 151 q 78 171 58 151 q 97 220 97 191 q 78 272 97 252 q 30 292 58 292 l 30 354 q 125 316 85 354 q 165 220 165 278 q 125 126 165 163 q 30 90 85 90 z "},"˓":{"ha":195,"x_min":30,"x_max":165,"o":"m 165 151 l 165 90 q 70 126 109 90 q 30 220 30 163 q 70 316 30 278 q 165 353 109 353 l 165 292 q 117 272 136 292 q 97 220 97 252 q 117 171 97 191 q 165 151 136 151 z "},"˔":{"ha":385,"x_min":54,"x_max":331,"o":"m 331 206 l 331 116 l 54 116 l 54 206 l 145 206 l 145 345 l 240 345 l 240 206 l 331 206 z "},"˕":{"ha":385,"x_min":54,"x_max":331,"o":"m 54 273 l 54 364 l 331 364 l 331 273 l 240 273 l 240 116 l 145 116 l 145 273 l 54 273 z "},"˖":{"ha":385,"x_min":54,"x_max":331,"o":"m 331 193 l 240 193 l 240 102 l 145 102 l 145 193 l 54 193 l 54 283 l 145 283 l 145 374 l 240 374 l 240 283 l 331 283 l 331 193 z "},"˗":{"ha":376,"x_min":36,"x_max":340,"o":"m 36 283 l 340 283 l 340 193 l 36 193 l 36 283 z "},"˘":{"ha":593,"x_min":88,"x_max":494,"o":"m 392 1014 l 494 1014 q 439 883 494 934 q 292 833 385 833 q 143 883 197 833 q 88 1014 88 934 l 190 1014 q 213 943 190 974 q 292 913 236 913 q 369 943 346 913 q 392 1014 392 974 z "},"˙":{"ha":338,"x_min":96,"x_max":245,"o":"m 96 928 q 96 943 96 928 q 115 979 96 958 q 170 1000 134 1000 q 225 979 206 1000 q 245 928 245 958 q 225 877 245 898 q 170 857 206 857 q 115 877 134 857 q 96 928 96 898 z "},"˚":{"ha":465,"x_min":82,"x_max":374,"o":"m 82 956 q 124 1055 82 1014 q 228 1097 165 1097 q 332 1055 290 1097 q 374 956 374 1014 q 332 857 374 896 q 228 817 290 817 q 124 857 165 817 q 82 956 82 896 m 149 956 q 171 902 149 926 q 228 878 193 878 q 284 901 262 878 q 307 956 307 924 q 284 1011 307 987 q 228 1036 262 1036 q 171 1011 193 1036 q 149 956 149 987 z "},"˛":{"ha":376,"x_min":34,"x_max":273,"o":"m 209 39 l 259 0 q 179 -70 216 -33 q 143 -151 143 -106 q 196 -200 143 -200 q 264 -182 229 -200 l 273 -264 q 164 -294 224 -294 q 72 -261 109 -294 q 34 -165 34 -229 q 75 -57 34 -111 q 209 39 117 -4 z "},"˜":{"ha":655,"x_min":83,"x_max":564,"o":"m 479 1025 l 564 1018 q 521 898 564 943 q 417 853 479 853 q 345 869 371 853 l 296 901 q 235 918 273 918 q 188 896 207 918 q 168 842 168 874 l 83 846 q 125 967 83 921 q 229 1014 168 1014 q 296 997 268 1014 q 349 966 324 981 q 411 949 375 949 q 459 971 439 949 q 479 1025 479 994 z "},"˝":{"ha":518,"x_min":64,"x_max":551,"o":"m 254 836 l 410 1041 l 551 1041 l 369 836 l 254 836 m 64 836 l 180 1041 l 314 1041 l 166 836 l 64 836 z "},"˞":{"ha":292,"x_min":-137,"x_max":256,"o":"m -137 375 l -137 490 l 114 538 q 136 408 125 452 q 200 365 147 365 l 234 368 l 256 262 q 169 241 214 241 q 58 285 88 241 q 11 404 28 329 l -137 375 z "},"˟":{"ha":437,"x_min":54,"x_max":383,"o":"m 382 850 l 319 785 l 218 887 l 117 785 l 54 850 l 155 952 l 56 1054 l 119 1119 l 219 1017 l 320 1118 l 383 1053 l 282 951 l 382 850 z "},"ˠ":{"ha":581,"x_min":39,"x_max":541,"o":"m 417 266 q 287 149 417 149 q 157 266 157 149 q 178 344 157 291 l 229 464 l 39 984 l 166 984 l 285 620 l 290 589 l 296 620 l 414 984 l 541 984 l 351 458 l 398 347 q 417 266 417 301 m 256 272 q 287 240 256 240 q 317 272 317 240 q 288 369 317 296 l 266 314 q 256 272 256 289 z "},"ˡ":{"ha":254,"x_min":69,"x_max":184,"o":"m 184 1224 l 184 441 l 69 441 l 69 1224 l 184 1224 z "},"ˢ":{"ha":528,"x_min":42,"x_max":486,"o":"m 371 586 q 250 668 371 640 q 108 728 155 690 q 60 838 60 766 q 118 952 60 911 q 259 994 175 994 q 422 945 363 994 q 481 825 481 895 l 368 825 q 345 874 367 852 q 268 896 322 896 q 196 878 216 896 q 176 838 176 860 q 200 795 176 810 q 283 767 225 781 q 434 706 381 744 q 486 593 486 667 q 432 472 486 513 q 278 431 377 431 q 100 486 159 431 q 42 609 42 541 l 155 609 q 199 546 163 562 q 281 530 236 530 q 371 586 371 530 z "},"ˣ":{"ha":548,"x_min":27,"x_max":521,"o":"m 167 984 l 273 796 l 380 984 l 515 984 l 350 716 l 521 441 l 386 441 l 274 635 l 162 441 l 27 441 l 197 716 l 33 984 l 167 984 z "},"ˤ":{"ha":570,"x_min":49,"x_max":521,"o":"m 164 751 q 164 718 164 751 q 190 647 164 686 q 286 608 216 608 l 338 608 l 338 441 l 223 441 l 223 517 q 97 591 145 533 q 49 749 49 649 q 117 930 49 866 q 286 994 184 994 q 451 940 382 994 q 521 792 521 886 l 402 792 q 368 866 399 837 q 285 896 336 896 q 192 856 220 896 q 164 751 164 816 z "},"˥":{"ha":452,"x_min":27,"x_max":335,"o":"m 27 884 l 27 987 l 335 987 l 335 0 l 210 0 l 210 884 l 27 884 z "},"˦":{"ha":452,"x_min":27,"x_max":335,"o":"m 335 987 l 335 0 l 210 0 l 210 690 l 27 690 l 27 793 l 210 793 l 210 987 l 335 987 z "},"˧":{"ha":452,"x_min":27,"x_max":335,"o":"m 335 987 l 335 0 l 210 0 l 210 442 l 27 442 l 27 545 l 210 545 l 210 987 l 335 987 z "},"˨":{"ha":452,"x_min":27,"x_max":335,"o":"m 335 987 l 335 0 l 210 0 l 210 195 l 27 195 l 27 298 l 210 298 l 210 987 l 335 987 z "},"˩":{"ha":452,"x_min":27,"x_max":335,"o":"m 335 987 l 335 0 l 27 0 l 27 103 l 210 103 l 210 987 l 335 987 z "},"˪":{"ha":511,"x_min":97,"x_max":484,"o":"m 484 103 l 484 0 l 97 0 l 97 616 l 223 616 l 223 103 l 484 103 z "},"˫":{"ha":474,"x_min":97,"x_max":447,"o":"m 447 260 l 223 260 l 223 0 l 97 0 l 97 616 l 223 616 l 223 362 l 447 362 l 447 260 z "},"ˬ":{"ha":528,"x_min":54,"x_max":474,"o":"m 161 -90 l 263 -205 l 366 -90 l 474 -90 l 474 -97 l 302 -283 l 224 -283 l 54 -97 l 54 -90 l 161 -90 z "},"˭":{"ha":541,"x_min":42,"x_max":498,"o":"m 498 1029 l 498 942 l 42 942 l 42 1029 l 498 1029 m 498 896 l 498 808 l 42 808 l 42 896 l 498 896 z "},"ˮ":{"ha":510,"x_min":54,"x_max":456,"o":"m 244 1058 l 244 934 q 213 797 244 869 q 125 676 182 724 l 54 725 q 119 932 119 822 l 119 1058 l 244 1058 m 456 1058 l 456 934 q 425 797 456 869 q 338 676 394 724 l 267 725 q 332 923 330 820 l 332 1058 l 456 1058 z "},"˯":{"ha":420,"x_min":36,"x_max":384,"o":"m 384 -49 l 240 -370 l 180 -370 l 36 -49 l 114 -49 l 200 -252 l 210 -286 l 219 -252 l 306 -49 l 384 -49 z "},"˰":{"ha":420,"x_min":36,"x_max":384,"o":"m 36 -370 l 180 -49 l 240 -49 l 384 -370 l 306 -370 l 219 -165 l 210 -132 l 200 -165 l 114 -370 l 36 -370 z "},"˱":{"ha":417,"x_min":36,"x_max":381,"o":"m 381 -371 l 36 -238 l 36 -181 l 381 -48 l 381 -121 l 161 -201 l 124 -210 l 161 -219 l 381 -298 l 381 -371 z "},"˲":{"ha":417,"x_min":36,"x_max":381,"o":"m 36 -48 l 381 -181 l 381 -238 l 36 -371 l 36 -298 l 256 -219 l 293 -210 l 256 -201 l 36 -121 l 36 -48 z "},"˳":{"ha":408,"x_min":86,"x_max":319,"o":"m 86 -165 q 86 -140 86 -165 q 121 -83 86 -115 q 204 -52 156 -52 q 285 -83 251 -52 q 319 -165 319 -115 q 285 -245 319 -214 q 204 -275 251 -275 q 121 -245 156 -275 q 86 -165 86 -214 m 145 -165 q 162 -205 145 -189 q 204 -221 180 -221 q 244 -205 227 -221 q 260 -165 260 -189 q 244 -123 260 -140 q 204 -106 227 -106 q 162 -123 180 -106 q 145 -165 145 -140 z "},"˴":{"ha":384,"x_min":39,"x_max":322,"o":"m 191 351 l 322 151 l 214 151 l 39 351 l 191 351 z "},"˵":{"ha":629,"x_min":39,"x_max":568,"o":"m 191 351 l 322 151 l 214 151 l 39 351 l 191 351 m 437 351 l 568 151 l 460 151 l 285 351 l 437 351 z "},"˶":{"ha":635,"x_min":50,"x_max":578,"o":"m 50 151 l 182 351 l 333 351 l 151 151 l 50 151 m 296 151 l 427 351 l 578 351 l 397 151 l 296 151 z "},"˷":{"ha":576,"x_min":50,"x_max":529,"o":"m 445 -112 l 529 -120 q 487 -239 529 -195 q 382 -284 444 -284 q 311 -268 336 -284 q 263 -237 285 -252 q 201 -220 239 -220 q 153 -242 172 -220 q 134 -296 134 -264 l 50 -291 q 91 -170 50 -217 q 195 -123 133 -123 q 261 -140 233 -123 q 315 -172 290 -157 q 374 -189 340 -188 l 376 -189 q 425 -166 405 -189 q 445 -112 445 -144 z "},"˸":{"ha":245,"x_min":45,"x_max":201,"o":"m 45 338 q 65 392 45 370 q 123 414 85 414 q 181 392 161 414 q 201 338 201 370 q 181 285 201 307 q 123 263 161 263 q 65 285 85 263 q 45 338 45 307 m 45 937 q 65 990 45 968 q 123 1013 85 1013 q 181 990 161 1013 q 201 937 201 968 q 181 884 201 905 q 123 862 161 862 q 65 884 85 862 q 45 937 45 905 z "},"˹":{"ha":378,"x_min":54,"x_max":324,"o":"m 324 951 l 149 951 l 149 780 l 54 780 l 54 1042 l 324 1042 l 324 951 z "},"˺":{"ha":378,"x_min":54,"x_max":324,"o":"m 54 951 l 54 1042 l 324 1042 l 324 780 l 229 780 l 229 951 l 54 951 z "},"˻":{"ha":378,"x_min":54,"x_max":324,"o":"m 324 -231 l 324 -321 l 54 -321 l 54 -60 l 149 -60 l 149 -231 l 324 -231 z "},"˼":{"ha":378,"x_min":54,"x_max":324,"o":"m 229 -60 l 324 -60 l 324 -321 l 54 -321 l 54 -231 l 229 -231 l 229 -60 z "},"˽":{"ha":566,"x_min":54,"x_max":512,"o":"m 512 -66 l 512 -307 l 54 -307 l 54 -66 l 150 -66 l 150 -227 l 416 -227 l 416 -66 l 512 -66 z "},"˾":{"ha":558,"x_min":54,"x_max":504,"o":"m 504 -241 l 504 -321 l 54 -321 l 54 -60 l 150 -60 l 150 -241 l 504 -241 z "},"˿":{"ha":616,"x_min":42,"x_max":562,"o":"m 562 -130 l 193 -130 l 357 -295 l 246 -295 l 42 -90 l 246 115 l 357 115 l 193 -50 l 562 -50 l 562 -130 z "},"̀":{"ha":0,"x_min":-581,"x_max":-299,"o":"m -430 1042 l -299 842 l -406 842 l -581 1042 l -430 1042 z "},"́":{"ha":0,"x_min":-446,"x_max":-163,"o":"m -446 842 l -315 1042 l -163 1042 l -345 842 l -446 842 z "},"̂":{"ha":0,"x_min":-604,"x_max":-193,"o":"m -361 1042 l -193 857 l -193 850 l -298 850 l -399 964 l -500 850 l -604 850 l -604 857 l -437 1042 l -361 1042 z "},"̃":{"ha":0,"x_min":-601,"x_max":-121,"o":"m -205 1025 l -121 1018 q -163 898 -121 943 q -267 853 -205 853 q -339 869 -313 853 l -388 901 q -449 918 -412 918 q -497 896 -477 918 q -516 842 -516 874 l -601 846 q -559 967 -601 921 q -455 1014 -517 1014 q -388 997 -416 1014 q -336 966 -360 981 q -273 949 -309 949 q -225 971 -245 949 q -205 1025 -205 994 z "},"̄":{"ha":0,"x_min":-625,"x_max":-169,"o":"m -169 980 l -169 884 l -625 884 l -625 980 l -169 980 z "},"̅":{"ha":0,"x_min":-708,"x_max":-86,"o":"m -86 1181 l -86 1078 l -708 1078 l -708 1181 l -86 1181 z "},"̆":{"ha":0,"x_min":-600,"x_max":-195,"o":"m -296 1014 l -195 1014 q -249 883 -195 934 q -397 833 -303 833 q -546 883 -491 833 q -600 1014 -600 934 l -498 1014 q -476 943 -498 974 q -397 913 -453 913 q -320 943 -343 913 q -296 1014 -296 974 z "},"̇":{"ha":0,"x_min":-471,"x_max":-322,"o":"m -471 928 q -452 980 -471 959 q -397 1001 -433 1001 q -341 980 -361 1001 q -322 928 -322 959 q -341 879 -322 899 q -397 858 -361 858 q -452 879 -433 858 q -471 928 -471 899 z "},"̈":{"ha":0,"x_min":-675,"x_max":-235,"o":"m -675 930 q -656 981 -675 960 q -602 1002 -637 1002 q -546 981 -565 1002 q -527 930 -527 960 q -546 880 -527 901 q -602 859 -565 859 q -656 880 -637 859 q -675 930 -675 901 m -383 928 q -365 980 -383 959 q -309 1001 -346 1001 q -254 980 -273 1001 q -235 928 -235 959 q -254 879 -235 899 q -309 858 -273 858 q -365 879 -346 858 q -383 928 -383 899 z "},"̉":{"ha":0,"x_min":-458,"x_max":-248,"o":"m -353 842 l -443 842 l -444 945 q -345 996 -345 951 q -378 1037 -345 1025 q -458 1048 -412 1048 l -453 1120 q -300 1086 -353 1120 q -248 994 -248 1051 q -280 918 -248 941 q -352 890 -313 895 l -353 842 z "},"̊":{"ha":0,"x_min":-545,"x_max":-254,"o":"m -545 956 q -504 1055 -545 1014 q -399 1097 -462 1097 q -296 1055 -338 1097 q -254 956 -254 1014 q -296 857 -254 896 q -399 817 -338 817 q -504 857 -462 817 q -545 956 -545 896 m -478 956 q -456 902 -478 926 q -399 878 -434 878 q -343 901 -365 878 q -321 956 -321 924 q -343 1011 -321 987 q -399 1036 -365 1036 q -456 1011 -434 1036 q -478 956 -478 987 z "},"̋":{"ha":0,"x_min":-669,"x_max":-128,"o":"m -669 842 l -537 1042 l -386 1042 l -568 842 l -669 842 m -411 842 l -279 1042 l -128 1042 l -310 842 l -411 842 z "},"̌":{"ha":0,"x_min":-604,"x_max":-193,"o":"m -193 1035 l -361 850 l -437 850 l -604 1034 l -604 1042 l -500 1042 l -399 927 l -297 1042 l -193 1042 l -193 1035 z "},"̍":{"ha":0,"x_min":-445,"x_max":-350,"o":"m -350 1057 l -350 781 l -445 781 l -445 1057 l -350 1057 z "},"̎":{"ha":0,"x_min":-527,"x_max":-270,"o":"m -432 1057 l -432 781 l -527 781 l -527 1057 l -432 1057 m -270 1057 l -270 781 l -365 781 l -365 1057 l -270 1057 z "},"̏":{"ha":0,"x_min":-668,"x_max":-170,"o":"m -515 1029 l -347 849 l -461 849 l -668 1029 l -515 1029 m -298 1029 l -170 849 l -271 849 l -438 1029 l -298 1029 z "},"̐":{"ha":0,"x_min":-600,"x_max":-195,"o":"m -471 1057 q -452 1108 -471 1087 q -397 1129 -433 1129 q -341 1108 -360 1129 q -322 1057 -322 1087 q -341 1006 -322 1027 q -397 986 -360 986 q -452 1006 -433 986 q -471 1057 -471 1027 m -296 1008 l -195 1008 q -249 877 -195 928 q -397 827 -303 827 q -546 877 -491 827 q -600 1008 -600 928 l -498 1008 q -476 937 -498 968 q -397 907 -453 907 q -320 937 -343 907 q -296 1008 -296 968 z "},"̑":{"ha":0,"x_min":-600,"x_max":-194,"o":"m -194 806 l -296 806 q -319 877 -296 846 q -397 907 -342 907 q -475 877 -452 907 q -498 806 -498 846 l -600 806 q -545 937 -600 886 q -397 987 -490 987 q -248 937 -302 987 q -194 806 -194 886 z "},"̒":{"ha":0,"x_min":-461,"x_max":-271,"o":"m -461 676 l -461 800 q -430 938 -461 865 q -343 1059 -399 1010 l -271 1009 q -337 811 -335 915 l -337 676 l -461 676 z "},"̓":{"ha":0,"x_min":-492,"x_max":-302,"o":"m -302 1059 l -302 935 q -333 797 -302 869 q -420 676 -364 725 l -492 726 q -426 924 -428 820 l -426 1059 l -302 1059 z "},"̔":{"ha":0,"x_min":-489,"x_max":-299,"o":"m -489 1059 l -364 1059 l -364 932 q -299 726 -364 822 l -370 676 q -458 797 -427 725 q -489 935 -489 869 l -489 1059 z "},"̕":{"ha":0,"x_min":-135,"x_max":55,"o":"m 55 1059 l 55 935 q 24 797 55 869 q -63 676 -7 725 l -135 726 q -69 924 -71 820 l -69 1059 l 55 1059 z "},"̖":{"ha":0,"x_min":-550,"x_max":-267,"o":"m -398 -63 l -267 -262 l -375 -262 l -550 -63 l -398 -63 z "},"̗":{"ha":0,"x_min":-541,"x_max":-258,"o":"m -541 -262 l -410 -63 l -258 -63 l -440 -262 l -541 -262 z "},"̘":{"ha":0,"x_min":-536,"x_max":-272,"o":"m -272 -41 l -272 -302 l -368 -302 l -368 -217 l -536 -217 l -536 -127 l -368 -127 l -368 -41 l -272 -41 z "},"̙":{"ha":0,"x_min":-528,"x_max":-264,"o":"m -264 -217 l -433 -217 l -433 -302 l -528 -302 l -528 -41 l -433 -41 l -433 -127 l -264 -127 l -264 -217 z "},"̚":{"ha":0,"x_min":-510,"x_max":-55,"o":"m -510 1043 l -510 1122 l -55 1122 l -55 870 l -151 870 l -151 1043 l -510 1043 z "},"̛":{"ha":0,"x_min":-259,"x_max":-70,"o":"m -70 1052 q -101 805 -70 892 q -188 670 -132 718 l -259 719 q -210 835 -226 769 q -194 1052 -194 901 l -70 1052 z "},"̜":{"ha":0,"x_min":-428,"x_max":-293,"o":"m -293 -260 l -293 -321 q -388 -284 -349 -321 q -428 -191 -428 -248 q -388 -95 -428 -133 q -293 -58 -349 -58 l -293 -119 q -341 -139 -321 -119 q -360 -191 -360 -159 q -341 -240 -360 -220 q -293 -260 -321 -260 z "},"̝":{"ha":0,"x_min":-536,"x_max":-259,"o":"m -259 -201 l -259 -291 l -536 -291 l -536 -201 l -445 -201 l -445 -62 l -350 -62 l -350 -201 l -259 -201 z "},"̞":{"ha":0,"x_min":-535,"x_max":-258,"o":"m -535 -153 l -535 -62 l -258 -62 l -258 -153 l -349 -153 l -349 -292 l -445 -292 l -445 -153 l -535 -153 z "},"̟":{"ha":0,"x_min":-536,"x_max":-259,"o":"m -259 -222 l -350 -222 l -350 -313 l -445 -313 l -445 -222 l -536 -222 l -536 -132 l -445 -132 l -445 -41 l -350 -41 l -350 -132 l -259 -132 l -259 -222 z "},"̠":{"ha":0,"x_min":-550,"x_max":-242,"o":"m -550 -132 l -242 -132 l -242 -222 l -550 -222 l -550 -132 z "},"̡":{"ha":0,"x_min":-399,"x_max":-132,"o":"m -257 98 l -132 98 l -132 -60 q -321 -296 -132 -296 q -399 -285 -363 -296 l -398 -184 q -353 -190 -378 -190 q -281 -161 -305 -190 q -257 -60 -257 -132 l -257 98 z "},"̢":{"ha":0,"x_min":-201,"x_max":66,"o":"m -201 98 l -76 98 l -76 -60 q -52 -161 -76 -132 q 20 -190 -28 -190 q 65 -184 45 -190 l 66 -285 q -12 -296 30 -296 q -201 -73 -196 -296 l -201 98 z "},"̣":{"ha":0,"x_min":-483,"x_max":-334,"o":"m -483 -167 q -464 -115 -483 -136 q -409 -94 -446 -94 q -354 -115 -373 -94 q -334 -167 -334 -136 q -354 -217 -334 -197 q -409 -237 -373 -237 q -464 -217 -446 -237 q -483 -167 -483 -197 z "},"̤":{"ha":0,"x_min":-675,"x_max":-235,"o":"m -675 -167 q -656 -115 -675 -136 q -602 -94 -637 -94 q -546 -115 -565 -94 q -527 -167 -527 -136 q -546 -217 -527 -197 q -602 -237 -565 -237 q -656 -217 -637 -237 q -675 -167 -675 -197 m -383 -168 q -383 -153 -383 -168 q -365 -117 -383 -138 q -309 -96 -346 -96 q -254 -117 -273 -96 q -235 -168 -235 -138 q -254 -218 -235 -197 q -309 -239 -273 -239 q -365 -218 -346 -239 q -383 -168 -383 -197 z "},"̥":{"ha":0,"x_min":-545,"x_max":-254,"o":"m -545 -175 q -503 -75 -545 -117 q -399 -34 -461 -34 q -296 -75 -338 -34 q -254 -175 -254 -117 q -296 -274 -254 -235 q -399 -313 -338 -313 q -503 -274 -461 -313 q -545 -175 -545 -235 m -478 -175 q -456 -229 -478 -205 q -399 -253 -434 -253 q -343 -230 -365 -253 q -321 -175 -321 -206 q -343 -119 -321 -144 q -399 -95 -365 -95 q -456 -119 -434 -95 q -478 -175 -478 -144 z "},"̦":{"ha":0,"x_min":-480,"x_max":-310,"o":"m -310 -100 l -310 -154 q -335 -269 -310 -208 q -409 -372 -359 -331 l -480 -323 q -430 -156 -430 -246 l -430 -100 l -310 -100 z "},"̧":{"ha":0,"x_min":-477,"x_max":-267,"o":"m -453 0 l -363 0 l -371 -36 q -299 -68 -332 -43 q -267 -153 -267 -94 q -319 -256 -267 -217 q -473 -295 -372 -295 l -477 -222 q -398 -207 -431 -222 q -365 -155 -365 -191 q -391 -109 -365 -122 q -474 -92 -417 -96 l -453 0 z "},"̨":{"ha":0,"x_min":-551,"x_max":-311,"o":"m -372 39 l -326 0 q -405 -70 -369 -33 q -441 -151 -441 -106 q -389 -200 -441 -200 q -321 -182 -355 -200 l -311 -264 q -420 -294 -361 -294 q -513 -261 -475 -294 q -551 -165 -551 -229 q -508 -57 -551 -111 q -372 39 -465 -4 z "},"̩":{"ha":0,"x_min":-444,"x_max":-349,"o":"m -349 -55 l -349 -332 l -444 -332 l -444 -55 l -349 -55 z "},"̪":{"ha":0,"x_min":-627,"x_max":-169,"o":"m -627 -315 l -627 -75 l -169 -75 l -169 -315 l -264 -315 l -264 -154 l -530 -154 l -530 -315 l -627 -315 z "},"̫":{"ha":0,"x_min":-656,"x_max":-137,"o":"m -137 -77 q -178 -190 -137 -146 q -281 -234 -218 -234 q -397 -182 -357 -234 q -513 -234 -436 -234 q -615 -190 -575 -234 q -656 -77 -656 -146 l -593 -77 q -570 -137 -593 -114 q -513 -159 -547 -159 q -428 -77 -428 -159 l -365 -77 q -281 -159 -365 -159 q -223 -137 -247 -159 q -200 -77 -200 -114 l -137 -77 z "},"̬":{"ha":0,"x_min":-602,"x_max":-192,"o":"m -192 -95 l -360 -280 l -436 -280 l -602 -96 l -602 -88 l -499 -88 l -398 -203 l -296 -88 l -192 -88 l -192 -95 z "},"̭":{"ha":0,"x_min":-602,"x_max":-192,"o":"m -360 -81 l -192 -267 l -192 -273 l -296 -273 l -398 -159 l -499 -273 l -602 -273 l -602 -266 l -436 -81 l -360 -81 z "},"̮":{"ha":0,"x_min":-600,"x_max":-194,"o":"m -296 -65 l -194 -65 q -248 -196 -194 -145 q -397 -246 -302 -246 q -545 -196 -490 -246 q -600 -65 -600 -145 l -498 -65 q -475 -136 -498 -105 q -397 -166 -452 -166 q -319 -136 -342 -166 q -296 -65 -296 -105 z "},"̯":{"ha":0,"x_min":-600,"x_max":-194,"o":"m -194 -252 l -296 -252 q -319 -182 -296 -212 q -397 -151 -342 -151 q -475 -182 -452 -151 q -498 -252 -498 -212 l -600 -252 q -545 -122 -600 -172 q -397 -71 -490 -71 q -248 -122 -302 -71 q -194 -252 -194 -172 z "},"̰":{"ha":0,"x_min":-644,"x_max":-163,"o":"m -248 -73 l -163 -80 q -206 -200 -163 -155 q -310 -245 -248 -245 q -382 -229 -356 -245 q -431 -197 -408 -212 q -488 -180 -454 -181 l -492 -180 q -539 -202 -520 -180 q -559 -256 -559 -224 l -644 -252 q -602 -131 -644 -178 q -498 -84 -559 -84 q -432 -100 -459 -84 l -378 -133 q -316 -149 -351 -149 q -268 -126 -288 -149 q -248 -73 -248 -104 z "},"̱":{"ha":0,"x_min":-624,"x_max":-169,"o":"m -169 -105 l -169 -201 l -624 -201 l -624 -105 l -169 -105 z "},"̲":{"ha":0,"x_min":-708,"x_max":-86,"o":"m -86 -100 l -86 -203 l -708 -203 l -708 -100 l -86 -100 z "},"̳":{"ha":0,"x_min":-708,"x_max":-85,"o":"m -86 -58 l -86 -161 l -708 -161 l -708 -58 l -86 -58 m -85 -227 l -85 -330 l -707 -330 l -707 -227 l -85 -227 z "},"̴":{"ha":0,"x_min":-635,"x_max":-155,"o":"m -240 452 l -155 444 q -198 325 -155 370 q -302 279 -240 279 q -374 296 -348 279 l -422 328 q -484 344 -446 344 q -531 322 -512 344 q -551 269 -551 300 l -635 273 q -593 394 -635 347 q -490 440 -551 440 q -423 424 -451 440 q -370 392 -395 407 q -308 376 -344 376 q -260 398 -279 376 q -240 452 -240 420 z "},"̵":{"ha":0,"x_min":-613,"x_max":-181,"o":"m -181 416 l -181 313 l -613 313 l -613 416 l -181 416 z "},"̶":{"ha":0,"x_min":-820,"x_max":26,"o":"m 26 416 l 26 313 l -820 313 l -820 416 l 26 416 z "},"̷":{"ha":0,"x_min":-669,"x_max":-136,"o":"m -136 820 l -586 -92 l -669 -92 l -220 820 l -136 820 z "},"̸":{"ha":0,"x_min":-866,"x_max":-119,"o":"m -119 1028 l -800 -63 l -866 -63 l -185 1028 l -119 1028 z "},"̹":{"ha":0,"x_min":-465,"x_max":-330,"o":"m -465 -321 l -465 -260 q -417 -240 -436 -260 q -397 -191 -397 -220 q -417 -139 -397 -159 q -465 -119 -436 -119 l -465 -57 q -369 -95 -409 -57 q -330 -191 -330 -133 q -369 -284 -330 -248 q -465 -321 -409 -321 z "},"̺":{"ha":0,"x_min":-626,"x_max":-168,"o":"m -168 -81 l -168 -321 l -626 -321 l -626 -81 l -530 -81 l -530 -242 l -264 -242 l -264 -81 l -168 -81 z "},"̻":{"ha":0,"x_min":-532,"x_max":-261,"o":"m -532 -326 l -532 -54 l -261 -54 l -261 -326 l -532 -326 m -462 -125 l -462 -254 l -332 -254 l -332 -125 l -462 -125 z "},"̼":{"ha":0,"x_min":-656,"x_max":-137,"o":"m -281 -151 q -365 -234 -365 -151 l -428 -234 q -513 -151 -428 -151 q -570 -174 -547 -151 q -593 -234 -593 -197 l -656 -234 q -615 -121 -656 -165 q -513 -77 -575 -77 q -397 -129 -437 -77 q -281 -77 -357 -77 q -178 -121 -218 -77 q -137 -234 -137 -165 l -200 -234 q -223 -174 -200 -197 q -281 -151 -247 -151 z "},"̽":{"ha":0,"x_min":-506,"x_max":-177,"o":"m -178 903 l -241 838 l -342 941 l -444 840 l -506 905 l -406 1006 l -505 1108 l -442 1173 l -342 1070 l -240 1173 l -177 1107 l -278 1006 l -178 903 z "},"̾":{"ha":0,"x_min":-467,"x_max":-326,"o":"m -466 764 l -466 842 q -429 855 -442 842 q -416 882 -416 867 q -441 946 -416 910 q -467 1023 -467 981 q -429 1094 -467 1068 q -328 1119 -391 1119 l -328 1041 q -373 1007 -373 1041 q -350 944 -373 981 q -326 866 -326 907 q -466 764 -326 764 z "},"̿":{"ha":0,"x_min":-709,"x_max":-86,"o":"m -87 1284 l -87 1182 l -709 1182 l -709 1284 l -87 1284 m -86 1112 l -86 1010 l -708 1010 l -708 1112 l -86 1112 z "},"̀":{"ha":0,"x_min":-153,"x_max":130,"o":"m -1 1042 l 130 842 l 22 842 l -153 1042 l -1 1042 z "},"́":{"ha":0,"x_min":-144,"x_max":138,"o":"m -144 842 l -13 1042 l 138 1042 l -43 842 l -144 842 z "},"͂":{"ha":0,"x_min":-636,"x_max":-156,"o":"m -241 1025 l -156 1018 q -198 898 -156 943 q -302 853 -241 853 q -374 869 -349 853 l -423 901 q -484 918 -447 918 q -532 896 -513 918 q -551 842 -551 874 l -636 846 q -594 967 -636 921 q -490 1014 -552 1014 q -424 997 -452 1014 q -371 966 -395 981 q -309 949 -345 949 q -260 971 -280 949 q -241 1025 -241 994 z "},"̓":{"ha":0,"x_min":-479,"x_max":-310,"o":"m -310 1107 l -310 1053 q -334 938 -310 1000 q -408 835 -358 876 l -479 884 q -429 1052 -429 962 l -429 1107 l -310 1107 z "},"̈́":{"ha":0,"x_min":-666,"x_max":-134,"o":"m -450 956 l -417 1135 l -290 1135 l -357 956 l -450 956 m -666 930 q -647 981 -666 960 q -592 1002 -629 1002 q -537 981 -556 1002 q -517 930 -517 960 q -537 880 -517 901 q -592 859 -556 859 q -647 880 -629 859 q -666 930 -666 901 m -282 928 q -263 980 -282 959 q -208 1001 -244 1001 q -153 980 -172 1001 q -134 928 -134 959 q -153 879 -134 899 q -208 858 -172 858 q -263 879 -244 858 q -282 928 -282 899 z "},"ͅ":{"ha":0,"x_min":-447,"x_max":-286,"o":"m -447 -47 l -351 -47 l -351 -230 q -317 -287 -351 -287 q -287 -283 -302 -287 l -286 -349 q -336 -357 -309 -357 q -447 -232 -447 -357 l -447 -47 z "},"͆":{"ha":0,"x_min":-626,"x_max":-168,"o":"m -626 831 l -626 1093 l -168 1093 l -168 831 l -264 831 l -264 1013 l -530 1013 l -530 831 l -626 831 z "},"͇":{"ha":0,"x_min":-550,"x_max":-242,"o":"m -550 -77 l -242 -77 l -242 -167 l -550 -167 l -550 -77 m -550 -223 l -242 -223 l -242 -313 l -550 -313 l -550 -223 z "},"͈":{"ha":0,"x_min":-534,"x_max":-259,"o":"m -439 -55 l -439 -332 l -534 -332 l -534 -55 l -439 -55 m -259 -55 l -259 -332 l -354 -332 l -354 -55 l -259 -55 z "},"͉":{"ha":0,"x_min":-517,"x_max":-248,"o":"m -517 -172 l -517 -81 l -248 -81 l -248 -343 l -343 -343 l -343 -172 l -517 -172 z "},"͊":{"ha":0,"x_min":-635,"x_max":-156,"o":"m -302 853 q -387 878 -348 853 l -429 805 l -491 844 l -451 913 q -484 918 -467 918 q -532 896 -513 918 q -551 842 -551 874 l -635 846 q -594 967 -635 921 q -490 1014 -552 1014 q -408 988 -452 1014 l -362 1066 l -301 1027 l -342 955 q -308 949 -326 949 q -260 971 -279 949 q -240 1025 -240 994 l -156 1018 q -198 898 -156 943 q -302 853 -241 853 z "},"͋":{"ha":0,"x_min":-665,"x_max":-184,"o":"m -498 1180 q -479 1232 -498 1211 q -424 1253 -460 1253 q -369 1232 -388 1253 q -349 1180 -349 1211 q -369 1130 -349 1150 q -424 1109 -388 1109 q -479 1130 -460 1109 q -498 1180 -498 1150 m -269 1102 l -184 1095 q -227 975 -184 1020 q -331 930 -269 930 q -403 946 -377 930 q -452 978 -429 962 q -513 994 -475 994 q -561 972 -541 994 q -580 919 -580 951 l -665 923 q -623 1044 -665 997 q -519 1090 -581 1090 q -454 1075 -481 1090 l -397 1041 q -337 1026 -372 1026 q -289 1048 -309 1026 q -269 1102 -269 1070 m -498 845 q -498 860 -498 845 q -479 896 -498 875 q -424 917 -460 917 q -369 896 -388 917 q -349 845 -349 875 q -369 794 -349 815 q -424 774 -388 774 q -479 794 -460 774 q -498 845 -498 815 z "},"͌":{"ha":0,"x_min":-625,"x_max":-146,"o":"m -230 1128 l -146 1122 q -188 1031 -146 1065 q -292 996 -231 996 q -363 1009 -337 996 q -413 1034 -390 1021 q -474 1046 -437 1046 q -522 1030 -503 1046 q -541 988 -541 1013 l -625 991 q -584 1083 -625 1048 q -480 1119 -542 1119 q -387 1094 -422 1119 q -298 1069 -351 1069 q -250 1086 -269 1069 q -230 1128 -230 1103 m -230 987 l -146 981 q -188 889 -146 924 q -292 855 -231 855 q -363 868 -337 855 q -413 893 -390 880 q -474 905 -437 905 q -522 888 -503 905 q -541 846 -541 871 l -625 850 q -584 942 -625 907 q -480 978 -542 978 q -387 953 -422 978 q -298 928 -351 928 q -250 945 -269 928 q -230 987 -230 962 z "},"͍":{"ha":0,"x_min":-671,"x_max":-122,"o":"m -343 -374 l -231 -255 l -562 -255 l -450 -374 l -528 -374 l -671 -222 l -528 -71 l -450 -71 l -562 -189 l -232 -189 l -344 -71 l -265 -71 l -122 -222 l -265 -374 l -343 -374 z "},"͎":{"ha":0,"x_min":-562,"x_max":-232,"o":"m -232 -287 l -365 -172 l -365 -372 l -429 -372 l -429 -170 l -562 -287 l -562 -208 l -397 -64 l -232 -208 l -232 -287 z "},"͏":{"ha":0,"x_min":0,"x_max":0,"o":""},"͐":{"ha":0,"x_min":-615,"x_max":-122,"o":"m -615 1297 l -122 1092 l -122 1004 l -615 800 l -615 911 l -300 1034 l -248 1048 l -300 1061 l -615 1185 l -615 1297 z "},"͑":{"ha":0,"x_min":-429,"x_max":-295,"o":"m -295 758 q -390 794 -351 758 q -429 888 -429 830 q -390 983 -429 945 q -295 1021 -351 1021 l -295 960 q -342 939 -323 960 q -362 888 -362 919 q -342 839 -362 859 q -295 819 -323 819 l -295 758 z "},"͒":{"ha":0,"x_min":-601,"x_max":-195,"o":"m -195 955 l -297 955 q -320 1025 -297 995 q -397 1056 -343 1056 q -476 1026 -453 1056 q -499 955 -499 996 l -601 955 q -546 1086 -601 1035 q -397 1137 -492 1137 q -250 1086 -304 1137 q -195 955 -195 1035 m -472 865 q -453 916 -472 895 q -398 937 -435 937 q -343 916 -362 937 q -323 865 -323 895 q -343 815 -323 836 q -398 794 -362 794 q -453 815 -435 794 q -472 865 -472 836 z "},"͓":{"ha":0,"x_min":-506,"x_max":-192,"o":"m -193 -296 l -253 -358 l -349 -259 l -446 -357 l -506 -295 l -410 -198 l -505 -100 l -445 -39 l -349 -137 l -252 -39 l -192 -101 l -289 -198 l -193 -296 z "},"͔":{"ha":0,"x_min":-557,"x_max":-212,"o":"m -212 -371 l -557 -238 l -557 -181 l -212 -48 l -212 -121 l -433 -201 l -469 -210 l -433 -219 l -212 -298 l -212 -371 z "},"͕":{"ha":0,"x_min":-534,"x_max":-189,"o":"m -534 -48 l -189 -181 l -189 -238 l -534 -371 l -534 -298 l -313 -219 l -277 -210 l -313 -201 l -534 -121 l -534 -48 z "},"͖":{"ha":0,"x_min":-661,"x_max":35,"o":"m -661 -48 l -316 -181 l -316 -238 l -661 -371 l -661 -298 l -441 -219 l -404 -210 l -441 -201 l -661 -121 l -661 -48 m -313 -370 l -170 -49 l -109 -49 l 35 -370 l -43 -370 l -130 -165 l -140 -132 l -149 -165 l -235 -370 l -313 -370 z "},"͗":{"ha":0,"x_min":-465,"x_max":-330,"o":"m -465 758 l -465 819 q -417 839 -436 819 q -397 888 -397 859 q -417 939 -397 919 q -465 960 -436 960 l -465 1021 q -369 983 -409 1021 q -330 888 -330 945 q -369 794 -330 830 q -465 758 -409 758 z "},"͘":{"ha":271,"x_min":50,"x_max":198,"o":"m 50 884 q 68 935 50 914 q 123 956 87 956 q 179 935 159 956 q 198 884 198 914 q 179 833 198 854 q 123 813 159 813 q 68 833 87 813 q 50 884 50 854 z "},"͙":{"ha":0,"x_min":-547,"x_max":-248,"o":"m -511 -319 l -439 -220 l -547 -188 l -531 -133 l -422 -173 l -425 -50 l -368 -50 l -372 -174 l -265 -135 l -248 -191 l -359 -224 l -286 -321 l -332 -355 l -400 -252 l -466 -353 l -511 -319 z "},"͚":{"ha":0,"x_min":-648,"x_max":-127,"o":"m -127 -179 q -170 -278 -127 -239 q -273 -317 -212 -317 q -388 -267 -345 -317 q -502 -317 -431 -317 q -606 -278 -564 -317 q -648 -179 -648 -239 q -606 -79 -648 -121 q -502 -38 -564 -38 q -388 -91 -431 -38 q -273 -38 -345 -38 q -170 -79 -212 -38 q -127 -179 -127 -121 m -581 -179 q -558 -233 -581 -209 q -502 -257 -536 -257 q -445 -234 -467 -257 q -423 -179 -423 -210 q -445 -123 -423 -148 q -502 -99 -467 -99 q -558 -123 -536 -99 q -581 -179 -581 -148 m -352 -179 q -330 -233 -352 -209 q -273 -257 -308 -257 q -217 -234 -239 -257 q -195 -179 -195 -210 q -217 -123 -195 -148 q -273 -99 -239 -99 q -330 -123 -308 -99 q -352 -179 -352 -148 z "},"͛":{"ha":0,"x_min":-506,"x_max":-258,"o":"m -439 1126 l -361 1126 l -403 1002 l -258 1002 l -325 801 l -402 801 l -361 925 l -506 925 l -439 1126 z "},"͜":{"ha":0,"x_min":-475,"x_max":474,"o":"m 371 -71 l 474 -71 q 292 -212 416 -151 q 0 -273 168 -273 q -293 -212 -168 -273 q -475 -71 -417 -151 l -372 -71 q -227 -152 -328 -111 q 0 -193 -125 -193 q 225 -152 124 -193 q 371 -71 327 -111 z "},"͝":{"ha":0,"x_min":-475,"x_max":474,"o":"m 371 1008 l 474 1008 q 292 867 416 928 q 0 806 168 806 q -293 867 -168 806 q -475 1008 -417 928 l -372 1008 q -227 927 -328 968 q 0 886 -125 886 q 225 927 124 886 q 371 1008 327 968 z "},"͞":{"ha":0,"x_min":-399,"x_max":399,"o":"m 399 968 l 399 872 l -399 872 l -399 968 l 399 968 z "},"͟":{"ha":0,"x_min":-399,"x_max":399,"o":"m 399 -100 l 399 -197 l -399 -197 l -399 -100 l 399 -100 z "},"͠":{"ha":0,"x_min":-640,"x_max":640,"o":"m 570 1032 l 640 1011 q 573 902 629 943 q 431 860 518 860 q 232 870 343 860 q -11 895 120 880 q -249 920 -141 909 q -432 930 -356 930 q -570 848 -541 930 l -640 865 q -575 974 -630 928 q -432 1021 -520 1021 q -245 1010 -355 1021 q 3 985 -135 1000 q 251 960 142 970 q 431 949 359 949 q 570 1032 546 949 z "},"͡":{"ha":0,"x_min":-475,"x_max":474,"o":"m 474 804 l 371 804 q 225 885 327 844 q 0 926 124 926 q -227 885 -125 926 q -372 804 -328 844 l -475 804 q -293 945 -417 884 q 0 1006 -168 1006 q 292 945 168 1006 q 474 804 416 884 z "},"͢":{"ha":0,"x_min":-475,"x_max":568,"o":"m 568 -222 l 364 -375 l 252 -375 l 416 -253 l -475 -253 l -475 -194 l 417 -194 l 252 -71 l 364 -71 l 568 -222 z "},"ͣ":{"ha":0,"x_min":-547,"x_max":-216,"o":"m -300 815 q -310 862 -307 837 q -422 808 -349 808 q -514 839 -480 808 q -547 920 -547 869 q -389 1033 -547 1030 l -312 1033 l -312 1060 q -374 1124 -312 1124 q -446 1073 -446 1124 l -524 1080 q -483 1161 -524 1128 q -374 1193 -442 1193 q -269 1159 -310 1193 q -229 1059 -229 1126 l -229 903 q -216 815 -229 853 l -300 815 m -404 876 q -348 891 -376 876 q -312 924 -321 906 l -312 977 l -380 977 q -443 961 -421 977 q -464 921 -464 944 q -404 876 -464 876 z "},"ͤ":{"ha":0,"x_min":-548,"x_max":-218,"o":"m -227 878 q -280 828 -245 850 q -370 805 -315 805 q -501 856 -454 805 q -548 986 -548 907 l -548 1001 q -498 1144 -548 1095 q -378 1193 -449 1193 q -258 1140 -298 1193 q -218 1010 -218 1088 l -218 978 l -465 978 q -367 875 -460 875 q -270 919 -304 875 l -227 878 m -378 1124 q -463 1034 -452 1124 l -296 1034 l -296 1038 q -378 1124 -302 1124 z "},"ͥ":{"ha":0,"x_min":-429,"x_max":-332,"o":"m -429 1280 q -380 1328 -429 1328 q -332 1280 -332 1328 q -380 1234 -332 1234 q -429 1280 -429 1234 m -338 1189 l -338 814 l -422 814 l -422 1189 l -338 1189 z "},"ͦ":{"ha":0,"x_min":-557,"x_max":-205,"o":"m -381 805 q -421 805 -381 805 q -509 857 -460 805 q -557 1003 -557 909 q -509 1141 -557 1089 q -382 1193 -460 1193 q -253 1141 -302 1193 q -205 995 -205 1089 q -253 857 -205 909 q -381 805 -302 805 m -381 874 q -335 874 -381 874 q -288 998 -288 874 l -288 1003 q -382 1124 -288 1124 q -474 995 -474 1124 q -381 874 -474 874 z "},"ͧ":{"ha":0,"x_min":-542,"x_max":-229,"o":"m -291 814 l -302 860 q -413 808 -338 808 q -542 958 -538 808 l -542 1189 l -458 1189 l -458 968 q -391 877 -458 877 q -312 922 -332 877 l -312 1189 l -229 1189 l -229 814 l -291 814 z "},"ͨ":{"ha":0,"x_min":-553,"x_max":-222,"o":"m -380 805 q -511 861 -469 805 q -553 991 -553 917 l -553 1006 q -511 1137 -553 1082 q -380 1193 -469 1193 q -268 1154 -310 1193 q -222 1058 -225 1116 l -302 1058 q -323 1103 -304 1082 q -380 1124 -342 1124 q -470 991 -470 1124 q -448 908 -470 942 q -380 874 -425 874 q -302 930 -313 874 l -222 930 q -271 843 -225 880 q -380 805 -316 805 z "},"ͩ":{"ha":0,"x_min":-562,"x_max":-220,"o":"m -293 814 l -298 850 q -408 805 -336 805 q -520 859 -479 805 q -562 1002 -562 912 q -520 1140 -562 1088 q -408 1193 -479 1193 q -303 1154 -340 1193 l -303 1352 l -220 1352 l -220 814 l -293 814 m -478 995 q -392 874 -478 874 q -303 931 -330 874 l -303 1067 q -391 1124 -330 1124 q -478 995 -478 1124 z "},"ͪ":{"ha":0,"x_min":-542,"x_max":-229,"o":"m -379 1124 q -458 1079 -438 1124 l -458 814 l -542 814 l -542 1352 l -458 1352 l -458 1154 q -357 1193 -422 1193 q -229 1043 -232 1193 l -229 814 l -312 814 l -312 1034 q -379 1124 -312 1124 z "},"ͫ":{"ha":0,"x_min":-654,"x_max":-110,"o":"m -491 1124 q -570 1079 -550 1124 l -570 814 l -654 814 l -654 1189 l -591 1189 l -580 1141 q -469 1193 -543 1193 q -357 1128 -387 1193 q -239 1193 -321 1193 q -110 1041 -113 1193 l -110 814 l -193 814 l -193 1034 q -261 1124 -193 1124 q -342 1072 -324 1124 l -340 1044 l -340 814 l -423 814 l -423 1034 q -491 1124 -423 1124 z "},"ͬ":{"ha":0,"x_min":-467,"x_max":-267,"o":"m -306 1122 q -385 1070 -366 1122 l -385 814 l -467 814 l -467 1189 l -405 1189 l -394 1143 q -296 1193 -360 1193 q -267 1190 -275 1193 l -267 1112 q -306 1122 -282 1122 z "},"ͭ":{"ha":0,"x_min":-513,"x_max":-293,"o":"m -296 819 q -346 812 -319 812 q -445 932 -444 812 l -445 1124 l -513 1124 l -513 1193 l -445 1193 l -445 1284 l -361 1284 l -361 1193 l -293 1193 l -293 1124 l -361 1124 l -361 939 q -327 882 -361 882 q -297 885 -312 882 l -296 819 z "},"ͮ":{"ha":0,"x_min":-553,"x_max":-210,"o":"m -210 1189 l -345 814 l -418 814 l -553 1189 l -463 1189 l -387 945 l -381 916 l -376 945 l -300 1189 l -210 1189 z "},"ͯ":{"ha":0,"x_min":-523,"x_max":-178,"o":"m -420 1189 l -351 1069 l -281 1189 l -181 1189 l -298 1004 l -178 814 l -277 814 l -350 938 l -424 814 l -523 814 l -404 1004 l -519 1189 l -420 1189 z "},"Ͱ":{"ha":778,"x_min":115,"x_max":749,"o":"m 749 456 l 245 456 l 245 0 l 115 0 l 115 987 l 245 987 l 245 563 l 749 563 l 749 456 z "},"ͱ":{"ha":667,"x_min":20,"x_max":646,"o":"m 646 314 l 292 314 l 292 0 l 166 0 l 166 550 q 62 657 163 657 q 21 652 40 657 l 20 739 q 88 747 50 747 q 232 694 172 747 q 292 543 292 642 l 292 416 l 646 416 l 646 314 z "},"Ͳ":{"ha":829,"x_min":34,"x_max":797,"o":"m 34 617 l 34 987 l 797 987 l 797 617 l 692 617 l 692 880 l 479 880 l 479 0 l 351 0 l 351 880 l 138 880 l 138 617 l 34 617 z "},"ͳ":{"ha":643,"x_min":35,"x_max":609,"o":"m 35 987 l 609 987 l 609 680 l 507 680 l 507 884 l 384 884 l 384 0 l 259 0 l 259 884 l 136 884 l 136 680 l 35 680 l 35 987 z "},"ʹ":{"ha":309,"x_min":54,"x_max":255,"o":"m 54 816 l 139 1059 l 255 1059 l 132 816 l 54 816 z "},"͵":{"ha":309,"x_min":54,"x_max":255,"o":"m 255 -44 l 170 -288 l 54 -288 l 178 -44 l 255 -44 z "},"Ͷ":{"ha":991,"x_min":121,"x_max":868,"o":"m 251 227 l 737 987 l 868 987 l 868 0 l 737 0 l 737 762 l 251 0 l 121 0 l 121 987 l 251 987 l 251 227 z "},"ͷ":{"ha":827,"x_min":106,"x_max":788,"o":"m 231 734 l 231 196 l 570 734 l 696 734 l 696 200 q 712 118 696 138 q 749 98 728 98 q 773 102 761 98 l 788 9 q 705 -14 755 -14 q 570 184 574 -14 l 570 538 l 231 0 l 106 0 l 106 734 l 231 734 z "},"ͻ":{"ha":727,"x_min":46,"x_max":665,"o":"m 46 232 l 165 232 q 220 129 170 170 q 338 89 271 89 q 538 369 538 89 l 538 381 q 520 505 538 445 q 459 605 503 566 q 338 644 415 644 q 216 597 262 644 q 165 481 170 549 l 46 481 q 130 671 52 595 q 338 747 209 747 q 584 638 503 747 q 665 380 665 529 l 665 353 q 584 96 665 205 q 338 -14 503 -14 q 136 60 221 -14 q 46 232 52 134 z "},"ͼ":{"ha":727,"x_min":63,"x_max":682,"o":"m 389 -14 q 143 96 224 -14 q 63 353 63 205 l 63 381 q 143 638 63 529 q 389 747 224 747 q 597 671 518 747 q 682 481 677 595 l 562 481 q 511 597 557 549 q 389 644 465 644 q 268 605 312 644 q 207 505 224 566 q 189 381 189 445 l 189 353 q 206 228 189 288 q 268 129 224 168 q 389 90 311 90 q 507 130 456 90 q 562 232 557 170 l 682 232 q 591 60 677 134 q 389 -14 506 -14 m 298 364 q 316 416 298 395 q 372 437 335 437 q 427 416 408 437 q 446 364 446 395 q 427 314 446 335 q 372 294 408 294 q 316 314 335 294 q 298 364 298 335 z "},"ͽ":{"ha":727,"x_min":46,"x_max":665,"o":"m 46 232 l 165 232 q 220 129 170 170 q 338 89 271 89 q 538 369 538 89 l 538 381 q 520 505 538 445 q 459 605 503 566 q 338 644 415 644 q 216 597 262 644 q 165 481 170 549 l 46 481 q 130 671 52 595 q 338 747 209 747 q 584 638 503 747 q 665 380 665 529 l 665 353 q 584 96 665 205 q 338 -14 503 -14 q 136 60 221 -14 q 46 232 52 134 m 340 294 q 285 314 304 294 q 267 364 267 335 q 285 416 267 395 q 340 437 304 437 q 396 416 376 437 q 415 364 415 395 q 396 314 415 335 q 340 294 376 294 z "},";":{"ha":347,"x_min":50,"x_max":253,"o":"m 97 665 q 117 719 97 697 q 175 741 137 741 q 233 719 213 741 q 253 665 253 697 q 233 612 253 634 q 175 591 213 591 q 117 612 137 591 q 97 665 97 634 m 240 149 l 240 48 q 209 -82 240 -14 q 121 -197 178 -151 l 50 -148 q 117 38 115 -57 l 117 149 l 240 149 z "},"΄":{"ha":357,"x_min":125,"x_max":279,"o":"m 125 857 l 161 1084 l 279 1084 l 201 857 l 125 857 z "},"΅":{"ha":703,"x_min":77,"x_max":610,"o":"m 294 956 l 326 1135 l 454 1135 l 386 956 l 294 956 m 77 930 q 96 981 77 960 q 151 1002 115 1002 q 207 981 187 1002 q 226 930 226 960 q 207 880 226 901 q 151 859 187 859 q 96 880 115 859 q 77 930 77 901 m 461 928 q 480 980 461 959 q 535 1001 499 1001 q 591 980 572 1001 q 610 928 610 959 q 591 879 610 899 q 535 858 572 858 q 480 879 499 858 q 461 928 461 899 z "},"·":{"ha":363,"x_min":100,"x_max":256,"o":"m 100 494 q 120 548 100 526 q 178 570 140 570 q 236 548 216 570 q 256 494 256 526 q 236 442 256 463 q 178 420 216 420 q 120 442 140 420 q 100 494 100 463 z "},"Γ":{"ha":772,"x_min":121,"x_max":727,"o":"m 727 987 l 727 880 l 251 880 l 251 0 l 121 0 l 121 987 l 727 987 z "},"Δ":{"ha":979,"x_min":22,"x_max":947,"o":"m 22 0 l 438 987 l 553 987 l 947 0 l 22 0 m 199 106 l 772 106 l 494 827 l 199 106 z "},"∆":{"ha":979,"x_min":22,"x_max":947,"o":"m 22 0 l 438 987 l 553 987 l 947 0 l 22 0 m 199 106 l 772 106 l 494 827 l 199 106 z "},"Θ":{"ha":945,"x_min":70,"x_max":864,"o":"m 864 463 q 756 113 864 240 q 468 -14 648 -14 q 181 113 292 -14 q 70 463 70 240 l 70 525 q 180 874 70 747 q 467 1001 291 1001 q 754 876 646 1001 q 864 533 862 751 l 864 463 m 734 526 q 664 796 734 703 q 467 890 593 890 q 273 796 346 890 q 199 526 199 703 l 199 463 q 273 191 199 285 q 468 97 347 97 q 665 191 595 97 q 734 463 734 285 l 734 526 m 651 550 l 651 448 l 301 448 l 301 550 l 651 550 z "},"Λ":{"ha":911,"x_min":34,"x_max":870,"o":"m 34 0 l 394 987 l 511 987 l 870 0 l 730 0 l 452 787 l 174 0 l 34 0 z "},"Ξ":{"ha":793,"x_min":81,"x_max":718,"o":"m 84 880 l 84 987 l 706 987 l 706 880 l 84 880 m 140 457 l 140 564 l 652 564 l 652 457 l 140 457 m 81 0 l 81 106 l 718 106 l 718 0 l 81 0 z "},"Π":{"ha":991,"x_min":121,"x_max":869,"o":"m 869 987 l 869 0 l 739 0 l 739 880 l 252 880 l 252 0 l 121 0 l 121 987 l 869 987 z "},"Σ":{"ha":793,"x_min":47,"x_max":741,"o":"m 47 890 l 47 987 l 708 987 l 708 880 l 212 880 l 512 503 l 512 487 l 211 107 l 741 107 l 741 0 l 47 0 l 47 97 l 374 495 l 47 890 z "},"Φ":{"ha":995,"x_min":53,"x_max":947,"o":"m 947 491 q 842 226 947 329 q 566 119 738 123 l 566 0 l 435 0 l 435 119 q 158 225 262 123 q 53 490 53 327 q 159 757 53 653 q 435 863 266 861 l 435 987 l 566 987 l 566 863 q 841 757 734 860 q 947 491 947 654 m 182 490 q 244 301 182 372 q 435 227 307 230 l 435 755 q 245 681 309 753 q 182 490 182 609 m 817 491 q 754 681 817 610 q 566 755 691 753 l 566 227 q 755 301 694 230 q 817 491 817 373 z "},"Ψ":{"ha":961,"x_min":61,"x_max":891,"o":"m 536 246 l 536 0 l 406 0 l 406 246 q 158 361 254 262 q 61 631 61 460 l 61 987 l 191 987 l 191 631 q 251 442 191 513 q 406 355 310 371 l 406 987 l 536 987 l 536 355 q 699 440 638 370 q 760 631 760 511 l 760 987 l 891 987 l 891 631 q 792 361 891 460 q 536 246 692 262 z "},"Ω":{"ha":924,"x_min":77,"x_max":833,"o":"m 210 492 q 266 223 210 319 q 414 111 323 128 l 414 0 l 80 0 l 80 106 l 231 106 q 119 278 160 175 q 77 492 77 381 l 77 570 q 182 882 77 762 q 454 1001 286 1001 q 728 882 623 1001 q 833 570 833 762 l 833 492 q 791 278 833 381 q 680 106 750 175 l 828 106 l 828 0 l 500 0 l 500 111 q 646 224 591 129 q 701 492 701 319 l 701 571 q 634 812 701 729 q 454 895 568 895 q 275 812 341 895 q 210 571 210 729 l 210 492 z "},"Ω":{"ha":924,"x_min":77,"x_max":833,"o":"m 210 492 q 266 223 210 319 q 414 111 323 128 l 414 0 l 80 0 l 80 106 l 231 106 q 119 278 160 175 q 77 492 77 381 l 77 570 q 182 882 77 762 q 454 1001 286 1001 q 728 882 623 1001 q 833 570 833 762 l 833 492 q 791 278 833 381 q 680 106 750 175 l 828 106 l 828 0 l 500 0 l 500 111 q 646 224 591 129 q 701 492 701 319 l 701 571 q 634 812 701 729 q 454 895 568 895 q 275 812 341 895 q 210 571 210 729 l 210 492 z "},"α":{"ha":785,"x_min":68,"x_max":776,"o":"m 776 9 q 692 -14 743 -14 q 567 97 593 -14 q 353 -14 494 -14 q 142 85 217 -14 q 68 340 68 184 l 68 354 q 142 637 68 528 q 355 747 216 747 q 565 639 492 747 l 576 734 l 683 734 l 683 189 q 737 98 685 98 q 760 102 748 98 l 776 9 m 194 340 q 238 162 194 235 q 385 89 283 89 q 491 124 450 89 q 557 214 532 160 l 557 517 q 491 608 532 572 q 386 644 450 644 q 239 558 283 644 q 194 353 194 472 l 194 340 z "},"β":{"ha":823,"x_min":109,"x_max":747,"o":"m 439 -14 q 235 52 317 -14 l 235 -260 l 109 -260 l 109 728 q 198 921 109 841 q 411 1001 288 1001 q 622 926 543 1001 q 701 735 701 852 q 575 538 701 605 q 703 442 658 509 q 747 288 747 375 q 660 65 747 144 q 439 -14 573 -14 m 351 479 l 351 582 l 412 582 q 537 626 498 583 q 575 738 575 669 q 534 848 575 798 q 411 898 493 898 q 286 849 336 898 q 235 728 235 801 l 235 167 q 314 110 264 132 q 427 89 363 89 q 570 144 519 89 q 621 286 621 199 q 576 418 621 357 q 448 479 532 479 l 351 479 z "},"γ":{"ha":696,"x_min":32,"x_max":673,"o":"m 673 734 l 415 39 l 415 -283 l 290 -283 l 290 42 l 32 734 l 160 734 l 355 187 l 544 734 l 673 734 z "},"δ":{"ha":787,"x_min":66,"x_max":722,"o":"m 150 861 q 219 1007 150 954 q 407 1061 288 1061 q 591 1023 503 1061 l 591 916 q 404 956 482 956 q 312 931 346 956 q 277 864 277 906 q 307 804 277 837 q 432 738 337 770 q 722 369 717 641 l 722 345 q 635 89 722 192 q 395 -14 548 -14 q 152 89 239 -14 q 66 345 66 192 l 66 360 q 133 567 66 481 q 290 675 201 654 l 290 678 q 150 861 150 732 m 192 345 q 241 165 192 241 q 395 89 290 89 q 546 165 498 89 q 595 345 595 241 l 595 360 q 540 524 595 446 q 396 618 485 601 q 242 541 292 618 q 192 360 192 463 l 192 345 z "},"ε":{"ha":749,"x_min":68,"x_max":681,"o":"m 505 425 l 505 325 l 357 325 q 194 206 194 321 q 241 123 194 159 q 374 88 288 88 q 506 127 456 88 q 556 217 556 167 l 681 217 q 635 86 681 137 q 520 11 590 35 q 374 -14 450 -14 q 155 45 241 -14 q 68 207 68 103 q 205 378 68 333 q 81 534 81 429 q 161 692 81 637 q 374 747 241 747 q 582 688 494 747 q 669 530 669 630 l 544 530 q 494 611 544 578 q 374 645 445 645 q 247 611 288 645 q 206 534 206 576 q 243 455 206 486 q 366 425 281 425 l 505 425 z "},"ζ":{"ha":720,"x_min":74,"x_max":654,"o":"m 74 885 l 74 987 l 654 987 l 654 906 l 412 613 q 292 438 331 515 q 254 262 254 361 q 277 167 254 199 q 355 118 300 135 l 450 90 q 575 46 526 69 q 625 -60 625 22 q 583 -172 624 -114 q 505 -260 541 -231 l 439 -203 q 488 -138 471 -167 q 505 -79 505 -110 q 404 -7 505 -35 l 340 9 q 175 96 222 41 q 127 258 127 152 q 170 439 127 332 q 313 665 213 547 l 507 885 l 74 885 z "},"η":{"ha":787,"x_min":99,"x_max":684,"o":"m 684 -281 l 559 -281 l 559 469 q 517 607 559 570 q 399 644 475 644 q 224 532 275 644 l 224 0 l 99 0 l 99 734 l 212 734 l 219 642 q 436 747 299 747 q 617 688 551 747 q 684 471 684 629 l 684 -281 z "},"θ":{"ha":791,"x_min":83,"x_max":707,"o":"m 707 434 q 623 96 707 205 q 396 -14 540 -14 q 171 93 256 -14 q 83 420 86 199 l 83 559 q 168 895 83 788 q 395 1001 253 1001 q 620 898 536 1001 q 707 574 704 794 l 707 434 m 209 543 l 581 543 l 581 581 q 534 816 581 734 q 395 899 486 899 q 257 816 304 899 q 209 581 209 734 l 209 543 m 209 414 q 257 175 209 261 q 396 90 306 90 q 535 175 488 90 q 581 414 581 261 l 581 441 l 209 441 l 209 414 z "},"ι":{"ha":450,"x_min":132,"x_max":399,"o":"m 132 734 l 258 734 l 258 187 q 283 115 258 131 q 339 99 308 99 q 398 107 363 99 l 399 5 q 302 -9 354 -9 q 182 34 232 -9 q 132 188 132 77 l 132 734 z "},"λ":{"ha":770,"x_min":26,"x_max":734,"o":"m 734 -3 q 682 -12 712 -12 q 585 12 621 -12 q 516 123 549 36 l 359 530 l 165 0 l 26 0 l 293 699 l 226 861 q 145 926 199 926 l 113 925 l 113 1021 q 178 1029 140 1029 q 288 1000 251 1029 q 346 917 326 970 l 636 162 q 705 98 661 98 l 730 100 l 734 -3 z "},"ξ":{"ha":681,"x_min":69,"x_max":636,"o":"m 555 623 l 555 519 l 454 519 q 262 465 330 518 q 195 301 195 412 q 253 162 195 210 q 385 96 311 114 l 460 79 q 590 31 543 58 q 636 -68 636 4 q 593 -180 635 -122 q 517 -267 552 -237 l 444 -210 l 496 -149 q 516 -83 516 -123 q 414 -16 516 -40 l 374 -6 q 149 93 228 29 q 69 304 69 157 q 127 474 69 407 q 283 572 184 541 q 158 652 203 600 q 113 768 113 704 q 203 940 113 879 q 442 1001 292 1001 q 616 975 543 1001 l 599 874 q 444 899 509 899 q 288 860 336 899 q 239 771 239 821 q 290 664 239 705 q 460 623 342 623 l 555 623 z "},"π":{"ha":828,"x_min":28,"x_max":806,"o":"m 28 630 l 28 734 l 771 734 l 771 630 l 666 630 l 666 187 q 690 115 666 131 q 747 99 715 99 q 806 107 770 99 l 806 5 q 709 -9 762 -9 q 590 34 640 -9 q 540 188 540 77 l 540 630 l 269 630 l 269 0 l 142 0 l 142 630 l 28 630 z "},"ρ":{"ha":787,"x_min":99,"x_max":716,"o":"m 435 -14 q 225 71 302 -14 l 224 -282 l 99 -282 l 99 395 q 189 658 100 568 q 401 747 279 747 q 635 640 556 747 q 716 362 714 533 l 716 340 q 643 85 716 184 q 435 -14 570 -14 m 225 189 q 397 90 281 90 q 544 162 498 90 q 590 340 590 235 l 590 354 q 547 558 590 472 q 401 644 505 644 q 299 604 338 644 q 243 505 260 564 q 225 391 225 446 l 225 189 z "},"ς":{"ha":747,"x_min":68,"x_max":674,"o":"m 389 747 q 593 678 513 747 q 674 481 674 608 l 555 481 q 513 597 555 549 q 389 644 472 644 q 240 561 286 644 q 195 381 195 477 l 195 353 q 431 104 195 170 q 594 36 566 66 q 623 -56 623 5 q 581 -166 623 -109 q 505 -254 540 -224 l 438 -197 q 486 -136 469 -161 q 503 -72 503 -111 q 477 -26 503 -41 q 395 1 451 -12 q 153 123 237 36 q 68 351 69 210 l 68 381 q 152 638 68 529 q 389 747 236 747 z "},"σ":{"ha":787,"x_min":66,"x_max":779,"o":"m 66 374 q 152 631 66 528 q 392 734 239 734 l 392 734 l 779 734 l 779 630 l 587 630 q 722 349 722 530 l 722 334 q 683 164 722 243 q 570 36 644 85 q 394 -14 496 -14 q 153 93 239 -14 q 66 359 66 199 l 66 374 m 191 359 q 240 170 191 250 q 394 90 289 90 q 547 170 498 90 q 595 359 595 250 l 595 374 q 547 553 595 477 q 393 630 498 630 q 241 554 290 630 q 191 377 192 479 l 191 359 z "},"τ":{"ha":724,"x_min":55,"x_max":669,"o":"m 55 632 l 55 734 l 669 734 l 669 632 l 416 632 l 416 183 q 438 110 416 127 q 488 93 459 93 q 551 111 521 93 l 578 22 q 456 -14 528 -14 q 334 33 378 -14 q 291 190 291 79 l 291 632 l 55 632 z "},"υ":{"ha":758,"x_min":98,"x_max":688,"o":"m 98 734 l 223 734 l 223 289 q 262 135 223 181 q 360 89 300 89 q 472 133 427 89 q 539 244 517 177 q 562 381 562 311 q 479 734 560 538 l 611 734 q 665 583 642 671 q 688 382 688 496 q 653 187 688 277 q 547 41 618 97 q 366 -14 476 -14 q 171 58 243 -14 q 98 288 98 130 l 98 734 z "},"φ":{"ha":979,"x_min":60,"x_max":920,"o":"m 920 369 q 834 117 920 229 q 547 -12 749 5 l 547 -324 l 421 -324 l 421 -12 q 142 121 224 6 q 60 382 60 237 q 233 734 60 615 l 301 644 q 215 521 241 591 q 185 382 189 451 q 238 200 185 288 q 421 94 290 113 l 421 580 q 468 692 421 650 q 591 734 515 734 q 824 628 728 734 q 920 369 920 523 m 547 93 q 738 195 682 111 q 794 369 794 279 q 741 549 792 468 q 591 631 690 631 q 547 575 547 631 l 547 93 z "},"ψ":{"ha":972,"x_min":65,"x_max":913,"o":"m 913 385 q 878 200 913 286 q 760 56 842 113 q 541 -12 677 -1 l 541 -321 l 415 -321 l 415 -11 q 159 105 253 5 q 65 404 65 205 l 65 734 l 191 734 l 191 397 q 255 180 192 251 q 415 94 318 109 l 415 734 l 541 734 l 541 93 q 733 201 677 113 q 788 385 788 289 q 702 734 785 544 l 834 734 q 889 585 865 671 q 913 385 913 498 z "},"ω":{"ha":1144,"x_min":83,"x_max":1059,"o":"m 508 522 l 634 522 l 634 315 q 678 141 635 193 q 784 89 721 89 q 900 175 866 89 q 933 380 933 262 q 836 734 930 539 l 967 734 q 1031 583 1003 670 q 1059 380 1059 495 q 1033 186 1059 277 q 947 41 1006 96 q 791 -14 888 -14 q 571 149 627 -14 q 351 -14 515 -14 q 195 41 254 -14 q 109 186 136 96 q 83 380 83 277 q 111 583 83 495 q 175 734 138 670 l 307 734 q 209 380 212 539 q 242 176 209 262 q 357 89 276 89 q 465 141 422 89 q 508 319 508 194 l 508 522 z "},"Ϗ":{"ha":871,"x_min":115,"x_max":871,"o":"m 871 0 l 585 -249 l 517 -169 l 715 1 l 366 460 l 245 334 l 245 0 l 115 0 l 115 987 l 245 987 l 245 500 l 684 987 l 842 987 l 454 551 l 871 0 z "},"ϐ":{"ha":781,"x_min":62,"x_max":718,"o":"m 718 324 q 718 248 718 324 q 631 79 718 172 q 391 -14 545 -14 q 149 103 233 -14 q 62 447 64 220 l 62 507 q 100 788 62 665 q 217 984 138 912 q 418 1056 296 1056 q 570 1008 507 1056 q 633 871 633 960 q 582 746 633 804 q 410 688 530 688 q 193 730 297 688 q 171 524 172 641 q 275 607 212 575 q 417 639 338 639 q 633 558 549 639 q 718 324 718 477 m 403 953 q 227 829 287 953 q 395 791 322 791 q 482 817 456 791 q 508 867 508 842 q 483 926 508 899 q 403 953 458 953 m 396 536 q 254 481 315 536 q 194 324 194 426 q 240 155 194 222 q 391 89 286 89 q 543 155 494 89 q 592 324 592 222 q 396 536 592 536 z "},"ϑ":{"ha":804,"x_min":83,"x_max":777,"o":"m 387 -14 q 166 70 250 -14 q 83 296 83 154 l 83 522 l 208 523 l 208 296 q 256 146 208 199 q 387 93 304 93 q 510 142 466 93 q 555 296 555 192 l 555 408 q 314 527 402 430 q 225 758 225 623 l 225 768 q 289 941 225 880 q 451 1003 353 1003 q 618 937 557 1003 q 680 750 680 871 l 680 511 q 772 527 725 515 l 777 426 q 680 404 734 410 l 680 290 q 598 64 678 143 q 387 -14 518 -14 m 351 755 q 402 605 351 672 q 555 517 454 538 l 555 755 q 451 896 553 896 q 379 867 408 896 q 351 755 351 838 z "},"ϒ":{"ha":740,"x_min":-26,"x_max":770,"o":"m 437 389 l 437 0 l 307 0 l 307 389 l 106 826 q 34 881 81 881 q -2 875 7 881 l -26 977 q 58 996 13 996 q 148 971 109 996 q 222 869 188 947 l 372 524 l 524 869 q 594 970 557 943 q 685 996 631 996 q 770 978 731 996 l 745 875 q 710 881 737 881 q 637 825 663 881 l 437 389 z "},"ϕ":{"ha":1008,"x_min":68,"x_max":939,"o":"m 674 -14 q 562 8 609 -14 l 562 -282 l 435 -282 l 435 5 q 334 -14 392 -14 q 137 84 205 -14 q 68 337 68 182 l 68 354 q 136 637 68 528 q 335 747 203 747 q 435 728 393 747 l 435 1042 l 562 1042 l 562 724 q 673 747 608 747 q 871 638 804 747 q 939 357 939 530 l 939 340 q 872 85 939 184 q 674 -14 804 -14 m 635 644 q 562 631 592 644 l 562 100 q 637 89 593 89 q 772 162 731 89 q 814 340 814 235 l 814 354 q 772 558 814 472 q 635 644 731 644 m 194 340 q 232 162 194 235 q 365 89 270 89 q 435 100 406 89 l 435 633 q 366 644 406 644 q 232 558 271 644 q 194 340 194 473 z "},"ϖ":{"ha":1090,"x_min":51,"x_max":1060,"o":"m 51 631 l 51 734 l 1060 734 l 1060 631 l 968 631 q 1011 380 1011 511 q 987 186 1011 277 q 910 41 964 96 q 768 -14 857 -14 q 549 149 605 -14 q 329 -14 492 -14 q 187 41 240 -14 q 110 186 134 96 q 85 380 85 277 q 130 631 85 513 l 51 631 m 486 490 l 612 490 l 612 315 q 655 141 612 193 q 762 89 698 89 q 857 175 829 89 q 886 380 886 262 q 832 631 882 500 l 265 631 q 212 380 214 497 q 240 176 212 262 q 336 89 269 89 q 443 141 400 89 q 486 319 486 194 l 486 490 z "},"ϗ":{"ha":905,"x_min":20,"x_max":884,"o":"m 884 -36 q 823 -209 884 -149 q 666 -269 762 -269 q 586 -258 622 -269 l 586 -157 q 633 -163 606 -163 q 724 -134 690 -163 q 758 -36 758 -106 q 747 53 758 12 q 702 169 736 93 q 610 485 637 311 l 248 0 l 113 0 l 186 99 l 186 511 q 155 611 186 582 q 67 640 123 640 q 21 634 41 640 l 20 735 q 99 747 57 747 q 254 686 195 747 q 313 511 313 625 l 313 268 l 661 734 l 795 734 l 711 621 q 820 214 734 399 q 869 86 854 140 q 884 -36 884 33 z "},"Ϙ":{"ha":956,"x_min":81,"x_max":875,"o":"m 875 463 q 785 137 875 261 q 543 -9 696 14 l 543 -282 l 412 -282 l 412 -9 q 173 137 264 15 q 81 456 82 259 l 81 525 q 191 874 81 747 q 477 1001 302 1001 q 765 876 656 1001 q 875 533 873 751 l 875 463 m 745 526 q 675 796 745 703 q 477 890 604 890 q 283 796 356 890 q 210 526 210 703 l 210 463 q 284 191 210 285 q 479 97 357 97 q 676 191 606 97 q 745 463 745 285 l 745 526 z "},"ϙ":{"ha":792,"x_min":62,"x_max":730,"o":"m 730 359 q 658 115 730 216 q 458 -8 585 13 l 458 -282 l 333 -282 l 333 -8 q 136 114 208 14 q 62 353 64 214 l 62 374 q 152 641 62 534 q 395 747 241 747 q 639 643 549 747 q 730 381 728 538 l 730 359 m 188 359 q 240 170 188 250 q 397 90 292 90 q 551 169 499 90 q 604 357 604 248 l 604 374 q 552 563 604 482 q 395 644 500 644 q 240 563 292 644 q 188 374 188 482 l 188 359 z "},"Ϛ":{"ha":904,"x_min":81,"x_max":841,"o":"m 600 -266 l 600 -159 q 683 -96 683 -151 q 625 -29 683 -48 l 401 43 q 172 182 263 89 q 81 450 81 275 l 81 544 q 189 876 81 751 q 479 1001 296 1001 q 736 909 646 1001 q 841 671 826 817 l 711 671 q 650 827 697 760 q 479 894 603 894 q 279 798 346 894 q 212 545 212 703 l 212 450 q 273 255 212 321 q 426 158 334 189 l 654 82 q 768 19 722 59 q 813 -87 813 -20 q 759 -209 813 -161 q 600 -266 705 -256 z "},"ϛ":{"ha":727,"x_min":63,"x_max":684,"o":"m 467 -254 l 467 -148 q 559 -83 559 -148 q 484 -12 559 -28 l 306 31 q 136 124 209 56 q 63 354 63 193 l 63 382 q 143 639 63 530 q 389 747 224 747 q 597 671 518 747 q 682 481 677 595 l 562 481 q 511 597 557 549 q 389 644 465 644 q 268 605 312 644 q 207 506 224 566 q 189 382 189 446 l 189 354 q 238 201 189 250 q 358 131 288 151 l 553 75 q 650 21 615 56 q 684 -79 684 -14 q 631 -205 684 -157 q 467 -254 578 -254 z "},"Ϝ":{"ha":768,"x_min":115,"x_max":726,"o":"m 726 880 l 245 880 l 245 543 l 659 543 l 659 291 l 554 291 l 554 436 l 245 436 l 245 0 l 115 0 l 115 987 l 726 987 l 726 880 z "},"ϝ":{"ha":713,"x_min":105,"x_max":656,"o":"m 656 632 l 231 632 l 231 387 l 597 387 l 597 161 l 496 161 l 496 286 l 231 286 l 231 -282 l 105 -282 l 105 734 l 656 734 l 656 632 z "},"Ϟ":{"ha":852,"x_min":21,"x_max":831,"o":"m 821 -10 q 771 -14 795 -14 q 609 48 663 -14 q 555 193 555 111 q 563 311 555 242 l 595 584 l 136 197 l 117 204 l 172 762 l 172 783 q 47 907 172 907 l 21 906 l 31 1006 q 82 1010 55 1010 q 245 944 192 1010 q 298 778 298 878 l 296 738 l 267 474 l 729 867 l 751 858 l 688 300 l 680 203 q 708 120 680 151 q 798 89 737 89 l 831 90 l 821 -10 z "},"ϟ":{"ha":724,"x_min":50,"x_max":674,"o":"m 382 987 l 212 541 l 674 541 l 674 504 l 476 0 l 341 0 l 511 437 l 50 437 l 50 475 l 248 987 l 382 987 z "},"Ϡ":{"ha":1047,"x_min":18,"x_max":966,"o":"m 966 312 q 836 -130 966 37 q 475 -296 706 -296 l 475 -177 q 741 -51 647 -177 q 840 286 834 76 l 430 49 l 380 138 l 840 404 q 802 651 839 546 l 291 357 l 240 446 l 757 743 q 473 895 660 895 q 254 817 334 895 q 149 595 174 739 l 18 595 q 85 793 33 700 q 234 943 138 886 q 473 1001 330 1001 q 839 838 714 1001 q 966 405 963 675 l 966 312 z "},"ϡ":{"ha":941,"x_min":37,"x_max":893,"o":"m 893 -233 l 779 -296 q 766 3 779 -135 q 724 258 754 140 l 253 -14 l 202 75 l 693 359 q 581 580 650 480 l 100 301 l 49 390 l 518 661 q 37 996 353 848 l 151 1059 q 600 753 438 929 q 827 335 761 577 q 893 -233 893 94 z "},"ϰ":{"ha":893,"x_min":20,"x_max":873,"o":"m 873 -2 q 795 -14 836 -14 q 640 47 699 -14 q 581 222 581 108 l 581 446 l 248 0 l 113 0 l 186 99 l 186 511 q 155 611 186 582 q 67 640 123 640 q 21 634 41 640 l 20 735 q 99 747 57 747 q 254 686 195 747 q 313 511 313 625 l 313 268 l 661 734 l 795 734 l 707 615 l 707 222 q 738 122 707 151 q 826 93 770 93 q 872 99 852 93 l 873 -2 z "},"ϱ":{"ha":781,"x_min":62,"x_max":718,"o":"m 62 388 q 149 644 62 541 q 391 747 236 747 q 631 644 545 747 q 718 388 718 541 l 718 373 q 638 136 718 231 q 414 41 557 41 q 275 73 336 41 q 170 155 214 105 q 257 -25 191 31 q 417 -102 324 -81 q 549 -136 511 -123 q 635 -197 604 -155 q 665 -321 665 -238 l 562 -321 q 529 -253 562 -275 q 390 -210 496 -231 q 208 -117 285 -189 q 97 60 131 -45 q 62 316 63 165 l 62 388 m 389 143 q 543 212 494 143 q 592 373 592 281 l 592 388 q 543 568 592 491 q 391 644 494 644 q 237 568 286 644 q 188 388 188 491 l 188 373 q 237 212 188 281 q 389 143 286 143 z "},"ϵ":{"ha":625,"x_min":62,"x_max":597,"o":"m 597 103 l 597 0 l 389 0 q 142 102 222 0 q 62 353 62 205 l 62 381 q 142 630 62 528 q 382 734 221 732 l 596 734 l 596 631 l 389 631 q 240 567 285 631 q 189 418 196 503 l 469 418 l 469 315 l 189 315 q 240 166 196 229 q 389 103 283 103 l 597 103 z "},"϶":{"ha":625,"x_min":28,"x_max":562,"o":"m 562 353 q 482 102 562 205 q 235 0 401 0 l 28 0 l 28 103 l 235 103 q 384 166 340 103 q 435 315 428 229 l 155 315 l 155 418 l 435 418 q 384 567 429 503 q 235 631 340 631 l 28 631 l 28 734 l 239 734 q 481 631 401 733 q 562 383 562 530 l 562 353 z "},"ϻ":{"ha":1008,"x_min":96,"x_max":912,"o":"m 506 167 l 755 734 l 912 734 l 912 0 l 787 0 l 787 533 l 549 0 l 463 0 l 221 544 l 221 -282 l 96 -282 l 96 734 l 258 734 l 506 167 z "},"ϼ":{"ha":833,"x_min":15,"x_max":762,"o":"m 481 -14 q 271 71 348 -14 l 271 -282 l 145 -282 l 145 395 q 235 658 146 568 q 448 747 325 747 q 681 640 602 747 q 762 362 760 533 l 762 340 q 689 85 762 184 q 481 -14 616 -14 m 271 189 q 443 90 328 90 q 590 162 545 90 q 636 340 636 235 l 636 354 q 593 558 636 472 q 448 644 551 644 q 346 604 385 644 q 289 505 307 564 q 271 391 271 446 l 271 189 m 447 -66 l 447 -170 l 15 -170 l 15 -66 l 447 -66 z "},"Ͻ":{"ha":904,"x_min":63,"x_max":823,"o":"m 63 317 l 194 317 q 260 154 209 214 q 426 94 311 94 q 625 190 557 94 q 692 444 692 286 l 692 543 q 631 792 692 689 q 437 895 569 895 q 261 836 313 895 q 194 673 210 778 l 63 673 q 169 907 79 814 q 437 1001 260 1001 q 718 876 612 1001 q 823 543 823 751 l 823 445 q 716 112 823 237 q 426 -14 610 -14 q 168 79 258 -14 q 63 317 79 171 z "},"Ͼ":{"ha":904,"x_min":81,"x_max":841,"o":"m 711 314 l 841 314 q 735 80 826 174 q 467 -14 644 -14 q 189 110 294 -14 q 81 437 83 233 l 81 543 q 188 876 81 750 q 478 1001 295 1001 q 736 909 646 1001 q 841 671 826 817 l 711 671 q 644 834 696 774 q 478 894 593 894 q 279 798 347 894 q 212 544 212 701 l 212 444 q 273 196 212 298 q 467 93 335 93 q 643 151 591 93 q 711 314 694 210 m 388 493 q 407 545 388 524 q 462 566 425 566 q 517 545 498 566 q 536 493 536 524 q 517 443 536 463 q 462 422 498 422 q 407 443 425 422 q 388 493 388 463 z "},"Ͽ":{"ha":904,"x_min":63,"x_max":823,"o":"m 63 317 l 194 317 q 260 154 209 214 q 426 94 311 94 q 625 190 557 94 q 692 444 692 286 l 692 543 q 631 792 692 689 q 437 895 569 895 q 261 836 313 895 q 194 673 210 778 l 63 673 q 169 907 79 814 q 437 1001 260 1001 q 718 876 612 1001 q 823 543 823 751 l 823 445 q 716 112 823 237 q 426 -14 610 -14 q 168 79 258 -14 q 63 317 79 171 m 420 422 q 366 443 385 422 q 347 493 347 463 q 366 545 347 524 q 420 566 385 566 q 476 545 457 566 q 495 493 495 524 q 476 443 495 463 q 420 422 457 422 z "},"Ђ":{"ha":1042,"x_min":29,"x_max":989,"o":"m 29 880 l 29 987 l 795 987 l 795 880 l 441 880 l 441 572 q 637 605 551 605 q 895 524 802 605 q 989 294 989 444 q 904 72 989 152 q 651 -8 819 -8 l 650 94 q 812 150 766 94 q 858 293 858 205 q 636 492 857 492 q 441 460 536 492 l 441 0 l 311 0 l 311 880 l 29 880 z "},"Є":{"ha":937,"x_min":83,"x_max":844,"o":"m 844 314 q 738 80 829 174 q 470 -14 647 -14 q 189 112 295 -14 q 83 444 83 237 l 83 542 q 190 876 83 750 q 481 1001 297 1001 q 739 909 649 1001 q 844 671 829 817 l 713 671 q 647 834 699 774 q 481 894 595 894 q 284 800 351 894 q 215 552 217 706 l 601 552 l 601 446 l 215 446 l 215 444 q 277 196 215 298 q 470 93 338 93 q 646 151 594 93 q 713 314 697 209 l 844 314 z "},"Љ":{"ha":1488,"x_min":34,"x_max":1429,"o":"m 254 987 l 857 987 l 857 605 l 1100 605 q 1344 518 1259 604 q 1429 302 1429 432 q 1343 86 1429 172 q 1095 0 1257 0 l 726 0 l 726 880 l 380 880 l 361 489 q 290 118 348 235 q 73 0 232 1 l 34 0 l 34 106 l 62 109 q 192 208 158 116 q 235 526 226 300 l 254 987 m 857 106 l 1095 106 q 1251 168 1203 106 q 1299 303 1299 229 q 1251 437 1299 377 q 1095 498 1203 498 l 857 498 l 857 106 z "},"Њ":{"ha":1501,"x_min":121,"x_max":1441,"o":"m 738 0 l 738 453 l 252 453 l 252 0 l 121 0 l 121 987 l 252 987 l 252 559 l 738 559 l 738 987 l 869 987 l 869 574 l 1109 574 q 1356 494 1270 574 q 1441 290 1441 415 q 1355 82 1441 165 q 1107 0 1269 0 l 738 0 m 869 113 l 1107 113 q 1263 167 1215 113 q 1312 292 1312 221 q 1263 415 1312 361 q 1107 468 1215 468 l 869 468 l 869 113 z "},"Ћ":{"ha":1131,"x_min":42,"x_max":1012,"o":"m 42 880 l 42 987 l 808 987 l 808 880 l 450 880 l 450 588 q 677 614 555 614 q 923 545 834 614 q 1012 309 1012 475 l 1012 0 l 882 0 l 882 313 q 830 466 881 425 q 677 507 779 507 q 450 479 565 507 l 450 0 l 319 0 l 319 880 l 42 880 z "},"Џ":{"ha":990,"x_min":119,"x_max":868,"o":"m 868 0 l 564 0 l 564 -243 l 433 -243 l 433 0 l 119 0 l 119 987 l 251 987 l 251 106 l 737 106 l 737 987 l 868 987 l 868 0 z "},"Б":{"ha":876,"x_min":111,"x_max":814,"o":"m 111 0 l 111 987 l 717 987 l 717 880 l 241 880 l 241 585 l 482 585 q 729 505 643 585 q 814 295 814 425 q 728 82 814 165 q 479 0 642 0 l 111 0 m 241 106 l 479 106 q 636 164 589 106 q 684 296 684 222 q 636 424 684 370 q 479 478 589 478 l 241 478 l 241 106 z "},"Д":{"ha":1044,"x_min":35,"x_max":1005,"o":"m 286 987 l 876 987 l 876 106 l 1005 106 l 1004 -242 l 874 -242 l 874 0 l 165 0 l 165 -243 l 35 -243 l 35 106 l 115 106 q 200 253 150 144 q 264 578 251 361 l 286 987 m 264 106 l 745 106 l 745 880 l 411 880 l 395 577 q 350 297 387 415 q 264 106 314 179 z "},"Ж":{"ha":1261,"x_min":18,"x_max":1252,"o":"m 573 0 l 573 451 l 462 451 l 181 0 l 18 0 l 351 521 l 45 987 l 198 987 l 460 559 l 573 559 l 573 987 l 703 987 l 703 559 l 810 559 l 1072 987 l 1226 987 l 919 522 l 1252 0 l 1089 0 l 809 451 l 703 451 l 703 0 l 573 0 z "},"З":{"ha":825,"x_min":54,"x_max":767,"o":"m 300 450 l 300 557 l 416 557 q 573 604 526 558 q 621 723 621 650 q 569 844 621 793 q 403 895 517 895 q 258 847 317 895 q 199 728 199 800 l 68 728 q 168 928 68 854 q 403 1001 267 1001 q 657 930 562 1001 q 752 721 752 859 q 710 596 752 652 q 592 507 667 539 q 767 275 767 449 q 665 62 767 137 q 403 -14 562 -14 q 237 16 317 -14 q 106 110 157 46 q 54 274 54 173 l 185 274 q 245 146 185 199 q 403 92 305 92 q 575 143 514 92 q 636 273 636 195 q 424 450 636 445 l 300 450 z "},"И":{"ha":991,"x_min":121,"x_max":868,"o":"m 251 227 l 737 987 l 868 987 l 868 0 l 737 0 l 737 762 l 251 0 l 121 0 l 121 987 l 251 987 l 251 227 z "},"Л":{"ha":983,"x_min":33,"x_max":862,"o":"m 253 987 l 862 987 l 862 0 l 731 0 l 731 880 l 378 880 l 360 489 q 289 118 347 235 q 72 0 231 1 l 33 0 l 33 106 l 61 109 q 191 208 157 116 q 234 526 224 300 l 253 987 z "},"У":{"ha":873,"x_min":52,"x_max":832,"o":"m 243 -14 q 175 -9 193 -14 l 179 96 l 240 92 q 321 125 298 92 q 363 197 345 159 l 389 257 l 52 987 l 199 987 l 454 414 l 682 987 l 832 987 l 483 165 q 405 41 452 96 q 243 -14 358 -14 z "},"Ф":{"ha":1072,"x_min":57,"x_max":1022,"o":"m 602 93 l 602 -41 l 477 -41 l 477 93 l 453 93 q 171 205 284 94 q 57 490 57 315 q 170 776 57 663 q 462 889 283 889 l 477 889 l 477 1028 l 602 1028 l 602 889 l 615 889 q 908 777 793 889 q 1022 492 1022 665 q 908 205 1022 318 q 615 93 794 93 l 602 93 m 477 195 l 477 786 l 457 786 q 253 705 324 786 q 181 490 181 624 q 253 276 181 357 q 457 195 324 195 l 477 195 m 602 786 l 602 195 l 622 195 q 826 277 754 195 q 897 492 897 358 q 826 706 897 625 q 622 786 754 786 l 602 786 z "},"Ц":{"ha":1016,"x_min":119,"x_max":971,"o":"m 971 110 l 959 -238 l 842 -238 l 842 0 l 119 0 l 119 987 l 250 987 l 250 106 l 736 106 l 736 987 l 867 987 l 867 110 l 971 110 z "},"Ч":{"ha":951,"x_min":102,"x_max":831,"o":"m 831 987 l 831 0 l 700 0 l 700 410 q 581 383 642 393 q 437 373 520 373 q 191 443 279 373 q 102 679 102 512 l 102 987 l 233 987 l 233 673 q 286 520 235 561 q 437 480 336 480 q 700 517 564 480 l 700 987 l 831 987 z "},"Ш":{"ha":1307,"x_min":119,"x_max":1188,"o":"m 119 987 l 251 987 l 251 106 l 590 106 l 590 987 l 720 987 l 720 106 l 1057 106 l 1057 987 l 1188 987 l 1188 0 l 119 0 l 119 987 z "},"Щ":{"ha":1345,"x_min":119,"x_max":1288,"o":"m 1288 103 l 1276 -238 l 1163 -238 l 1163 0 l 119 0 l 119 987 l 251 987 l 251 106 l 590 106 l 590 987 l 720 987 l 720 106 l 1057 106 l 1057 987 l 1188 987 l 1188 103 l 1288 103 z "},"Ъ":{"ha":1054,"x_min":12,"x_max":994,"o":"m 12 884 l 12 987 l 420 987 l 420 585 l 661 585 q 907 505 821 585 q 994 295 994 425 q 907 82 994 165 q 658 0 820 0 l 290 0 l 290 884 l 12 884 m 420 106 l 658 106 q 814 164 766 106 q 863 296 863 222 q 814 424 863 370 q 658 478 766 478 l 420 478 l 420 106 z "},"Ы":{"ha":1201,"x_min":121,"x_max":1075,"o":"m 825 295 q 825 230 825 295 q 738 82 825 165 q 490 0 652 0 l 121 0 l 121 987 l 252 987 l 252 585 l 492 585 q 739 505 653 585 q 825 295 825 425 m 1075 987 l 1075 0 l 944 0 l 944 987 l 1075 987 m 252 106 l 490 106 q 646 164 598 106 q 694 296 694 222 q 646 424 694 370 q 490 478 598 478 l 252 478 l 252 106 z "},"Ь":{"ha":871,"x_min":111,"x_max":814,"o":"m 814 295 q 814 230 814 295 q 728 82 814 165 q 479 0 642 0 l 111 0 l 111 987 l 241 987 l 241 585 l 482 585 q 729 505 643 585 q 814 295 814 425 m 241 106 l 479 106 q 636 164 589 106 q 684 296 684 222 q 636 424 684 370 q 479 478 589 478 l 241 478 l 241 106 z "},"Э":{"ha":937,"x_min":100,"x_max":860,"o":"m 860 444 q 754 112 860 237 q 475 -14 648 -14 q 207 80 297 -14 q 100 314 116 174 l 231 314 q 298 151 247 209 q 475 93 350 93 q 667 194 605 93 q 730 439 728 295 l 341 439 l 341 546 l 730 546 q 661 798 729 703 q 463 894 593 894 q 297 834 349 894 q 231 671 245 774 l 100 671 q 205 909 115 817 q 463 1001 296 1001 q 753 876 646 1001 q 860 542 860 750 l 860 444 z "},"Ю":{"ha":1242,"x_min":124,"x_max":1190,"o":"m 1190 463 q 1082 113 1190 240 q 794 -14 974 -14 q 515 105 625 -14 q 397 432 405 223 l 255 432 l 255 0 l 124 0 l 124 987 l 255 987 l 255 535 l 396 535 q 509 877 399 752 q 793 1001 619 1001 q 1081 874 972 1001 q 1190 525 1190 747 l 1190 463 m 1061 526 q 990 796 1061 703 q 793 890 920 890 q 598 796 671 890 q 526 526 526 703 l 526 463 q 599 191 526 285 q 794 97 673 97 q 991 191 922 97 q 1061 463 1061 285 l 1061 526 z "},"Я":{"ha":884,"x_min":61,"x_max":763,"o":"m 632 0 l 632 385 l 404 385 l 200 0 l 61 0 l 291 421 q 98 690 98 497 q 192 910 98 833 q 447 987 286 987 l 763 987 l 763 0 l 632 0 m 632 492 l 632 880 l 447 880 q 283 829 338 880 q 229 690 229 777 q 283 548 229 604 q 443 492 337 492 l 632 492 z "},"б":{"ha":768,"x_min":66,"x_max":722,"o":"m 395 -14 q 153 89 240 -14 q 66 345 66 191 l 66 412 q 158 789 66 662 q 397 943 250 916 q 522 979 477 958 q 566 1053 566 1000 l 669 1053 q 634 923 669 964 q 543 865 599 882 q 425 835 488 848 q 264 760 333 815 q 175 577 195 705 q 280 660 218 628 q 418 692 341 692 q 642 597 562 692 q 722 359 722 502 l 722 345 q 635 89 722 191 q 395 -14 549 -14 m 393 589 q 241 520 290 589 q 192 359 192 451 l 192 345 q 241 165 192 241 q 395 89 290 89 q 547 164 498 89 q 596 342 595 239 l 596 359 q 547 520 596 451 q 393 589 498 589 z "},"в":{"ha":794,"x_min":107,"x_max":722,"o":"m 722 209 q 647 53 722 105 q 440 0 571 0 l 107 0 l 107 734 l 393 734 q 615 685 533 734 q 696 532 696 635 q 577 378 696 423 q 685 315 648 361 q 722 209 722 268 m 233 632 l 233 423 l 395 423 q 570 526 570 423 q 402 632 570 629 l 233 632 m 596 212 q 448 323 596 320 l 233 323 l 233 102 l 440 102 q 596 212 596 102 z "},"г":{"ha":583,"x_min":105,"x_max":570,"o":"m 570 734 l 570 630 l 231 630 l 231 0 l 105 0 l 105 734 l 570 734 z "},"д":{"ha":838,"x_min":31,"x_max":795,"o":"m 228 734 l 701 734 l 701 103 l 795 103 l 795 -216 l 669 -216 l 669 0 l 157 0 l 157 -216 l 31 -216 l 32 103 l 90 103 q 146 178 119 138 q 193 284 174 218 q 216 458 212 349 l 228 734 m 239 103 l 575 103 l 575 618 l 349 618 l 342 442 q 239 103 330 226 z "},"ж":{"ha":1064,"x_min":15,"x_max":1044,"o":"m 467 0 l 467 319 l 378 319 l 174 0 l 15 0 l 277 380 l 40 734 l 191 734 l 381 430 l 467 430 l 467 734 l 592 734 l 592 430 l 678 430 l 868 734 l 1020 734 l 783 380 l 1044 0 l 886 0 l 680 319 l 592 319 l 592 0 l 467 0 z "},"з":{"ha":705,"x_min":60,"x_max":638,"o":"m 235 321 l 235 428 l 359 428 q 468 457 438 428 q 498 534 498 486 q 465 611 498 576 q 352 645 432 645 q 242 611 287 645 q 197 530 197 578 l 71 530 q 154 688 71 630 q 352 747 237 747 q 552 692 479 747 q 625 534 625 637 q 511 378 625 429 q 638 207 638 334 q 558 45 638 103 q 352 -14 479 -14 q 214 11 281 -14 q 103 86 146 35 q 60 217 60 137 l 185 217 q 231 127 185 167 q 352 87 277 87 q 471 123 431 87 q 511 206 511 159 q 366 321 511 319 l 235 321 z "},"и":{"ha":802,"x_min":106,"x_max":696,"o":"m 231 199 l 570 734 l 696 734 l 696 0 l 570 0 l 570 535 l 231 0 l 106 0 l 106 734 l 231 734 l 231 199 z "},"к":{"ha":751,"x_min":106,"x_max":738,"o":"m 578 0 l 324 313 l 232 313 l 232 0 l 106 0 l 106 734 l 232 734 l 232 423 l 315 423 l 561 734 l 713 734 l 422 382 l 738 0 l 578 0 z "},"л":{"ha":803,"x_min":30,"x_max":696,"o":"m 201 734 l 696 734 l 696 0 l 571 0 l 571 630 l 321 630 l 307 356 q 242 83 294 164 q 75 0 190 2 l 30 0 l 30 111 l 58 113 q 150 176 123 117 q 186 390 177 235 l 201 734 z "},"м":{"ha":1030,"x_min":107,"x_max":924,"o":"m 517 167 l 767 734 l 924 734 l 924 0 l 798 0 l 798 533 l 561 0 l 474 0 l 233 544 l 233 0 l 107 0 l 107 734 l 269 734 l 517 167 z "},"н":{"ha":801,"x_min":106,"x_max":695,"o":"m 569 0 l 569 314 l 232 314 l 232 0 l 106 0 l 106 734 l 232 734 l 232 416 l 569 416 l 569 734 l 695 734 l 695 0 l 569 0 z "},"п":{"ha":802,"x_min":106,"x_max":696,"o":"m 106 0 l 106 734 l 696 734 l 696 0 l 570 0 l 570 630 l 232 630 l 232 0 l 106 0 z "},"т":{"ha":668,"x_min":27,"x_max":641,"o":"m 27 632 l 27 734 l 641 734 l 641 632 l 395 632 l 395 0 l 269 0 l 269 632 l 27 632 z "}}}
